<svg width="60" height="58" viewBox="0 0 60 58" fill="none" xmlns="http://www.w3.org/2000/svg" xmlns:xlink="http://www.w3.org/1999/xlink">
<path d="M29.411,5.17C37.108,5.17 38.02,5.199 41.06,5.337C42.889,5.359 44.7,5.693 46.414,6.324C47.658,6.802 48.787,7.533 49.73,8.471C50.672,9.409 51.407,10.533 51.886,11.77C52.521,13.477 52.857,15.279 52.879,17.099C53.016,20.125 53.047,21.032 53.047,28.693C53.047,36.353 53.018,37.261 52.879,40.287C52.857,42.106 52.521,43.909 51.886,45.615C51.407,46.853 50.672,47.977 49.73,48.915C48.787,49.853 47.658,50.584 46.414,51.061C44.7,51.693 42.889,52.027 41.06,52.049C38.021,52.186 37.109,52.216 29.411,52.216C21.712,52.216 20.8,52.187 17.761,52.049C15.933,52.027 14.122,51.693 12.407,51.061C11.163,50.584 10.034,49.853 9.092,48.915C8.149,47.977 7.415,46.853 6.935,45.615C6.3,43.909 5.965,42.106 5.942,40.287C5.805,37.261 5.775,36.353 5.775,28.693C5.775,21.032 5.804,20.125 5.942,17.099C5.965,15.279 6.3,13.477 6.935,11.77C7.415,10.533 8.149,9.409 9.092,8.471C10.034,7.533 11.163,6.802 12.407,6.324C14.122,5.693 15.933,5.359 17.761,5.337C20.802,5.2 21.713,5.17 29.411,5.17L29.411,5.17ZM29.411,0C21.586,0 20.6,0.033 17.525,0.172C15.132,0.22 12.765,0.67 10.523,1.506C8.601,2.227 6.859,3.356 5.421,4.816C3.953,6.248 2.816,7.983 2.092,9.897C1.252,12.128 0.799,14.484 0.752,16.865C0.614,19.923 0.582,20.904 0.582,28.691C0.582,36.479 0.614,37.46 0.755,40.521C0.802,42.902 1.255,45.258 2.094,47.488C2.818,49.403 3.954,51.137 5.421,52.57C6.86,54.03 8.603,55.159 10.526,55.88C12.767,56.715 15.135,57.166 17.528,57.213C20.603,57.35 21.584,57.386 29.413,57.386C37.243,57.386 38.224,57.353 41.299,57.213C43.692,57.166 46.059,56.715 48.301,55.88C50.215,55.141 51.954,54.013 53.405,52.568C54.857,51.123 55.989,49.392 56.73,47.486C57.569,45.255 58.022,42.899 58.07,40.518C58.207,37.46 58.24,36.479 58.24,28.691C58.24,20.904 58.207,19.923 58.067,16.862C58.019,14.481 57.566,12.125 56.727,9.894C56.003,7.98 54.868,6.246 53.401,4.813C51.961,3.353 50.219,2.223 48.295,1.503C46.054,0.668 43.687,0.217 41.294,0.169C38.221,0.033 37.236,0 29.411,0Z" fill="#363636"/>
<path d="M29.406,13.959C26.477,13.959 23.615,14.823 21.181,16.442C18.746,18.061 16.849,20.362 15.728,23.054C14.607,25.747 14.314,28.709 14.886,31.567C15.457,34.425 16.867,37.051 18.937,39.111C21.008,41.172 23.646,42.575 26.517,43.143C29.389,43.712 32.366,43.42 35.071,42.305C37.776,41.19 40.088,39.301 41.715,36.878C43.342,34.455 44.21,31.607 44.21,28.693C44.21,24.785 42.65,21.038 39.874,18.274C37.097,15.511 33.332,13.959 29.406,13.959ZM29.406,38.257C27.505,38.257 25.647,37.696 24.067,36.645C22.486,35.594 21.255,34.1 20.527,32.353C19.8,30.605 19.61,28.682 19.98,26.827C20.351,24.972 21.266,23.268 22.61,21.93C23.954,20.593 25.667,19.682 27.531,19.313C29.395,18.944 31.327,19.133 33.083,19.857C34.839,20.581 36.34,21.807 37.396,23.379C38.452,24.952 39.015,26.801 39.015,28.693C39.015,31.229 38.003,33.662 36.201,35.455C34.398,37.249 31.954,38.257 29.406,38.257L29.406,38.257Z" fill="#363636"/>
<path d="M44.797,16.819C46.708,16.819 48.256,15.277 48.256,13.376C48.256,11.474 46.708,9.933 44.797,9.933C42.886,9.933 41.337,11.474 41.337,13.376C41.337,15.277 42.886,16.819 44.797,16.819Z" fill="#8E8FB8"/>
</svg>
