<svg width="82" height="96" viewBox="0 0 82 96" fill="none" xmlns="http://www.w3.org/2000/svg" xmlns:xlink="http://www.w3.org/1999/xlink">
<path d="M40.56,4L41.628,1.197C40.94,0.934 40.18,0.934 39.492,1.197L40.56,4ZM77.12,17.928L80.12,17.928C80.12,16.683 79.351,15.567 78.188,15.124L77.12,17.928ZM40.56,91.048L39.678,93.915C40.253,94.092 40.867,94.092 41.442,93.915L40.56,91.048ZM4,17.928L2.932,15.124C1.769,15.567 1,16.683 1,17.928L4,17.928ZM39.492,6.803L76.052,20.731L78.188,15.124L41.628,1.197L39.492,6.803ZM74.12,17.928L74.12,52.747L80.12,52.747L80.12,17.928L74.12,17.928ZM74.12,52.747C74.12,66.568 61.644,81.421 39.678,88.18L41.442,93.915C64.74,86.746 80.12,70.262 80.12,52.747L74.12,52.747ZM41.442,88.18C19.385,81.394 7,68.242 7,52.747L1,52.747C1,72.07 16.47,86.774 39.678,93.915L41.442,88.18ZM7,52.747L7,17.928L1,17.928L1,52.747L7,52.747ZM5.068,20.731L41.628,6.803L39.492,1.197L2.932,15.124L5.068,20.731Z" fill="#5B851F"/>
<path d="M27.013,43.662C25.841,42.49 23.942,42.49 22.77,43.662C21.598,44.833 21.598,46.733 22.77,47.904L27.013,43.662ZM35.337,56.229L33.216,58.35C33.807,58.941 34.617,59.259 35.452,59.227C36.287,59.194 37.071,58.816 37.615,58.181L35.337,56.229ZM58.506,33.808C59.585,32.55 59.439,30.656 58.181,29.578C56.923,28.499 55.029,28.645 53.951,29.903L58.506,33.808ZM22.77,47.904L33.216,58.35L37.458,54.107L27.013,43.662L22.77,47.904ZM37.615,58.181L58.506,33.808L53.951,29.903L33.059,54.276L37.615,58.181Z" fill="#5B851F"/>
</svg>
