<svg width="72" height="72" viewBox="0 0 72 72" fill="none" xmlns="http://www.w3.org/2000/svg" xmlns:xlink="http://www.w3.org/1999/xlink">
<path d="M25.977,32.986L7.881,32.986C6.031,32.976 4.26,32.237 2.952,30.929C1.644,29.621 0.906,27.85 0.896,26.001L0.896,7.905C0.906,6.055 1.644,4.284 2.952,2.976C4.26,1.668 6.031,0.929 7.881,0.919L25.977,0.919C27.827,0.929 29.598,1.668 30.906,2.976C32.214,4.284 32.953,6.055 32.962,7.905L32.962,26.001C32.953,27.85 32.214,29.621 30.906,30.929C29.598,32.237 27.827,32.976 25.977,32.986L25.977,32.986ZM7.881,6.348C7.471,6.357 7.081,6.524 6.791,6.814C6.501,7.104 6.334,7.495 6.325,7.905L6.325,26.001C6.325,26.413 6.489,26.809 6.781,27.101C7.072,27.393 7.468,27.557 7.881,27.557L25.977,27.557C26.39,27.557 26.786,27.393 27.078,27.101C27.369,26.809 27.533,26.413 27.533,26.001L27.533,7.905C27.533,7.492 27.369,7.096 27.078,6.804C26.786,6.512 26.39,6.348 25.977,6.348L7.881,6.348Z" fill="#FFFFFF"/>
<path d="M64.703,32.986L46.607,32.986C44.757,32.976 42.986,32.237 41.678,30.929C40.37,29.621 39.631,27.85 39.622,26.001L39.622,7.905C39.631,6.055 40.37,4.284 41.678,2.976C42.986,1.668 44.757,0.929 46.607,0.919L64.703,0.919C66.552,0.929 68.324,1.668 69.631,2.976C70.939,4.284 71.678,6.055 71.688,7.905L71.688,26.001C71.678,27.85 70.939,29.621 69.631,30.929C68.324,32.237 66.552,32.976 64.703,32.986L64.703,32.986ZM46.607,6.348C46.194,6.348 45.798,6.512 45.506,6.804C45.214,7.096 45.05,7.492 45.05,7.905L45.05,26.001C45.05,26.413 45.214,26.809 45.506,27.101C45.798,27.393 46.194,27.557 46.607,27.557L64.703,27.557C65.115,27.557 65.511,27.393 65.803,27.101C66.095,26.809 66.259,26.413 66.259,26.001L66.259,7.905C66.25,7.495 66.083,7.104 65.793,6.814C65.503,6.524 65.113,6.357 64.703,6.348L46.607,6.348Z" fill="#FFFFFF"/>
<path d="M25.977,70.408L7.881,70.408C6.031,70.399 4.26,69.66 2.952,68.352C1.644,67.044 0.906,65.273 0.896,63.423L0.896,45.327C0.906,43.477 1.644,41.706 2.952,40.398C4.26,39.09 6.031,38.351 7.881,38.342L25.977,38.342C27.827,38.351 29.598,39.09 30.906,40.398C32.214,41.706 32.953,43.477 32.962,45.327L32.962,63.423C32.953,65.273 32.214,67.044 30.906,68.352C29.598,69.66 27.827,70.399 25.977,70.408L25.977,70.408ZM7.881,43.771C7.468,43.771 7.072,43.935 6.781,44.226C6.489,44.518 6.325,44.914 6.325,45.327L6.325,63.423C6.334,63.833 6.501,64.223 6.791,64.513C7.081,64.803 7.471,64.97 7.881,64.979L25.977,64.979C26.39,64.979 26.786,64.815 27.078,64.523C27.369,64.232 27.533,63.836 27.533,63.423L27.533,45.327C27.533,44.914 27.369,44.518 27.078,44.226C26.786,43.935 26.39,43.771 25.977,43.771L7.881,43.771Z" fill="#FFFFFF"/>
<path d="M64.703,70.408L46.607,70.408C44.757,70.399 42.986,69.66 41.678,68.352C40.37,67.044 39.631,65.273 39.622,63.423L39.622,45.327C39.631,43.477 40.37,41.706 41.678,40.398C42.986,39.09 44.757,38.351 46.607,38.342L64.703,38.342C66.552,38.351 68.324,39.09 69.631,40.398C70.939,41.706 71.678,43.477 71.688,45.327L71.688,63.423C71.678,65.273 70.939,67.044 69.631,68.352C68.324,69.66 66.552,70.399 64.703,70.408L64.703,70.408ZM46.607,43.771C46.194,43.771 45.798,43.935 45.506,44.226C45.214,44.518 45.05,44.914 45.05,45.327L45.05,63.423C45.05,63.836 45.214,64.232 45.506,64.523C45.798,64.815 46.194,64.979 46.607,64.979L64.703,64.979C65.113,64.97 65.503,64.803 65.793,64.513C66.083,64.223 66.25,63.833 66.259,63.423L66.259,45.327C66.259,44.914 66.095,44.518 65.803,44.226C65.511,43.935 65.115,43.771 64.703,43.771L46.607,43.771Z" fill="#FFFFFF"/>
</svg>
