<svg width="58" height="60" viewBox="0 0 58 60" fill="none" xmlns="http://www.w3.org/2000/svg" xmlns:xlink="http://www.w3.org/1999/xlink">
<path d="M33.051,29.948C33.051,32.666 30.847,34.87 28.129,34.87L28.129,37.5C32.299,37.5 35.68,34.119 35.68,29.948L33.051,29.948ZM28.129,34.87C25.41,34.87 23.206,32.666 23.206,29.948L20.577,29.948C20.577,34.119 23.958,37.5 28.129,37.5L28.129,34.87ZM23.206,29.948C23.206,27.23 25.41,25.026 28.129,25.026L28.129,22.396C23.958,22.396 20.577,25.777 20.577,29.948L23.206,29.948ZM28.129,25.026C30.847,25.026 33.051,27.23 33.051,29.948L35.68,29.948C35.68,25.777 32.299,22.396 28.129,22.396L28.129,25.026Z" fill="#5B851F"/>
<path d="M7.543,10.863L8.323,9.509C8.017,9.332 7.66,9.265 7.31,9.317C6.961,9.37 6.639,9.54 6.399,9.799L7.543,10.863ZM1.309,21.665L-0.181,21.204C-0.285,21.541 -0.271,21.904 -0.142,22.233C-0.013,22.561 0.224,22.836 0.53,23.013L1.309,21.665ZM1.303,38.228L0.524,36.878C0.217,37.054 -0.02,37.33 -0.149,37.659C-0.279,37.988 -0.292,38.352 -0.187,38.689L1.303,38.228ZM7.54,49.03L6.396,50.091C6.636,50.35 6.957,50.52 7.307,50.573C7.657,50.625 8.014,50.558 8.32,50.381L7.54,49.03ZM21.885,57.31L20.326,57.31C20.326,57.664 20.446,58.008 20.667,58.284C20.888,58.561 21.197,58.754 21.542,58.832L21.885,57.31ZM34.363,57.316L34.709,58.838C35.054,58.76 35.362,58.566 35.582,58.29C35.802,58.013 35.922,57.67 35.922,57.316L34.363,57.316ZM48.711,49.034L47.931,50.384C48.237,50.561 48.595,50.628 48.944,50.576C49.294,50.523 49.615,50.353 49.855,50.094L48.711,49.034ZM54.942,38.225L56.432,38.686C56.536,38.349 56.522,37.986 56.393,37.658C56.264,37.329 56.027,37.054 55.721,36.878L54.942,38.225ZM54.948,21.662L55.728,23.013C56.034,22.836 56.271,22.561 56.401,22.231C56.53,21.902 56.543,21.539 56.439,21.201L54.948,21.662ZM48.711,10.857L49.855,9.796C49.615,9.537 49.294,9.367 48.944,9.314C48.595,9.262 48.237,9.329 47.931,9.506L48.711,10.857ZM34.366,2.583L35.925,2.583C35.925,2.23 35.804,1.888 35.584,1.612C35.364,1.336 35.056,1.143 34.712,1.065L34.366,2.583ZM21.892,2.577L21.546,1.055C21.2,1.133 20.892,1.326 20.671,1.603C20.45,1.879 20.329,2.223 20.329,2.577L21.892,2.577ZM2.8,22.127C3.97,18.326 5.981,14.837 8.685,11.92L6.399,9.799C3.377,13.06 1.128,16.955 -0.181,21.204L2.8,22.127ZM5.17,43.202C4.179,41.485 3.383,39.663 2.797,37.769L-0.184,38.693C0.473,40.808 1.364,42.843 2.473,44.761L5.17,43.202ZM8.688,47.973C7.342,46.519 6.16,44.918 5.17,43.202L2.473,44.761C3.579,46.679 4.896,48.468 6.399,50.094L8.688,47.973ZM34.02,55.801C30.142,56.684 26.115,56.681 22.238,55.794L21.546,58.832C25.878,59.823 30.378,59.827 34.712,58.841L34.02,55.801ZM53.457,37.769C52.287,41.571 50.276,45.059 47.573,47.976L49.859,50.097C52.881,46.837 55.13,42.938 56.439,38.689L53.457,37.769ZM51.087,16.695C52.098,18.45 52.887,20.271 53.464,22.127L56.442,21.204C55.785,19.088 54.894,17.053 53.785,15.135L51.087,16.695ZM47.57,11.923C48.916,13.377 50.098,14.977 51.087,16.695L53.785,15.135C52.679,13.217 51.362,11.428 49.859,9.803L47.57,11.923ZM22.238,4.096C26.116,3.213 30.143,3.215 34.02,4.102L34.712,1.065C30.38,0.073 25.879,0.07 21.546,1.055L22.238,4.096ZM23.451,8.343L23.451,2.574L20.332,2.574L20.332,8.343L23.451,8.343ZM13.316,12.391L8.323,9.509L6.764,12.207L11.753,15.092L13.316,12.391ZM5.519,33.996L0.524,36.878L2.086,39.578L7.076,36.697L5.519,33.996ZM7.079,23.194L2.089,20.315L0.53,23.016L5.519,25.894L7.079,23.194ZM23.451,57.31L23.451,51.55L20.332,51.55L20.332,57.31L23.451,57.31ZM11.756,44.799L6.764,47.68L8.323,50.381L13.313,47.499L11.756,44.799ZM49.494,47.683L44.501,44.799L42.942,47.502L47.931,50.384L49.494,47.683ZM35.925,57.319L35.925,51.55L32.807,51.55L32.807,57.319L35.925,57.319ZM54.171,20.312L49.179,23.194L50.738,25.894L55.728,23.013L54.171,20.312ZM55.724,36.874L50.738,34.002L49.179,36.703L54.168,39.581L55.724,36.874ZM35.925,8.343L35.925,2.583L32.807,2.583L32.807,8.343L35.925,8.343ZM47.934,9.509L42.942,12.394L44.501,15.095L49.494,12.21L47.934,9.509ZM32.807,8.343C32.807,14.343 39.302,18.095 44.501,15.095L42.942,12.394C42.23,12.805 41.423,13.021 40.602,13.021C39.781,13.021 38.974,12.804 38.263,12.393C37.551,11.982 36.961,11.391 36.551,10.68C36.14,9.968 35.925,9.165 35.925,8.343L32.807,8.343ZM49.179,23.197C43.98,26.197 43.98,33.7 49.179,36.7L50.738,33.999C50.027,33.589 49.436,32.998 49.026,32.287C48.615,31.576 48.399,30.769 48.399,29.948C48.399,29.127 48.615,28.321 49.026,27.609C49.436,26.898 50.027,26.308 50.738,25.897L49.179,23.197ZM44.501,44.802C39.302,41.802 32.807,45.547 32.807,51.55L35.925,51.55C35.925,50.729 36.141,49.926 36.552,49.214C36.962,48.503 37.553,47.913 38.264,47.502C38.975,47.092 39.782,46.876 40.603,46.876C41.424,46.876 42.231,47.092 42.942,47.502L44.501,44.802ZM23.451,51.55C23.451,45.55 16.955,41.802 11.756,44.802L13.316,47.502C14.027,47.092 14.834,46.875 15.655,46.876C16.477,46.876 17.284,47.092 17.995,47.503C18.706,47.914 19.296,48.505 19.707,49.216C20.117,49.928 20.333,50.735 20.332,51.556L23.451,51.55ZM7.079,36.7C12.277,33.7 12.277,26.197 7.079,23.197L5.519,25.897C8.638,27.697 8.638,32.194 5.519,33.996L7.079,36.7ZM20.332,8.343C20.332,9.164 20.115,9.97 19.704,10.681C19.294,11.392 18.703,11.982 17.992,12.392C17.281,12.802 16.475,13.018 15.654,13.018C14.833,13.018 14.027,12.801 13.316,12.391L11.756,15.095C16.955,18.095 23.451,14.346 23.451,8.343L20.332,8.343Z" fill="#5B851F" stroke="#FFFFFF" stroke-width="0.329" stroke-miterlimit="3.999327"/>
</svg>
