<svg width="80" height="96" viewBox="0 0 80 96" fill="none" xmlns="http://www.w3.org/2000/svg" xmlns:xlink="http://www.w3.org/1999/xlink">
<path d="M38.56,4L39.628,1.197C38.94,0.934 38.18,0.934 37.492,1.197L38.56,4ZM75.12,17.928L78.12,17.928C78.12,16.683 77.351,15.567 76.188,15.124L75.12,17.928ZM38.56,91.048L37.678,93.915C38.253,94.092 38.867,94.092 39.442,93.915L38.56,91.048ZM2,17.928L0.932,15.124C-0.231,15.567 -1,16.683 -1,17.928L2,17.928ZM37.492,6.803L74.052,20.731L76.188,15.124L39.628,1.197L37.492,6.803ZM72.12,17.928L72.12,52.747L78.12,52.747L78.12,17.928L72.12,17.928ZM72.12,52.747C72.12,66.568 59.644,81.421 37.678,88.18L39.442,93.915C62.74,86.746 78.12,70.262 78.12,52.747L72.12,52.747ZM39.442,88.18C17.385,81.394 5,68.242 5,52.747L-1,52.747C-1,72.07 14.47,86.774 37.678,93.915L39.442,88.18ZM5,52.747L5,17.928L-1,17.928L-1,52.747L5,52.747ZM3.068,20.731L39.628,6.803L37.492,1.197L0.932,15.124L3.068,20.731Z" fill="#5B851F"/>
<path d="M25.013,43.662C23.841,42.49 21.942,42.49 20.77,43.662C19.598,44.833 19.598,46.733 20.77,47.904L25.013,43.662ZM33.337,56.229L31.216,58.35C31.807,58.941 32.617,59.259 33.452,59.227C34.287,59.194 35.071,58.816 35.615,58.181L33.337,56.229ZM56.506,33.808C57.585,32.55 57.439,30.656 56.181,29.578C54.923,28.499 53.029,28.645 51.951,29.903L56.506,33.808ZM20.77,47.904L31.216,58.35L35.458,54.107L25.013,43.662L20.77,47.904ZM35.615,58.181L56.506,33.808L51.951,29.903L31.059,54.276L35.615,58.181Z" fill="#5B851F"/>
</svg>
