<svg width="34" height="34" viewBox="0 0 34 34" fill="none" xmlns="http://www.w3.org/2000/svg" xmlns:xlink="http://www.w3.org/1999/xlink">
<path d="M16.333,3.258C20.842,3.258 21.376,3.275 23.157,3.356C24.228,3.369 25.289,3.566 26.293,3.937C27.022,4.218 27.683,4.649 28.235,5.201C28.787,5.753 29.218,6.414 29.499,7.143C29.87,8.147 30.067,9.208 30.08,10.279C30.161,12.06 30.178,12.594 30.178,17.103C30.178,21.612 30.161,22.146 30.08,23.927C30.067,24.998 29.87,26.059 29.499,27.063C29.218,27.792 28.787,28.453 28.235,29.005C27.683,29.557 27.022,29.988 26.293,30.269C25.289,30.64 24.228,30.837 23.157,30.85C21.377,30.93 20.843,30.948 16.333,30.948C11.823,30.948 11.289,30.931 9.509,30.85C8.438,30.837 7.377,30.64 6.373,30.269C5.644,29.988 4.983,29.557 4.431,29.005C3.879,28.453 3.448,27.792 3.167,27.063C2.796,26.059 2.599,24.998 2.586,23.927C2.506,22.146 2.488,21.612 2.488,17.103C2.488,12.594 2.505,12.06 2.586,10.279C2.599,9.208 2.796,8.147 3.167,7.143C3.448,6.414 3.879,5.753 4.431,5.201C4.983,4.649 5.644,4.218 6.373,3.937C7.377,3.566 8.438,3.369 9.509,3.356C11.29,3.275 11.824,3.258 16.333,3.258L16.333,3.258ZM16.333,0.215C11.749,0.215 11.172,0.234 9.371,0.316C7.969,0.344 6.582,0.609 5.27,1.101C4.143,1.525 3.123,2.19 2.28,3.05C1.42,3.893 0.755,4.913 0.33,6.04C-0.161,7.353 -0.427,8.74 -0.454,10.141C-0.535,11.941 -0.554,12.518 -0.554,17.102C-0.554,21.686 -0.535,22.263 -0.453,24.064C-0.425,25.466 -0.16,26.853 0.332,28.166C0.756,29.292 1.421,30.313 2.28,31.156C3.124,32.016 4.144,32.681 5.271,33.105C6.584,33.596 7.971,33.862 9.372,33.89C11.174,33.97 11.749,33.991 16.335,33.991C20.921,33.991 21.496,33.972 23.297,33.89C24.699,33.862 26.085,33.596 27.398,33.105C28.52,32.67 29.538,32.006 30.388,31.155C31.239,30.305 31.902,29.286 32.336,28.164C32.827,26.851 33.093,25.464 33.121,24.063C33.201,22.263 33.22,21.686 33.22,17.102C33.22,12.518 33.201,11.941 33.119,10.14C33.091,8.738 32.826,7.351 32.334,6.039C31.91,4.912 31.245,3.891 30.386,3.048C29.543,2.189 28.522,1.524 27.395,1.099C26.082,0.608 24.695,0.342 23.294,0.315C21.494,0.234 20.917,0.215 16.333,0.215Z" fill="#090914"/>
<path d="M16.336,8.434C14.621,8.434 12.944,8.942 11.518,9.895C10.092,10.848 8.981,12.202 8.324,13.787C7.668,15.372 7.496,17.115 7.831,18.797C8.165,20.48 8.991,22.025 10.204,23.238C11.417,24.45 12.962,25.276 14.644,25.611C16.326,25.946 18.07,25.774 19.655,25.118C21.239,24.461 22.594,23.35 23.547,21.924C24.5,20.497 25.008,18.821 25.008,17.106C25.008,14.806 24.094,12.6 22.468,10.974C20.842,9.347 18.636,8.434 16.336,8.434ZM16.336,22.735C15.223,22.735 14.134,22.405 13.209,21.786C12.283,21.168 11.562,20.288 11.135,19.26C10.709,18.231 10.598,17.099 10.815,16.007C11.032,14.915 11.568,13.912 12.356,13.125C13.143,12.338 14.146,11.802 15.238,11.585C16.33,11.367 17.462,11.479 18.49,11.905C19.519,12.331 20.398,13.053 21.017,13.978C21.635,14.904 21.965,15.992 21.965,17.106C21.965,18.599 21.372,20.03 20.316,21.086C19.261,22.142 17.829,22.735 16.336,22.735L16.336,22.735Z" fill="#090914"/>
<path d="M25.35,10.115C26.469,10.115 27.376,9.208 27.376,8.089C27.376,6.97 26.469,6.063 25.35,6.063C24.231,6.063 23.323,6.97 23.323,8.089C23.323,9.208 24.231,10.115 25.35,10.115Z" fill="#090914"/>
</svg>
