<svg width="598" height="756" viewBox="0 0 598 756" fill="none" xmlns="http://www.w3.org/2000/svg" xmlns:xlink="http://www.w3.org/1999/xlink">
<g filter="url(#filter35_255)">
<rect  x="0" y="0" width="598" height="756" rx="46" fill="#FFFFFF"/>
</g>
<path d="M298.5,187.616C300.286,187.616 301.998,188.326 303.261,189.588C304.523,190.851 305.233,192.563 305.233,194.349L305.233,234.744C305.233,236.53 304.523,238.242 303.261,239.505C301.998,240.767 300.286,241.477 298.5,241.477C296.715,241.477 295.002,240.767 293.74,239.505C292.477,238.242 291.768,236.53 291.768,234.744L291.768,194.349C291.768,192.563 292.477,190.851 293.74,189.588C295.002,188.326 296.715,187.616 298.5,187.616ZM298.5,277.384C300.881,277.384 303.164,276.438 304.848,274.754C306.531,273.071 307.477,270.788 307.477,268.407C307.477,266.026 306.531,263.743 304.848,262.059C303.164,260.376 300.881,259.43 298.5,259.43C296.119,259.43 293.836,260.376 292.153,262.059C290.469,263.743 289.523,266.026 289.523,268.407C289.523,270.788 290.469,273.071 292.153,274.754C293.836,276.438 296.119,277.384 298.5,277.384Z" fill="#84A9DF" stroke="#FFFFFF" stroke-width="1.5" stroke-miterlimit="3.999327"/>
<path d="M256.561,137.975C257.822,136.712 259.533,136.002 261.318,136L335.682,136C337.468,136 339.174,136.709 340.439,137.975L393.025,190.561C394.291,191.817 395,193.523 395,195.318L395,269.682C394.998,271.467 394.288,273.178 393.025,274.439L340.439,327.025C339.178,328.288 337.467,328.998 335.682,329L261.318,329C259.533,328.998 257.822,328.288 256.561,327.025L203.975,274.439C202.712,273.178 202.002,271.467 202,269.682L202,195.318C202,193.532 202.709,191.826 203.975,190.561L256.561,137.975ZM264.101,149.465L215.465,198.11L215.465,266.89L264.11,315.535L332.89,315.535L381.535,266.899L381.535,198.101L332.899,149.465L264.101,149.465Z" fill="#84A9DF" stroke="#FFFFFF" stroke-width="1.5" stroke-miterlimit="3.999327"/>
<defs>
<filter id="filter35_255" x="-20.6" y="-20.6" width="340.200001" height="419.200001" filterUnits="userSpaceOnUse" color-interpolation-filters="sRGB">
<feFlood flood-opacity="0" result="BackgroundImageFix"/>
<feColorMatrix in="SourceAlpha" type="matrix" values="0 0 0 0 0 0 0 0 0 0 0 0 0 0 0 0 0 0 127 0" result="hardAlpha"/>
<feMorphology radius="0" operator="dilate" in="SourceAlpha" result="0dropshadow"/>
<feOffset dx="0" dy="4"/>
<feGaussianBlur stdDeviation="10.3"/>
<feComposite in2="hardAlpha" operator="out"/>
<feColorMatrix type="matrix" values="0 0 0 0 0 0 0 0 0 0 0 0 0 0 0 0 0 0 0.09 0"/>
<feBlend mode="normal" in2="BackgroundImageFix" result="0dropshadow"/>
<feBlend mode="normal" in="SourceGraphic" in2="0dropshadow" result="shape"/>
</filter>
</defs>
</svg>
