<svg width="194" height="194" viewBox="0 0 194 194" fill="none" xmlns="http://www.w3.org/2000/svg" xmlns:xlink="http://www.w3.org/1999/xlink">
<path d="M96.5,51.616C98.286,51.616 99.998,52.326 101.261,53.588C102.523,54.851 103.233,56.563 103.233,58.349L103.233,98.744C103.233,100.53 102.523,102.242 101.261,103.505C99.998,104.767 98.286,105.477 96.5,105.477C94.715,105.477 93.002,104.767 91.74,103.505C90.477,102.242 89.768,100.53 89.768,98.744L89.768,58.349C89.768,56.563 90.477,54.851 91.74,53.588C93.002,52.326 94.715,51.616 96.5,51.616ZM96.5,141.384C98.881,141.384 101.164,140.438 102.848,138.754C104.531,137.071 105.477,134.788 105.477,132.407C105.477,130.026 104.531,127.743 102.848,126.059C101.164,124.376 98.881,123.43 96.5,123.43C94.119,123.43 91.836,124.376 90.153,126.059C88.469,127.743 87.523,130.026 87.523,132.407C87.523,134.788 88.469,137.071 90.153,138.754C91.836,140.438 94.119,141.384 96.5,141.384Z" fill="#84A9DF" stroke="#FFFFFF" stroke-width="1.5" stroke-miterlimit="3.999327"/>
<path d="M54.561,1.975C55.822,0.712 57.533,0.002 59.318,0L133.682,0C135.468,0 137.174,0.709 138.439,1.975L191.025,54.561C192.291,55.817 193,57.523 193,59.318L193,133.682C192.998,135.467 192.288,137.178 191.025,138.439L138.439,191.025C137.178,192.288 135.467,192.998 133.682,193L59.318,193C57.533,192.998 55.822,192.288 54.561,191.025L1.975,138.439C0.712,137.178 0.002,135.467 0,133.682L0,59.318C0,57.532 0.709,55.826 1.975,54.561L54.561,1.975ZM62.101,13.465L13.465,62.11L13.465,130.89L62.11,179.535L130.89,179.535L179.535,130.899L179.535,62.101L130.899,13.465L62.101,13.465Z" fill="#84A9DF" stroke="#FFFFFF" stroke-width="1.5" stroke-miterlimit="3.999327"/>
</svg>
