<svg width="36" height="36" viewBox="0 0 36 36" fill="none" xmlns="http://www.w3.org/2000/svg" xmlns:xlink="http://www.w3.org/1999/xlink">
<path d="M13.164,15.586C12.383,14.805 11.117,14.805 10.336,15.586C9.555,16.367 9.555,17.633 10.336,18.414L13.164,15.586ZM15.25,20.5L13.836,21.914C14.617,22.695 15.883,22.695 16.664,21.914L15.25,20.5ZM23.664,14.914C24.445,14.133 24.445,12.867 23.664,12.086C22.883,11.305 21.617,11.305 20.836,12.086L23.664,14.914ZM30.75,17C30.75,24.594 24.594,30.75 17,30.75L17,34.75C26.803,34.75 34.75,26.803 34.75,17L30.75,17ZM17,30.75C9.406,30.75 3.25,24.594 3.25,17L-0.75,17C-0.75,26.803 7.197,34.75 17,34.75L17,30.75ZM3.25,17C3.25,9.406 9.406,3.25 17,3.25L17,-0.75C7.197,-0.75 -0.75,7.197 -0.75,17L3.25,17ZM17,3.25C24.594,3.25 30.75,9.406 30.75,17L34.75,17C34.75,7.197 26.803,-0.75 17,-0.75L17,3.25ZM10.336,18.414L13.836,21.914L16.664,19.086L13.164,15.586L10.336,18.414ZM16.664,21.914L23.664,14.914L20.836,12.086L13.836,19.086L16.664,21.914Z" fill="#2563EB"/>
</svg>
