<svg width="252" height="42" viewBox="0 0 252 42" fill="none" xmlns="http://www.w3.org/2000/svg" xmlns:xlink="http://www.w3.org/1999/xlink">
<path d="M34.456,29.808C33.336,33.429 31.376,36.136 28.576,37.928C25.776,39.682 22.509,40.56 18.776,40.56C15.117,40.56 11.944,39.794 9.256,38.264C6.605,36.733 4.552,34.549 3.096,31.712C1.677,28.874 0.968,25.477 0.968,21.52C0.968,17.562 1.696,14.165 3.152,11.328C4.608,8.49 6.661,6.306 9.312,4.776C11.963,3.245 15.08,2.48 18.664,2.48C22.435,2.48 25.664,3.282 28.352,4.888C31.077,6.456 32.944,8.845 33.952,12.056L26.952,15.024C26.317,12.784 25.347,11.197 24.04,10.264C22.733,9.293 21.053,8.808 19,8.808C15.939,8.808 13.493,9.909 11.664,12.112C9.872,14.277 8.976,17.413 8.976,21.52C8.976,25.589 9.835,28.725 11.552,30.928C13.269,33.13 15.752,34.232 19,34.232C21.016,34.232 22.752,33.69 24.208,32.608C25.701,31.525 26.747,29.882 27.344,27.68L34.456,29.808Z" fill="#101828"/>
<path d="M44.123,7.968C40.949,7.968 39.363,6.605 39.363,3.88C39.363,1.117 40.949,-0.264 44.123,-0.264C47.296,-0.264 48.883,1.117 48.883,3.88C48.883,6.605 47.296,7.968 44.123,7.968ZM47.931,12L47.931,40L40.259,40L40.259,12L47.931,12Z" fill="#101828"/>
<path d="M56.063,40L56.063,12L62.727,12L63.231,17.488C63.941,15.584 65.005,14.109 66.423,13.064C67.879,11.981 69.709,11.44 71.911,11.44C73.218,11.44 74.226,11.645 74.935,12.056L74.039,18.496C73.666,18.384 73.199,18.29 72.639,18.216C72.117,18.104 71.426,18.048 70.567,18.048C69.41,18.048 68.309,18.328 67.263,18.888C66.255,19.41 65.415,20.232 64.743,21.352C64.071,22.434 63.735,23.816 63.735,25.496L63.735,40L56.063,40Z" fill="#101828"/>
<path d="M91.853,11.44C95.587,11.44 98.48,12.242 100.533,13.848C102.624,15.453 104.005,17.394 104.677,19.672L97.509,22.248C96.763,18.85 94.915,17.152 91.965,17.152C89.837,17.152 88.176,17.898 86.981,19.392C85.824,20.885 85.245,23.106 85.245,26.056C85.245,29.042 85.843,31.264 87.037,32.72C88.269,34.138 89.931,34.848 92.021,34.848C95.269,34.848 97.211,33.186 97.845,29.864L104.789,32.104C104.155,34.605 102.736,36.64 100.533,38.208C98.368,39.776 95.549,40.56 92.077,40.56C89.165,40.56 86.608,39.981 84.405,38.824C82.24,37.666 80.56,36.005 79.365,33.84C78.171,31.674 77.573,29.061 77.573,26C77.573,22.938 78.171,20.325 79.365,18.16C80.597,15.994 82.277,14.333 84.405,13.176C86.571,12.018 89.053,11.44 91.853,11.44Z" fill="#101828"/>
<path d="M123.519,11.44C126.319,11.44 128.801,12.018 130.967,13.176C133.132,14.333 134.812,15.994 136.007,18.16C137.239,20.325 137.855,22.938 137.855,26C137.855,29.061 137.239,31.674 136.007,33.84C134.812,36.005 133.132,37.666 130.967,38.824C128.801,39.981 126.319,40.56 123.519,40.56C120.681,40.56 118.18,39.981 116.015,38.824C113.887,37.666 112.207,36.005 110.975,33.84C109.78,31.674 109.183,29.061 109.183,26C109.183,22.938 109.78,20.325 110.975,18.16C112.207,15.994 113.887,14.333 116.015,13.176C118.18,12.018 120.681,11.44 123.519,11.44ZM123.519,17.152C121.428,17.152 119.785,17.898 118.591,19.392C117.433,20.848 116.855,23.05 116.855,26C116.855,28.949 117.433,31.17 118.591,32.664C119.785,34.12 121.428,34.848 123.519,34.848C125.572,34.848 127.177,34.12 128.335,32.664C129.529,31.17 130.127,28.949 130.127,26C130.127,23.05 129.529,20.848 128.335,19.392C127.177,17.898 125.572,17.152 123.519,17.152Z" fill="#101828"/>
<path d="M157.042,11.44C159.842,11.44 162.325,12.018 164.49,13.176C166.655,14.333 168.335,15.994 169.53,18.16C170.762,20.325 171.378,22.938 171.378,26C171.378,29.061 170.762,31.674 169.53,33.84C168.335,36.005 166.655,37.666 164.49,38.824C162.325,39.981 159.842,40.56 157.042,40.56C154.205,40.56 151.703,39.981 149.538,38.824C147.41,37.666 145.73,36.005 144.498,33.84C143.303,31.674 142.706,29.061 142.706,26C142.706,22.938 143.303,20.325 144.498,18.16C145.73,15.994 147.41,14.333 149.538,13.176C151.703,12.018 154.205,11.44 157.042,11.44ZM157.042,17.152C154.951,17.152 153.309,17.898 152.114,19.392C150.957,20.848 150.378,23.05 150.378,26C150.378,28.949 150.957,31.17 152.114,32.664C153.309,34.12 154.951,34.848 157.042,34.848C159.095,34.848 160.701,34.12 161.858,32.664C163.053,31.17 163.65,28.949 163.65,26C163.65,23.05 163.053,20.848 161.858,19.392C160.701,17.898 159.095,17.152 157.042,17.152Z" fill="#101828"/>
<path d="M185.358,-0.264L185.358,31.376C185.358,32.682 185.582,33.597 186.03,34.12C186.478,34.642 187.224,34.904 188.27,34.904C188.904,34.904 189.427,34.866 189.838,34.792C190.248,34.717 190.771,34.568 191.406,34.344L190.734,39.384C190.099,39.757 189.296,40.037 188.326,40.224C187.392,40.448 186.459,40.56 185.526,40.56C182.8,40.56 180.803,39.906 179.534,38.6C178.302,37.256 177.686,35.128 177.686,32.216L177.686,-0.264L185.358,-0.264Z" fill="#101828"/>
<path d="M208.672,40.56C204.268,40.56 200.739,39.29 198.088,36.752C195.438,34.176 194.112,30.592 194.112,26C194.112,22.938 194.71,20.325 195.904,18.16C197.099,15.994 198.76,14.333 200.888,13.176C203.054,12.018 205.518,11.44 208.28,11.44C211.118,11.44 213.526,12.018 215.504,13.176C217.484,14.296 218.996,15.845 220.04,17.824C221.086,19.765 221.608,21.986 221.608,24.488C221.608,25.234 221.59,25.944 221.552,26.616C221.516,27.288 221.46,27.885 221.384,28.408L201.616,28.408C201.916,30.573 202.662,32.197 203.856,33.28C205.088,34.325 206.676,34.848 208.616,34.848C210.26,34.848 211.584,34.53 212.592,33.896C213.6,33.261 214.384,32.384 214.944,31.264L221.048,33.616C220.152,35.818 218.584,37.536 216.344,38.768C214.104,39.962 211.548,40.56 208.672,40.56ZM208.224,17.096C204.604,17.096 202.42,19.093 201.672,23.088L214.272,23.088C214.048,21.146 213.414,19.672 212.368,18.664C211.36,17.618 209.98,17.096 208.224,17.096Z" fill="#101828"/>
<path d="M239.31,40.56C236.472,40.56 233.878,40.056 231.526,39.048C229.212,38.04 227.326,36.621 225.87,34.792L230.294,30.312C231.19,31.656 232.384,32.757 233.878,33.616C235.372,34.474 237.144,34.904 239.198,34.904C240.654,34.904 241.812,34.698 242.67,34.288C243.566,33.84 244.014,33.149 244.014,32.216C244.014,31.618 243.808,31.114 243.398,30.704C242.988,30.256 242.166,29.901 240.934,29.64L236.006,28.632C232.758,27.96 230.444,26.952 229.062,25.608C227.718,24.226 227.046,22.453 227.046,20.288C227.046,18.757 227.494,17.32 228.39,15.976C229.324,14.632 230.704,13.549 232.534,12.728C234.364,11.869 236.64,11.44 239.366,11.44C245.04,11.44 249.11,13.176 251.574,16.648L246.982,21.128C246.16,19.821 245.078,18.832 243.734,18.16C242.428,17.45 241.046,17.096 239.59,17.096C236.304,17.096 234.662,18.01 234.662,19.84C234.662,20.437 234.924,20.96 235.446,21.408C235.968,21.818 236.92,22.173 238.302,22.472L244.014,23.648C246.776,24.208 248.756,25.16 249.95,26.504C251.144,27.81 251.742,29.397 251.742,31.264C251.742,33.952 250.66,36.173 248.494,37.928C246.366,39.682 243.304,40.56 239.31,40.56Z" fill="#101828"/>
</svg>
