<svg width="204" height="56" viewBox="0 0 204 56" fill="none" xmlns="http://www.w3.org/2000/svg" xmlns:xlink="http://www.w3.org/1999/xlink">
<path d="M35.378,15.014C34.125,5.966 27.165,0.716 18.136,0.716C7.497,0.716 -0.517,8.472 -0.517,21.636C-0.517,34.781 7.398,42.557 18.136,42.557C27.821,42.557 34.244,36.293 35.378,28.517L27.94,28.477C27.006,33.25 23.108,35.935 18.236,35.935C11.633,35.935 6.901,30.983 6.901,21.636C6.901,12.449 11.594,7.338 18.256,7.338C23.207,7.338 27.085,10.142 27.94,15.014L35.378,15.014Z" fill="#101828"/>
<path d="M50.606,42.616C55.398,42.616 58.262,40.369 59.575,37.804L59.813,37.804L59.813,42L66.734,42L66.734,21.557C66.734,13.483 60.151,11.057 54.325,11.057C47.901,11.057 42.969,13.92 41.379,19.489L48.1,20.443C48.816,18.355 50.844,16.565 54.364,16.565C57.705,16.565 59.535,18.275 59.535,21.278L59.535,21.398C59.535,23.466 57.367,23.565 51.978,24.142C46.052,24.778 40.384,26.548 40.384,33.429C40.384,39.435 44.779,42.616 50.606,42.616ZM52.475,37.327C49.472,37.327 47.325,35.954 47.325,33.31C47.325,30.545 49.731,29.392 52.952,28.935C54.842,28.676 58.62,28.199 59.555,27.443L59.555,31.043C59.555,34.443 56.81,37.327 52.475,37.327Z" fill="#101828"/>
<path d="M89.225,11.454L83.2,11.454L83.2,4.136L76.001,4.136L76.001,11.454L71.666,11.454L71.666,17.023L76.001,17.023L76.001,34.006C75.961,39.753 80.137,42.577 85.546,42.418C87.594,42.358 89.006,41.96 89.782,41.702L88.569,36.074C88.171,36.173 87.356,36.352 86.461,36.352C84.651,36.352 83.2,35.716 83.2,32.812L83.2,17.023L89.225,17.023L89.225,11.454Z" fill="#101828"/>
<path d="M104.036,42.616C108.828,42.616 111.692,40.369 113.004,37.804L113.243,37.804L113.243,42L120.163,42L120.163,21.557C120.163,13.483 113.581,11.057 107.754,11.057C101.331,11.057 96.399,13.92 94.808,19.489L101.53,20.443C102.246,18.355 104.274,16.565 107.794,16.565C111.135,16.565 112.965,18.275 112.965,21.278L112.965,21.398C112.965,23.466 110.797,23.565 105.408,24.142C99.482,24.778 93.814,26.548 93.814,33.429C93.814,39.435 98.209,42.616 104.036,42.616ZM105.905,37.327C102.902,37.327 100.754,35.954 100.754,33.31C100.754,30.545 103.161,29.392 106.382,28.935C108.271,28.676 112.05,28.199 112.984,27.443L112.984,31.043C112.984,34.443 110.24,37.327 105.905,37.327Z" fill="#101828"/>
<path d="M134.601,1.273L127.402,1.273L127.402,42L134.601,42L134.601,1.273Z" fill="#101828"/>
<path d="M155.327,42.596C164.276,42.596 169.964,36.293 169.964,26.846C169.964,17.381 164.276,11.057 155.327,11.057C146.379,11.057 140.691,17.381 140.691,26.846C140.691,36.293 146.379,42.596 155.327,42.596ZM155.367,36.829C150.415,36.829 147.989,32.415 147.989,26.827C147.989,21.239 150.415,16.764 155.367,16.764C160.239,16.764 162.665,21.239 162.665,26.827C162.665,32.415 160.239,36.829 155.367,36.829Z" fill="#101828"/>
<path d="M189.358,54.091C197.611,54.091 203.697,50.312 203.697,42.497L203.697,11.454L196.597,11.454L196.597,16.506L196.199,16.506C195.105,14.298 192.818,11.057 187.429,11.057C180.369,11.057 174.821,16.585 174.821,26.628C174.821,36.591 180.369,41.562 187.409,41.562C192.639,41.562 195.085,38.758 196.199,36.511L196.557,36.511L196.557,42.298C196.557,46.793 193.574,48.642 189.477,48.642C185.142,48.642 183.233,46.594 182.358,44.804L175.875,46.375C177.187,50.65 181.582,54.091 189.358,54.091ZM189.418,35.915C184.665,35.915 182.159,32.216 182.159,26.588C182.159,21.04 184.625,16.963 189.418,16.963C194.051,16.963 196.597,20.801 196.597,26.588C196.597,32.415 194.011,35.915 189.418,35.915Z" fill="#101828"/>
</svg>
