<svg width="252" height="42" viewBox="0 0 252 42" fill="none" xmlns="http://www.w3.org/2000/svg" xmlns:xlink="http://www.w3.org/1999/xlink">
<path d="M33.456,29.808C32.336,33.429 30.376,36.136 27.576,37.928C24.776,39.682 21.509,40.56 17.776,40.56C14.117,40.56 10.944,39.794 8.256,38.264C5.605,36.733 3.552,34.549 2.096,31.712C0.677,28.874 -0.032,25.477 -0.032,21.52C-0.032,17.562 0.696,14.165 2.152,11.328C3.608,8.49 5.661,6.306 8.312,4.776C10.963,3.245 14.08,2.48 17.664,2.48C21.435,2.48 24.664,3.282 27.352,4.888C30.077,6.456 31.944,8.845 32.952,12.056L25.952,15.024C25.317,12.784 24.347,11.197 23.04,10.264C21.733,9.293 20.053,8.808 18,8.808C14.939,8.808 12.493,9.909 10.664,12.112C8.872,14.277 7.976,17.413 7.976,21.52C7.976,25.589 8.835,28.725 10.552,30.928C12.269,33.13 14.752,34.232 18,34.232C20.016,34.232 21.752,33.69 23.208,32.608C24.701,31.525 25.747,29.882 26.344,27.68L33.456,29.808Z" fill="#101828"/>
<path d="M43.123,7.968C39.949,7.968 38.363,6.605 38.363,3.88C38.363,1.117 39.949,-0.264 43.123,-0.264C46.296,-0.264 47.883,1.117 47.883,3.88C47.883,6.605 46.296,7.968 43.123,7.968ZM46.931,12L46.931,40L39.259,40L39.259,12L46.931,12Z" fill="#101828"/>
<path d="M55.063,40L55.063,12L61.727,12L62.231,17.488C62.941,15.584 64.005,14.109 65.423,13.064C66.879,11.981 68.709,11.44 70.911,11.44C72.218,11.44 73.226,11.645 73.935,12.056L73.039,18.496C72.666,18.384 72.199,18.29 71.639,18.216C71.117,18.104 70.426,18.048 69.567,18.048C68.41,18.048 67.309,18.328 66.263,18.888C65.255,19.41 64.415,20.232 63.743,21.352C63.071,22.434 62.735,23.816 62.735,25.496L62.735,40L55.063,40Z" fill="#101828"/>
<path d="M90.853,11.44C94.587,11.44 97.48,12.242 99.533,13.848C101.624,15.453 103.005,17.394 103.677,19.672L96.509,22.248C95.763,18.85 93.915,17.152 90.965,17.152C88.837,17.152 87.176,17.898 85.981,19.392C84.824,20.885 84.245,23.106 84.245,26.056C84.245,29.042 84.843,31.264 86.037,32.72C87.269,34.138 88.931,34.848 91.021,34.848C94.269,34.848 96.211,33.186 96.845,29.864L103.789,32.104C103.155,34.605 101.736,36.64 99.533,38.208C97.368,39.776 94.549,40.56 91.077,40.56C88.165,40.56 85.608,39.981 83.405,38.824C81.24,37.666 79.56,36.005 78.365,33.84C77.171,31.674 76.573,29.061 76.573,26C76.573,22.938 77.171,20.325 78.365,18.16C79.597,15.994 81.277,14.333 83.405,13.176C85.571,12.018 88.053,11.44 90.853,11.44Z" fill="#101828"/>
<path d="M122.519,11.44C125.319,11.44 127.801,12.018 129.967,13.176C132.132,14.333 133.812,15.994 135.007,18.16C136.239,20.325 136.855,22.938 136.855,26C136.855,29.061 136.239,31.674 135.007,33.84C133.812,36.005 132.132,37.666 129.967,38.824C127.801,39.981 125.319,40.56 122.519,40.56C119.681,40.56 117.18,39.981 115.015,38.824C112.887,37.666 111.207,36.005 109.975,33.84C108.78,31.674 108.183,29.061 108.183,26C108.183,22.938 108.78,20.325 109.975,18.16C111.207,15.994 112.887,14.333 115.015,13.176C117.18,12.018 119.681,11.44 122.519,11.44ZM122.519,17.152C120.428,17.152 118.785,17.898 117.591,19.392C116.433,20.848 115.855,23.05 115.855,26C115.855,28.949 116.433,31.17 117.591,32.664C118.785,34.12 120.428,34.848 122.519,34.848C124.572,34.848 126.177,34.12 127.335,32.664C128.529,31.17 129.127,28.949 129.127,26C129.127,23.05 128.529,20.848 127.335,19.392C126.177,17.898 124.572,17.152 122.519,17.152Z" fill="#101828"/>
<path d="M156.042,11.44C158.842,11.44 161.325,12.018 163.49,13.176C165.655,14.333 167.335,15.994 168.53,18.16C169.762,20.325 170.378,22.938 170.378,26C170.378,29.061 169.762,31.674 168.53,33.84C167.335,36.005 165.655,37.666 163.49,38.824C161.325,39.981 158.842,40.56 156.042,40.56C153.205,40.56 150.703,39.981 148.538,38.824C146.41,37.666 144.73,36.005 143.498,33.84C142.303,31.674 141.706,29.061 141.706,26C141.706,22.938 142.303,20.325 143.498,18.16C144.73,15.994 146.41,14.333 148.538,13.176C150.703,12.018 153.205,11.44 156.042,11.44ZM156.042,17.152C153.951,17.152 152.309,17.898 151.114,19.392C149.957,20.848 149.378,23.05 149.378,26C149.378,28.949 149.957,31.17 151.114,32.664C152.309,34.12 153.951,34.848 156.042,34.848C158.095,34.848 159.701,34.12 160.858,32.664C162.053,31.17 162.65,28.949 162.65,26C162.65,23.05 162.053,20.848 160.858,19.392C159.701,17.898 158.095,17.152 156.042,17.152Z" fill="#101828"/>
<path d="M184.358,-0.264L184.358,31.376C184.358,32.682 184.582,33.597 185.03,34.12C185.478,34.642 186.224,34.904 187.27,34.904C187.904,34.904 188.427,34.866 188.838,34.792C189.248,34.717 189.771,34.568 190.406,34.344L189.734,39.384C189.099,39.757 188.296,40.037 187.326,40.224C186.392,40.448 185.459,40.56 184.526,40.56C181.8,40.56 179.803,39.906 178.534,38.6C177.302,37.256 176.686,35.128 176.686,32.216L176.686,-0.264L184.358,-0.264Z" fill="#101828"/>
<path d="M207.672,40.56C203.268,40.56 199.739,39.29 197.088,36.752C194.438,34.176 193.112,30.592 193.112,26C193.112,22.938 193.71,20.325 194.904,18.16C196.099,15.994 197.76,14.333 199.888,13.176C202.054,12.018 204.518,11.44 207.28,11.44C210.118,11.44 212.526,12.018 214.504,13.176C216.484,14.296 217.996,15.845 219.04,17.824C220.086,19.765 220.608,21.986 220.608,24.488C220.608,25.234 220.59,25.944 220.552,26.616C220.516,27.288 220.46,27.885 220.384,28.408L200.616,28.408C200.916,30.573 201.662,32.197 202.856,33.28C204.088,34.325 205.676,34.848 207.616,34.848C209.26,34.848 210.584,34.53 211.592,33.896C212.6,33.261 213.384,32.384 213.944,31.264L220.048,33.616C219.152,35.818 217.584,37.536 215.344,38.768C213.104,39.962 210.548,40.56 207.672,40.56ZM207.224,17.096C203.604,17.096 201.42,19.093 200.672,23.088L213.272,23.088C213.048,21.146 212.414,19.672 211.368,18.664C210.36,17.618 208.98,17.096 207.224,17.096Z" fill="#101828"/>
<path d="M238.31,40.56C235.472,40.56 232.878,40.056 230.526,39.048C228.212,38.04 226.326,36.621 224.87,34.792L229.294,30.312C230.19,31.656 231.384,32.757 232.878,33.616C234.372,34.474 236.144,34.904 238.198,34.904C239.654,34.904 240.812,34.698 241.67,34.288C242.566,33.84 243.014,33.149 243.014,32.216C243.014,31.618 242.808,31.114 242.398,30.704C241.988,30.256 241.166,29.901 239.934,29.64L235.006,28.632C231.758,27.96 229.444,26.952 228.062,25.608C226.718,24.226 226.046,22.453 226.046,20.288C226.046,18.757 226.494,17.32 227.39,15.976C228.324,14.632 229.704,13.549 231.534,12.728C233.364,11.869 235.64,11.44 238.366,11.44C244.04,11.44 248.11,13.176 250.574,16.648L245.982,21.128C245.16,19.821 244.078,18.832 242.734,18.16C241.428,17.45 240.046,17.096 238.59,17.096C235.304,17.096 233.662,18.01 233.662,19.84C233.662,20.437 233.924,20.96 234.446,21.408C234.968,21.818 235.92,22.173 237.302,22.472L243.014,23.648C245.776,24.208 247.756,25.16 248.95,26.504C250.144,27.81 250.742,29.397 250.742,31.264C250.742,33.952 249.66,36.173 247.494,37.928C245.366,39.682 242.304,40.56 238.31,40.56Z" fill="#101828"/>
</svg>
