<svg width="142" height="88" viewBox="0 0 142 88" fill="none" xmlns="http://www.w3.org/2000/svg" xmlns:xlink="http://www.w3.org/1999/xlink">
<path d="M131.554,10.817C131.554,10.92 131.554,11.048 131.527,11.125C131.396,12.125 131.396,13.126 131.475,14.152C131.527,14.408 131.58,14.665 131.79,14.87C132.131,15.255 132.655,15.178 132.865,14.716C132.97,14.485 132.97,14.254 132.918,14.024C132.655,13.049 132.603,12.023 132.577,11.022C132.577,10.971 132.577,10.894 132.577,10.817C132.865,10.791 133.128,10.766 133.364,10.766C133.548,10.74 133.705,10.714 133.836,10.637C134.23,10.432 134.23,9.996 133.81,9.791C133.652,9.714 133.443,9.688 133.259,9.688C132.603,9.714 131.947,9.714 131.291,9.714C131.055,9.714 130.819,9.74 130.583,9.765C130.452,9.791 130.294,9.791 130.189,9.868C130.006,9.945 129.901,10.073 129.901,10.253C129.927,10.432 130.006,10.535 130.189,10.612C130.294,10.689 130.425,10.714 130.557,10.714C130.871,10.74 131.213,10.791 131.554,10.817ZM138.768,11.997C138.768,12.023 138.795,12.048 138.795,12.048C138.9,12.741 139.005,13.408 139.083,14.075C139.11,14.306 139.136,14.511 139.293,14.69C139.634,15.127 140.159,15.075 140.395,14.614C140.5,14.383 140.526,14.152 140.474,13.895C140.316,13.126 140.238,12.356 140.08,11.612C139.975,11.151 139.844,10.714 139.713,10.304C139.634,10.047 139.451,9.868 139.136,9.842C138.821,9.791 138.585,9.945 138.454,10.176C138.296,10.381 138.165,10.586 138.06,10.817C137.876,11.227 137.719,11.638 137.509,12.023C137.483,12.125 137.457,12.202 137.404,12.279C137.378,12.228 137.352,12.202 137.352,12.202C137.011,11.561 136.696,10.92 136.355,10.304C136.302,10.253 136.276,10.201 136.25,10.15C136.092,9.919 135.909,9.791 135.62,9.791C135.358,9.817 135.148,9.971 135.017,10.201C134.964,10.304 134.964,10.381 134.938,10.484C134.833,11.304 134.702,12.125 134.597,12.946C134.544,13.408 134.518,13.87 134.518,14.331C134.492,14.434 134.518,14.562 134.571,14.665C134.623,14.87 134.781,14.998 134.99,15.024C135.253,15.05 135.436,14.973 135.515,14.767C135.594,14.614 135.62,14.485 135.646,14.357C135.751,13.895 135.83,13.459 135.909,13.023C135.961,12.767 135.987,12.561 136.066,12.279C136.119,12.382 136.171,12.459 136.224,12.536C136.46,12.844 136.696,13.151 136.984,13.408C137.273,13.613 137.509,13.587 137.745,13.357C137.798,13.305 137.824,13.28 137.876,13.228C138.113,12.869 138.401,12.51 138.637,12.151C138.69,12.1 138.716,12.048 138.768,11.997Z" fill="#7B7B7B"/>
<path d="M78.317,11.321C78.135,11.808 78.1,12.16 78.184,12.452C78.277,12.849 78.519,12.979 78.846,12.878C81.928,12.132 88.685,14.247 91.187,14.837C91.777,14.96 92.257,14.216 91.855,13.548C91.267,12.901 84.513,10.133 81.935,9.982C80.925,9.926 79.119,9.673 78.317,11.321Z" fill="#7B7B7B"/>
<path d="M104.727,2.36C105.055,2.545 105.239,2.722 105.329,2.919C105.464,3.178 105.393,3.358 105.166,3.449C103.129,4.421 100.419,8.606 99.324,10.049C99.059,10.381 98.447,10.188 98.355,9.642C98.374,9.025 100.777,4.484 102.118,3.247C102.645,2.764 103.515,1.816 104.727,2.36Z" fill="#7B7B7B"/>
<path d="M88.505,0.3C88.899,0.009 89.309,-0.093 89.519,0.096C92.592,2.666 94.222,6.735 95.231,10.461C95.269,10.548 95.271,10.672 95.241,10.802C95.228,10.914 95.145,11.031 95.014,11.122C94.873,11.222 94.752,11.252 94.695,11.166C93.348,9.375 85.654,2.405 88.505,0.3Z" fill="#7B7B7B"/>
<path d="M23.422,44.855C24.159,44.319 24.959,43.873 25.807,43.526C26.693,43.278 27.638,43.319 28.499,43.643C29.359,43.967 30.089,44.556 30.576,45.322C31.013,46.085 31.183,46.966 31.063,47.832C30.942,48.699 30.537,49.503 29.909,50.125C29.421,50.629 28.868,51.068 28.263,51.431C25.568,53.133 22.85,54.742 20.131,56.444C19.575,56.87 18.985,57.252 18.366,57.587C17.426,58.045 16.351,58.168 15.327,57.934C14.304,57.7 13.397,57.123 12.762,56.304C12.287,55.724 11.887,55.09 11.569,54.415C8.994,49.122 6.323,43.853 3.843,38.466C2.698,36.135 1.768,33.453 0.862,30.865C0.47,30.113 0.393,29.241 0.648,28.435C0.903,27.628 1.47,26.951 2.228,26.547C2.986,26.143 3.876,26.044 4.707,26.271C5.539,26.499 6.247,27.034 6.681,27.764C8.014,29.497 9.195,31.338 10.21,33.267C12.786,37.93 15.242,42.593 17.722,47.117C17.867,47.367 18.026,47.608 18.199,47.84C20.066,47.072 21.822,46.069 23.422,44.855Z" fill="#7B7B7B"/>
<path d="M50.052,43.228C44.162,49.967 34.289,48.265 29.328,39.591C25.799,33.435 25.179,23.269 32.858,16.856C34.498,15.514 36.458,14.599 38.557,14.198C41.131,13.837 43.755,14.281 46.055,15.467C48.355,16.652 50.213,18.517 51.364,20.797C55.561,28.259 54.965,37.772 50.052,43.228ZM47.667,27.512C47.042,25.679 45.786,24.113 44.114,23.082C43.168,22.423 42.018,22.102 40.858,22.174C39.699,22.246 38.6,22.707 37.747,23.478C34.336,26.44 33.621,33.458 36.101,37.632C36.417,38.313 36.881,38.918 37.462,39.404C38.042,39.891 38.724,40.248 39.46,40.45C40.196,40.652 40.968,40.695 41.723,40.575C42.477,40.454 43.196,40.174 43.828,39.754C45.677,38.353 47.033,36.423 47.708,34.233C48.383,32.044 48.344,29.703 47.596,27.536L47.667,27.512Z" fill="#7B7B7B"/>
<path d="M74.091,30.45C73.488,30.577 72.865,30.585 72.259,30.473C71.653,30.36 71.076,30.131 70.562,29.798C70.112,29.546 69.725,29.2 69.428,28.785C69.131,28.369 68.932,27.895 68.846,27.395C68.759,26.896 68.787,26.384 68.927,25.896C69.067,25.408 69.316,24.957 69.655,24.574C70.247,23.806 71.088,23.255 72.04,23.012C74.527,22.307 77.087,21.876 79.672,21.73C80.24,21.665 80.815,21.712 81.364,21.868C81.913,22.024 82.425,22.285 82.869,22.637C83.313,22.989 83.681,23.424 83.951,23.917C84.221,24.41 84.388,24.951 84.441,25.507C85.186,28.241 85.268,31.108 84.68,33.878C82.533,42.832 75.14,45.91 66.841,43.042C64.512,42.275 62.469,40.846 60.975,38.938C58.981,36.64 57.568,33.917 56.849,30.987C56.266,28.378 56.33,25.671 57.035,23.091C57.74,20.511 59.067,18.134 60.903,16.157C62.646,14.009 64.908,12.318 67.485,11.237C69.114,10.359 71.02,10.11 72.827,10.537C73.237,10.648 73.609,10.865 73.905,11.164C74.201,11.463 74.41,11.834 74.509,12.238C74.609,12.642 74.596,13.066 74.473,13.464C74.349,13.862 74.118,14.22 73.805,14.501C73.209,15.028 72.562,15.497 71.873,15.9C69.753,17.221 67.908,18.922 66.436,20.914C65.471,22.203 64.806,23.683 64.489,25.25C64.172,26.817 64.209,28.433 64.6,29.984C65.14,32.099 66.341,33.998 68.034,35.417C73.28,40.081 80.101,35.58 78.908,29.215C77.168,29.634 75.641,30.077 74.091,30.45Z" fill="#7B7B7B"/>
<path d="M106.143,43.601C98.393,48.265 89.569,43.601 87.637,33.808C86.23,26.813 88.901,17.02 98.25,13.289C100.239,12.512 102.396,12.239 104.522,12.496C107.076,12.953 109.418,14.182 111.22,16.011C113.021,17.839 114.19,20.173 114.562,22.686C116.136,31.01 112.559,39.894 106.143,43.601ZM108.838,27.909C108.836,25.972 108.135,24.097 106.859,22.616C106.177,21.699 105.191,21.043 104.069,20.758C102.946,20.473 101.758,20.577 100.706,21.054C96.509,22.826 93.552,29.261 94.625,33.995C94.707,34.738 94.954,35.454 95.348,36.094C95.743,36.734 96.276,37.281 96.909,37.699C97.543,38.116 98.262,38.394 99.017,38.511C99.772,38.628 100.544,38.583 101.278,38.378C103.497,37.621 105.418,36.204 106.773,34.327C108.129,32.45 108.851,30.206 108.838,27.909Z" fill="#7B7B7B"/>
<path d="M122.4,45.56C122.283,46.414 121.824,47.187 121.124,47.709C120.424,48.232 119.54,48.461 118.668,48.347C117.795,48.232 117.004,47.783 116.47,47.099C115.935,46.415 115.701,45.551 115.818,44.697C115.935,43.844 116.394,43.071 117.094,42.548C117.794,42.026 118.677,41.797 119.55,41.911C120.423,42.025 121.213,42.474 121.748,43.158C122.282,43.843 122.517,44.707 122.4,45.56ZM120.325,14.105C120.779,13.428 121.444,12.912 122.222,12.635C123,12.357 123.849,12.333 124.642,12.566C125.448,12.763 126.16,13.225 126.659,13.875C127.159,14.524 127.414,15.322 127.384,16.134C127.279,17.436 127.08,18.729 126.788,20.004C126.001,24.318 125.238,28.632 124.403,32.899C124.022,34.601 123.521,36.233 122.972,37.959C122.781,38.498 122.463,38.985 122.042,39.381C121.781,39.679 121.447,39.907 121.071,40.045C120.696,40.183 120.291,40.226 119.894,40.17C119.497,40.114 119.12,39.961 118.8,39.726C118.479,39.49 118.225,39.179 118.06,38.821C117.776,38.18 117.622,37.491 117.606,36.793C117.606,33.901 117.606,30.987 117.797,28.072C118.121,23.912 118.759,19.782 119.705,15.714C119.816,15.169 120.026,14.648 120.325,14.175L120.325,14.105Z" fill="#7B7B7B"/>
<path d="M13.346,64.298C13.065,64.912 12.987,65.597 13.125,66.257C13.217,67.126 13.418,67.981 13.724,68.802C14.106,69.808 14.533,70.802 15.06,72.028C15.182,72.31 15.308,72.604 15.441,72.914C16.152,74.574 17.044,76.696 18.233,79.767C18.57,80.64 18.869,81.519 19.17,82.405C19.292,82.763 19.414,83.122 19.539,83.482C19.987,84.761 20.757,85.91 21.779,86.821C22.213,87.321 22.788,87.686 23.433,87.869C24.091,88.055 24.791,88.043 25.442,87.835C26.092,87.627 26.664,87.232 27.082,86.702C27.492,86.182 27.736,85.555 27.783,84.901C28.049,83.626 27.959,82.304 27.52,81.075C26.824,79.035 26.032,76.991 25.118,74.992L25.114,74.984C23.61,71.856 22.082,68.751 20.481,65.644L20.469,65.622C20,64.813 19.391,64.089 18.669,63.484C18.201,62.944 17.554,62.579 16.84,62.454C16.111,62.326 15.359,62.455 14.718,62.819C14.112,63.157 13.632,63.675 13.346,64.298Z" clip-rule="evenodd" fill-rule="evenodd" fill="#7B7B7B"/>
<path d="M36.311,56.597C33.954,56 31.492,55.913 29.096,56.342C27.241,56.521 25.417,56.939 24.15,57.768C23.505,58.19 22.984,58.732 22.694,59.42C22.403,60.112 22.366,60.904 22.605,61.786C23.041,63.401 23.607,64.972 24.171,66.538L24.262,66.792L24.265,66.797C25.963,71.346 27.678,75.879 29.409,80.397C29.611,81.109 29.896,81.796 30.259,82.444L30.266,82.456C30.746,83.261 31.361,83.98 32.086,84.585C32.449,84.917 32.897,85.147 33.384,85.25C33.875,85.354 34.385,85.324 34.86,85.163C35.335,85.002 35.755,84.717 36.075,84.339C36.391,83.967 36.597,83.518 36.673,83.041C36.986,81.745 36.885,80.386 36.385,79.147C36.229,78.73 36.107,78.303 35.978,77.855C35.935,77.705 35.891,77.553 35.845,77.398C39.807,75.884 44.022,73.848 45.504,69.112C46.084,67.476 46.133,65.703 45.642,64.039C45.152,62.372 44.145,60.895 42.76,59.81C40.876,58.292 38.675,57.196 36.311,56.597ZM29.776,62.406C29.854,62.384 29.933,62.364 30.012,62.345C32.591,61.948 35.229,62.477 37.442,63.832C38.417,64.495 38.816,65.231 38.885,65.94C38.956,66.67 38.684,67.461 38.139,68.221C37.109,69.657 35.229,70.806 33.531,71.021C32.293,68.233 31.035,65.333 29.776,62.406Z" clip-rule="evenodd" fill-rule="evenodd" fill="#7B7B7B"/>
<path d="M52.029,51.495C54.837,50.227 58.315,50.008 61.036,50.899C61.721,51.094 62.316,51.517 62.718,52.094C63.118,52.667 63.302,53.358 63.241,54.049C63.237,54.497 63.124,54.938 62.912,55.336C62.697,55.742 62.384,56.09 62.002,56.352C61.62,56.615 61.178,56.783 60.715,56.843C60.252,56.904 59.781,56.854 59.342,56.699L59.308,56.687L59.277,56.671C59.052,56.556 58.813,56.469 58.566,56.413L58.551,56.409C56.636,55.912 54.83,56.736 54.171,57.748C53.856,58.231 53.817,58.718 54.079,59.161C54.36,59.636 55.048,60.168 56.441,60.548C56.824,60.651 57.216,60.75 57.614,60.851C58.716,61.13 59.86,61.419 60.967,61.821L60.971,61.822C66.076,63.721 67.977,67.655 67.326,71.354C66.682,75.013 63.557,78.343 58.858,79.128C57.148,79.499 55.368,79.426 53.695,78.919C52.018,78.409 50.506,77.48 49.31,76.222L49.279,76.189C48.901,75.716 48.647,75.159 48.535,74.568C48.431,74.035 48.486,73.485 48.692,72.981C48.897,72.48 49.243,72.047 49.69,71.731C50.162,71.373 50.731,71.158 51.327,71.113C51.921,71.069 52.515,71.195 53.037,71.476C53.557,71.722 54.042,72.036 54.477,72.409L54.485,72.416C55.254,73.104 56.185,73.283 57.077,73.117C57.982,72.948 58.834,72.425 59.381,71.73C59.925,71.039 60.144,70.219 59.885,69.422C59.624,68.62 58.84,67.721 57.117,66.97C56.666,66.783 56.199,66.632 55.713,66.485C55.582,66.446 55.449,66.406 55.314,66.366C54.955,66.26 54.586,66.15 54.223,66.029C53.974,65.946 53.726,65.867 53.481,65.789C52.811,65.575 52.157,65.367 51.528,65.088C50.16,64.633 48.977,63.758 48.157,62.593C47.334,61.424 46.919,60.026 46.976,58.607C46.98,55.151 49.207,52.769 52.029,51.495Z" fill="#7B7B7B"/>
<path d="M87.624,51.126C87.079,50.866 86.477,50.743 85.872,50.767C85.267,50.792 84.677,50.963 84.157,51.266C83.639,51.567 83.206,51.988 82.896,52.492C82.611,52.917 82.414,53.391 82.316,53.89C82.218,54.388 82.22,54.9 82.323,55.397C82.424,56.036 82.536,56.657 82.647,57.27C82.831,58.284 83.01,59.275 83.128,60.285L83.132,60.311C83.401,61.895 83.542,63.498 83.554,65.104L83.555,65.127C83.647,66.861 83.043,68.562 81.872,69.868L81.853,69.891C81.472,70.368 80.963,70.733 80.382,70.943C79.801,71.154 79.172,71.202 78.564,71.083C77.957,70.964 77.396,70.682 76.943,70.268C76.49,69.855 76.163,69.325 76,68.741C75.652,67.509 75.451,66.243 75.4,64.966L75.994,55.714C76.003,55.593 76.013,55.469 76.023,55.344C76.046,55.063 76.069,54.777 76.079,54.51C76.093,54.117 76.081,53.713 75.987,53.33C75.891,52.94 75.709,52.568 75.386,52.251C75.066,51.938 74.634,51.707 74.09,51.549C73.107,51.271 72.276,51.28 71.583,51.567C70.89,51.855 70.416,52.388 70.08,53.005C69.746,53.616 69.532,54.339 69.37,55.064C69.25,55.602 69.153,56.167 69.061,56.704C69.03,56.889 68.999,57.071 68.967,57.248L68.966,57.253C68.475,60.2 68.329,63.192 68.531,66.172C68.568,67.782 68.912,69.372 69.544,70.859C70.257,72.778 71.548,74.441 73.247,75.628C74.95,76.817 76.983,77.473 79.075,77.507C81.167,77.542 83.221,76.954 84.964,75.822C86.705,74.691 88.054,73.071 88.832,71.175C89.922,68.76 90.433,66.134 90.328,63.496C90.264,61.571 90.157,59.63 90.05,57.7C89.998,56.753 89.945,55.808 89.899,54.868C89.875,53.927 89.557,53.014 88.988,52.254C88.636,51.774 88.167,51.386 87.624,51.126Z" fill="#7B7B7B"/>
<path d="M106.892,65.635C106.837,65.703 106.779,65.774 106.718,65.848C106.275,63.35 105.865,60.854 105.454,58.353C105.306,57.456 105.158,56.555 105.009,55.656L104.992,55.556L104.938,55.47C104.835,55.307 104.825,55.147 104.825,54.806L104.825,54.767L104.819,54.728C104.708,54.024 104.382,53.369 103.885,52.848C103.389,52.329 102.745,51.968 102.036,51.811C101.329,51.641 100.585,51.678 99.899,51.92C99.215,52.16 98.619,52.593 98.185,53.163C97.824,53.6 97.529,54.085 97.307,54.604C96.804,55.72 96.297,56.84 95.788,57.963L95.779,57.982C94.509,60.785 93.23,63.606 91.988,66.45L91.985,66.459C91.222,68.303 90.593,70.245 89.966,72.182C89.841,72.569 89.716,72.955 89.59,73.341C89.363,73.952 89.264,74.601 89.298,75.25C89.257,75.831 89.399,76.411 89.706,76.91C90.019,77.42 90.487,77.822 91.046,78.058C91.637,78.311 92.299,78.365 92.925,78.211C93.55,78.057 94.106,77.704 94.503,77.208C95.011,76.597 95.448,75.93 95.805,75.224C96.857,73.121 97.862,70.992 98.862,68.872C99.25,68.052 99.626,67.317 100.054,66.517C100.083,66.616 100.113,66.712 100.144,66.809C100.593,68.74 101.35,70.589 102.388,72.29C102.584,72.65 102.858,72.965 103.19,73.212C103.526,73.463 103.914,73.639 104.326,73.729C104.739,73.818 105.166,73.818 105.579,73.73C105.991,73.641 106.38,73.465 106.717,73.216L107.382,72.729L112.547,68.475L112.241,70.378C111.822,72.994 111.406,75.588 110.964,78.183C110.675,79.333 110.675,80.534 110.965,81.683C111.091,82.33 111.411,82.926 111.884,83.394C112.362,83.867 112.974,84.187 113.64,84.315C114.306,84.443 114.997,84.372 115.621,84.112C116.237,83.855 116.761,83.426 117.127,82.879C117.978,81.846 118.508,80.595 118.654,79.276C118.873,77.413 119.121,75.524 119.368,73.636C119.654,71.46 119.939,69.284 120.18,67.151L120.181,67.144C120.413,64.808 120.525,62.463 120.517,60.116C120.568,59.374 120.379,58.636 119.977,58.004C119.573,57.371 118.975,56.878 118.268,56.596C117.533,56.269 116.71,56.182 115.92,56.347C115.136,56.511 114.426,56.916 113.893,57.501C112.94,58.363 112.047,59.285 111.218,60.261L111.212,60.267C110.307,61.37 109.408,62.494 108.515,63.611C107.972,64.29 107.431,64.968 106.892,65.635Z" fill="#7B7B7B"/>
</svg>
