<svg width="156" height="60" viewBox="0 0 156 60" fill="none" xmlns="http://www.w3.org/2000/svg" xmlns:xlink="http://www.w3.org/1999/xlink">
<path d="M36.529,0C30.437,0 24.595,2.42 20.287,6.728L6.228,20.787C1.92,25.095 -0.5,30.937 -0.5,37.029C-0.5,49.716 9.784,60 22.471,60C28.563,60 34.405,57.58 38.713,53.272L48.438,43.547C48.438,43.548 48.438,43.547 48.438,43.547L76.772,15.213C78.829,13.156 81.62,12 84.529,12C89.401,12 93.53,15.175 94.962,19.568L103.904,10.626C99.825,4.237 92.672,0 84.529,0C78.437,0 72.595,2.42 68.287,6.728L30.228,44.787C28.171,46.844 25.38,48 22.471,48C16.412,48 11.5,43.088 11.5,37.029C11.5,34.12 12.656,31.329 14.713,29.272L28.772,15.213C30.829,13.156 33.62,12 36.529,12C41.401,12 45.53,15.175 46.962,19.568L55.905,10.626C51.825,4.237 44.672,0 36.529,0Z" fill="#7B7B7B"/>
<path d="M78.228,44.787C76.171,46.844 73.38,48 70.471,48C65.6,48 61.471,44.826 60.038,40.433L51.096,49.375C55.176,55.764 62.329,60 70.471,60C76.563,60 82.405,57.58 86.713,53.272L124.772,15.213C126.829,13.156 129.62,12 132.529,12C138.588,12 143.5,16.912 143.5,22.971C143.5,25.88 142.344,28.671 140.287,30.728L126.228,44.787C124.171,46.844 121.38,48 118.471,48C113.6,48 109.47,44.825 108.038,40.432L99.096,49.375C103.175,55.764 110.328,60 118.471,60C124.563,60 130.405,57.58 134.713,53.272L148.772,39.213C153.08,34.905 155.5,29.063 155.5,22.971C155.5,10.284 145.216,0 132.529,0C126.437,0 120.595,2.42 116.287,6.728L78.228,44.787Z" fill="#7B7B7B"/>
</svg>
