<svg width="94" height="88" viewBox="0 0 94 88" fill="none" xmlns="http://www.w3.org/2000/svg" xmlns:xlink="http://www.w3.org/1999/xlink">
<path d="M44,68.933C57.77,68.933 68.933,57.77 68.933,44C68.933,30.23 57.77,19.067 44,19.067C30.23,19.067 19.067,30.23 19.067,44C19.067,57.77 30.23,68.933 44,68.933ZM44,88C68.301,88 88,68.301 88,44C88,19.699 68.301,0 44,0C19.699,0 0,19.699 0,44C0,68.301 19.699,88 44,88Z" clip-rule="evenodd" fill-rule="evenodd" fill="#6938EF"/>
<g style="isolation:isolate">
<path d="M36.341,64.668C36.341,58.188 41.595,52.935 48.075,52.935L80.341,52.935C86.822,52.935 92.075,58.188 92.075,64.668L92.075,64.668C92.075,71.148 86.822,76.401 80.341,76.401L48.075,76.401C41.595,76.401 36.341,71.148 36.341,64.668L36.341,64.668Z" transform="rotate(90 64.208 64.668)" fill="#F670C7"/>
</g>
<g style="isolation:isolate">
<path d="M50.91,67.964L65.401,82.454C72.351,78.578 78.142,72.872 82.121,65.988L67.749,51.616C65.224,59.495 58.888,65.667 50.91,67.964Z" fill="#6519BA"/>
</g>
</svg>
