<svg width="254" height="56" viewBox="0 0 254 56" fill="none" xmlns="http://www.w3.org/2000/svg" xmlns:xlink="http://www.w3.org/1999/xlink">
<path d="M15.916,44.56C12.892,44.56 9.961,44.131 7.124,43.272C4.324,42.413 2.103,41.275 0.46,39.856L2.98,34.2C4.585,35.469 6.545,36.515 8.86,37.336C11.212,38.12 13.564,38.512 15.916,38.512C18.828,38.512 20.993,38.045 22.412,37.112C23.868,36.179 24.596,34.947 24.596,33.416C24.596,32.296 24.185,31.381 23.364,30.672C22.58,29.925 21.572,29.347 20.34,28.936C19.108,28.525 17.428,28.059 15.3,27.536C12.313,26.827 9.887,26.117 8.02,25.408C6.191,24.699 4.604,23.597 3.26,22.104C1.953,20.573 1.3,18.52 1.3,15.944C1.3,13.779 1.879,11.819 3.036,10.064C4.231,8.272 6.004,6.853 8.356,5.808C10.745,4.763 13.657,4.24 17.092,4.24C19.481,4.24 21.833,4.539 24.148,5.136C26.463,5.733 28.46,6.592 30.14,7.712L27.844,13.368C26.127,12.36 24.335,11.595 22.468,11.072C20.601,10.549 18.791,10.288 17.036,10.288C14.161,10.288 12.015,10.773 10.596,11.744C9.215,12.715 8.524,14.003 8.524,15.608C8.524,16.728 8.916,17.643 9.7,18.352C10.521,19.061 11.548,19.621 12.78,20.032C14.012,20.443 15.692,20.909 17.82,21.432C20.732,22.104 23.121,22.813 24.988,23.56C26.855,24.269 28.441,25.371 29.748,26.864C31.092,28.357 31.764,30.373 31.764,32.912C31.764,35.077 31.167,37.037 29.972,38.792C28.815,40.547 27.041,41.947 24.652,42.992C22.263,44.037 19.351,44.56 15.916,44.56Z" fill="#101828"/>
<path d="M38.311,14.096L45.311,14.096L45.311,44L38.311,44L38.311,14.096ZM41.839,9.168C40.569,9.168 39.505,8.776 38.647,7.992C37.788,7.171 37.359,6.163 37.359,4.968C37.359,3.773 37.788,2.784 38.647,2C39.505,1.179 40.569,0.768 41.839,0.768C43.108,0.768 44.172,1.16 45.031,1.944C45.889,2.691 46.319,3.643 46.319,4.8C46.319,6.032 45.889,7.077 45.031,7.936C44.209,8.757 43.145,9.168 41.839,9.168Z" fill="#101828"/>
<path d="M63.738,44.392C61.312,44.392 58.941,44.075 56.626,43.44C54.312,42.805 52.464,42.003 51.082,41.032L53.77,35.712C55.114,36.608 56.72,37.336 58.586,37.896C60.49,38.419 62.357,38.68 64.186,38.68C68.368,38.68 70.458,37.579 70.458,35.376C70.458,34.331 69.917,33.603 68.834,33.192C67.789,32.781 66.09,32.389 63.738,32.016C61.274,31.643 59.258,31.213 57.69,30.728C56.16,30.243 54.816,29.403 53.658,28.208C52.538,26.976 51.978,25.277 51.978,23.112C51.978,20.275 53.154,18.016 55.506,16.336C57.896,14.619 61.106,13.76 65.138,13.76C67.192,13.76 69.245,14.003 71.298,14.488C73.352,14.936 75.032,15.552 76.338,16.336L73.65,21.656C71.112,20.163 68.256,19.416 65.082,19.416C63.029,19.416 61.461,19.733 60.378,20.368C59.333,20.965 58.81,21.768 58.81,22.776C58.81,23.896 59.37,24.699 60.49,25.184C61.648,25.632 63.421,26.061 65.81,26.472C68.2,26.845 70.16,27.275 71.69,27.76C73.221,28.245 74.528,29.067 75.61,30.224C76.73,31.381 77.29,33.024 77.29,35.152C77.29,37.952 76.077,40.192 73.65,41.872C71.224,43.552 67.92,44.392 63.738,44.392Z" fill="#101828"/>
<path d="M110.772,14.096L96.772,46.408C95.465,49.656 93.878,51.933 92.012,53.24C90.145,54.584 87.886,55.256 85.236,55.256C83.742,55.256 82.268,55.013 80.812,54.528C79.356,54.043 78.161,53.371 77.228,52.512L80.028,47.36C80.7,47.995 81.484,48.499 82.38,48.872C83.313,49.245 84.246,49.432 85.18,49.432C86.412,49.432 87.42,49.115 88.204,48.48C89.025,47.845 89.772,46.781 90.444,45.288L90.948,44.112L77.9,14.096L85.18,14.096L94.588,36.216L104.052,14.096L110.772,14.096Z" fill="#101828"/>
<path d="M131.723,13.76C134.635,13.76 137.229,14.395 139.507,15.664C141.821,16.933 143.632,18.725 144.939,21.04C146.245,23.355 146.899,26.024 146.899,29.048C146.899,32.072 146.245,34.76 144.939,37.112C143.632,39.427 141.821,41.219 139.507,42.488C137.229,43.757 134.635,44.392 131.723,44.392C127.691,44.392 124.499,43.048 122.147,40.36L122.147,54.864L115.147,54.864L115.147,14.096L121.811,14.096L121.811,18.016C122.968,16.597 124.387,15.533 126.067,14.824C127.784,14.115 129.669,13.76 131.723,13.76ZM130.939,38.4C133.515,38.4 135.624,37.541 137.267,35.824C138.947,34.107 139.787,31.848 139.787,29.048C139.787,26.248 138.947,23.989 137.267,22.272C135.624,20.555 133.515,19.696 130.939,19.696C129.259,19.696 127.747,20.088 126.403,20.872C125.059,21.619 123.995,22.701 123.211,24.12C122.427,25.539 122.035,27.181 122.035,29.048C122.035,30.915 122.427,32.557 123.211,33.976C123.995,35.395 125.059,36.496 126.403,37.28C127.747,38.027 129.259,38.4 130.939,38.4Z" fill="#101828"/>
<path d="M170.505,13.76C174.276,13.76 177.3,14.861 179.577,17.064C181.855,19.267 182.993,22.533 182.993,26.864L182.993,44L175.993,44L175.993,27.76C175.993,25.147 175.377,23.187 174.145,21.88C172.913,20.536 171.159,19.864 168.881,19.864C166.305,19.864 164.271,20.648 162.777,22.216C161.284,23.747 160.537,25.968 160.537,28.88L160.537,44L153.537,44L153.537,2.448L160.537,2.448L160.537,17.568C161.695,16.336 163.113,15.403 164.793,14.768C166.511,14.096 168.415,13.76 170.505,13.76Z" fill="#101828"/>
<path d="M220.826,14.096L220.826,44L214.162,44L214.162,40.192C213.042,41.536 211.642,42.581 209.962,43.328C208.282,44.037 206.47,44.392 204.53,44.392C200.534,44.392 197.38,43.291 195.065,41.088C192.788,38.848 191.649,35.544 191.649,31.176L191.649,14.096L198.649,14.096L198.649,30.224C198.649,32.912 199.246,34.928 200.441,36.272C201.674,37.579 203.41,38.232 205.65,38.232C208.15,38.232 210.13,37.467 211.586,35.936C213.078,34.368 213.826,32.128 213.826,29.216L213.826,14.096L220.826,14.096Z" fill="#101828"/>
<path d="M239.23,44.392C236.804,44.392 234.434,44.075 232.118,43.44C229.804,42.805 227.956,42.003 226.574,41.032L229.262,35.712C230.606,36.608 232.212,37.336 234.078,37.896C235.982,38.419 237.848,38.68 239.678,38.68C243.86,38.68 245.95,37.579 245.95,35.376C245.95,34.331 245.41,33.603 244.326,33.192C243.28,32.781 241.582,32.389 239.23,32.016C236.766,31.643 234.75,31.213 233.182,30.728C231.652,30.243 230.308,29.403 229.15,28.208C228.03,26.976 227.47,25.277 227.47,23.112C227.47,20.275 228.646,18.016 230.998,16.336C233.388,14.619 236.598,13.76 240.63,13.76C242.684,13.76 244.736,14.003 246.79,14.488C248.844,14.936 250.524,15.552 251.83,16.336L249.142,21.656C246.604,20.163 243.748,19.416 240.574,19.416C238.52,19.416 236.952,19.733 235.87,20.368C234.826,20.965 234.302,21.768 234.302,22.776C234.302,23.896 234.862,24.699 235.982,25.184C237.14,25.632 238.914,26.061 241.302,26.472C243.692,26.845 245.652,27.275 247.182,27.76C248.712,28.245 250.02,29.067 251.102,30.224C252.222,31.381 252.782,33.024 252.782,35.152C252.782,37.952 251.568,40.192 249.142,41.872C246.716,43.552 243.412,44.392 239.23,44.392Z" fill="#101828"/>
</svg>
