<svg width="88" height="88" viewBox="0 0 88 88" fill="none" xmlns="http://www.w3.org/2000/svg" xmlns:xlink="http://www.w3.org/1999/xlink">
<path d="M31.429,62.857C48.786,62.857 62.857,48.786 62.857,31.429C62.857,29.462 62.676,27.537 62.331,25.67C60.464,25.324 58.539,25.143 56.571,25.143C39.214,25.143 25.143,39.214 25.143,56.572C25.143,58.539 25.324,60.464 25.669,62.331C27.536,62.677 29.461,62.857 31.429,62.857Z" fill="#175CD3"/>
<path d="M31.428,62.857C48.786,62.857 62.857,48.786 62.857,31.429C62.857,29.461 62.676,27.536 62.33,25.669C76.938,28.375 88,41.181 88,56.571C88,73.929 73.929,88 56.571,88C41.181,88 28.374,76.938 25.669,62.331C27.536,62.676 29.461,62.857 31.428,62.857Z" clip-rule="evenodd" fill-rule="evenodd" fill="#2E90FA"/>
</svg>
