<svg width="90" height="88" viewBox="0 0 90 88" fill="none" xmlns="http://www.w3.org/2000/svg" xmlns:xlink="http://www.w3.org/1999/xlink">
<path d="M45,0C20.699,0 1,19.699 1,44C1,68.301 20.699,88 45,88C66.802,88 84.9,72.143 88.392,51.333L88.076,51.333C84.82,63.985 73.335,73.333 59.667,73.333C43.466,73.333 30.333,60.2 30.333,44C30.333,27.8 43.466,14.667 59.667,14.667C73.335,14.667 84.82,24.015 88.076,36.667L88.392,36.667C84.9,15.857 66.802,0 45,0Z" fill="#A4BCFD"/>
<g style="isolation:isolate">
<path d="M1,44C1,19.699 20.699,0 45,0C66.802,0 84.9,15.857 88.392,36.667L58.743,36.667C55.486,24.015 44.001,14.667 30.333,14.667C14.133,14.667 1,27.8 1,44Z" fill="#3538CD"/>
</g>
<g style="isolation:isolate">
<path d="M1,88C1,63.699 20.699,44 45,44C66.802,44 84.9,59.857 88.392,80.667L58.743,80.667C55.486,68.015 44.001,58.667 30.333,58.667C14.133,58.667 1,71.8 1,88Z" fill="#3538CD"/>
</g>
</svg>
