<svg width="176" height="54" viewBox="0 0 176 54" fill="none" xmlns="http://www.w3.org/2000/svg" xmlns:xlink="http://www.w3.org/1999/xlink">
<path d="M6.584,32.848L19.744,32.848L19.744,38L0.2,38L0.2,-0.92L6.584,-0.92L6.584,32.848Z" fill="#101828"/>
<path d="M22.955,22.432C22.955,19.333 23.589,16.589 24.859,14.2C26.165,11.811 27.92,9.963 30.123,8.656C32.363,7.312 34.827,6.64 37.515,6.64C39.941,6.64 42.051,7.125 43.843,8.096C45.672,9.029 47.128,10.205 48.211,11.624L48.211,7.144L54.651,7.144L54.651,38L48.211,38L48.211,33.408C47.128,34.864 45.653,36.077 43.787,37.048C41.92,38.019 39.792,38.504 37.403,38.504C34.752,38.504 32.325,37.832 30.123,36.488C27.92,35.107 26.165,33.203 24.859,30.776C23.589,28.312 22.955,25.531 22.955,22.432ZM48.211,22.544C48.211,20.416 47.763,18.568 46.867,17C46.008,15.432 44.869,14.237 43.451,13.416C42.032,12.595 40.501,12.184 38.859,12.184C37.216,12.184 35.685,12.595 34.267,13.416C32.848,14.2 31.691,15.376 30.795,16.944C29.936,18.475 29.507,20.304 29.507,22.432C29.507,24.56 29.936,26.427 30.795,28.032C31.691,29.637 32.848,30.869 34.267,31.728C35.723,32.549 37.253,32.96 38.859,32.96C40.501,32.96 42.032,32.549 43.451,31.728C44.869,30.907 46.008,29.712 46.867,28.144C47.763,26.539 48.211,24.672 48.211,22.544Z" fill="#101828"/>
<path d="M90.812,7.144L71.884,52.504L65.276,52.504L71.548,37.496L59.396,7.144L66.508,7.144L75.188,30.664L84.204,7.144L90.812,7.144Z" fill="#101828"/>
<path d="M123.91,21.816C123.91,22.973 123.835,24.019 123.686,24.952L100.11,24.952C100.296,27.416 101.211,29.395 102.854,30.888C104.496,32.381 106.512,33.128 108.902,33.128C112.336,33.128 114.763,31.691 116.182,28.816L123.07,28.816C122.136,31.653 120.438,33.987 117.974,35.816C115.547,37.608 112.523,38.504 108.902,38.504C105.952,38.504 103.302,37.851 100.95,36.544C98.635,35.2 96.806,33.333 95.462,30.944C94.155,28.517 93.502,25.717 93.502,22.544C93.502,19.371 94.136,16.589 95.406,14.2C96.712,11.773 98.523,9.907 100.838,8.6C103.19,7.293 105.878,6.64 108.902,6.64C111.814,6.64 114.408,7.275 116.686,8.544C118.963,9.813 120.736,11.605 122.006,13.92C123.275,16.197 123.91,18.829 123.91,21.816ZM117.246,19.8C117.208,17.448 116.368,15.563 114.726,14.144C113.083,12.725 111.048,12.016 108.622,12.016C106.419,12.016 104.534,12.725 102.966,14.144C101.398,15.525 100.464,17.411 100.166,19.8L117.246,19.8Z" fill="#101828"/>
<path d="M136.576,11.624C137.509,10.056 138.741,8.843 140.272,7.984C141.84,7.088 143.688,6.64 145.816,6.64L145.816,13.248L144.192,13.248C141.691,13.248 139.787,13.883 138.48,15.152C137.211,16.421 136.576,18.624 136.576,21.76L136.576,38L130.192,38L130.192,7.144L136.576,7.144L136.576,11.624Z" fill="#101828"/>
<path d="M162.884,38.504C160.458,38.504 158.274,38.075 156.332,37.216C154.428,36.32 152.916,35.125 151.796,33.632C150.676,32.101 150.079,30.403 150.004,28.536L156.612,28.536C156.724,29.843 157.34,30.944 158.46,31.84C159.618,32.699 161.055,33.128 162.772,33.128C164.564,33.128 165.946,32.792 166.916,32.12C167.924,31.411 168.428,30.515 168.428,29.432C168.428,28.275 167.868,27.416 166.748,26.856C165.666,26.296 163.93,25.68 161.54,25.008C159.226,24.373 157.34,23.757 155.884,23.16C154.428,22.563 153.159,21.648 152.076,20.416C151.031,19.184 150.508,17.56 150.508,15.544C150.508,13.901 150.994,12.408 151.964,11.064C152.935,9.683 154.316,8.6 156.108,7.816C157.938,7.032 160.028,6.64 162.38,6.64C165.89,6.64 168.708,7.536 170.836,9.328C173.002,11.083 174.159,13.491 174.308,16.552L167.924,16.552C167.812,15.171 167.252,14.069 166.244,13.248C165.236,12.427 163.874,12.016 162.156,12.016C160.476,12.016 159.188,12.333 158.292,12.968C157.396,13.603 156.948,14.443 156.948,15.488C156.948,16.309 157.247,17 157.844,17.56C158.442,18.12 159.17,18.568 160.028,18.904C160.887,19.203 162.156,19.595 163.836,20.08C166.076,20.677 167.906,21.293 169.324,21.928C170.78,22.525 172.031,23.421 173.076,24.616C174.122,25.811 174.663,27.397 174.7,29.376C174.7,31.131 174.215,32.699 173.244,34.08C172.274,35.461 170.892,36.544 169.1,37.328C167.346,38.112 165.274,38.504 162.884,38.504Z" fill="#101828"/>
</svg>
