<svg width="252" height="56" viewBox="0 0 252 56" fill="none" xmlns="http://www.w3.org/2000/svg" xmlns:xlink="http://www.w3.org/1999/xlink">
<path d="M14.916,44.56C11.892,44.56 8.961,44.131 6.124,43.272C3.324,42.413 1.103,41.275 -0.54,39.856L1.98,34.2C3.585,35.469 5.545,36.515 7.86,37.336C10.212,38.12 12.564,38.512 14.916,38.512C17.828,38.512 19.993,38.045 21.412,37.112C22.868,36.179 23.596,34.947 23.596,33.416C23.596,32.296 23.185,31.381 22.364,30.672C21.58,29.925 20.572,29.347 19.34,28.936C18.108,28.525 16.428,28.059 14.3,27.536C11.313,26.827 8.887,26.117 7.02,25.408C5.191,24.699 3.604,23.597 2.26,22.104C0.953,20.573 0.3,18.52 0.3,15.944C0.3,13.779 0.879,11.819 2.036,10.064C3.231,8.272 5.004,6.853 7.356,5.808C9.745,4.763 12.657,4.24 16.092,4.24C18.481,4.24 20.833,4.539 23.148,5.136C25.463,5.733 27.46,6.592 29.14,7.712L26.844,13.368C25.127,12.36 23.335,11.595 21.468,11.072C19.601,10.549 17.791,10.288 16.036,10.288C13.161,10.288 11.015,10.773 9.596,11.744C8.215,12.715 7.524,14.003 7.524,15.608C7.524,16.728 7.916,17.643 8.7,18.352C9.521,19.061 10.548,19.621 11.78,20.032C13.012,20.443 14.692,20.909 16.82,21.432C19.732,22.104 22.121,22.813 23.988,23.56C25.855,24.269 27.441,25.371 28.748,26.864C30.092,28.357 30.764,30.373 30.764,32.912C30.764,35.077 30.167,37.037 28.972,38.792C27.815,40.547 26.041,41.947 23.652,42.992C21.263,44.037 18.351,44.56 14.916,44.56Z" fill="#101828"/>
<path d="M37.311,14.096L44.311,14.096L44.311,44L37.311,44L37.311,14.096ZM40.839,9.168C39.569,9.168 38.505,8.776 37.647,7.992C36.788,7.171 36.359,6.163 36.359,4.968C36.359,3.773 36.788,2.784 37.647,2C38.505,1.179 39.569,0.768 40.839,0.768C42.108,0.768 43.172,1.16 44.031,1.944C44.889,2.691 45.319,3.643 45.319,4.8C45.319,6.032 44.889,7.077 44.031,7.936C43.209,8.757 42.145,9.168 40.839,9.168Z" fill="#101828"/>
<path d="M62.738,44.392C60.312,44.392 57.941,44.075 55.626,43.44C53.312,42.805 51.464,42.003 50.082,41.032L52.77,35.712C54.114,36.608 55.72,37.336 57.586,37.896C59.49,38.419 61.357,38.68 63.186,38.68C67.368,38.68 69.458,37.579 69.458,35.376C69.458,34.331 68.917,33.603 67.834,33.192C66.789,32.781 65.09,32.389 62.738,32.016C60.274,31.643 58.258,31.213 56.69,30.728C55.16,30.243 53.816,29.403 52.658,28.208C51.538,26.976 50.978,25.277 50.978,23.112C50.978,20.275 52.154,18.016 54.506,16.336C56.896,14.619 60.106,13.76 64.138,13.76C66.192,13.76 68.245,14.003 70.298,14.488C72.352,14.936 74.032,15.552 75.338,16.336L72.65,21.656C70.112,20.163 67.256,19.416 64.082,19.416C62.029,19.416 60.461,19.733 59.378,20.368C58.333,20.965 57.81,21.768 57.81,22.776C57.81,23.896 58.37,24.699 59.49,25.184C60.648,25.632 62.421,26.061 64.81,26.472C67.2,26.845 69.16,27.275 70.69,27.76C72.221,28.245 73.528,29.067 74.61,30.224C75.73,31.381 76.29,33.024 76.29,35.152C76.29,37.952 75.077,40.192 72.65,41.872C70.224,43.552 66.92,44.392 62.738,44.392Z" fill="#101828"/>
<path d="M109.772,14.096L95.772,46.408C94.465,49.656 92.878,51.933 91.012,53.24C89.145,54.584 86.886,55.256 84.236,55.256C82.742,55.256 81.268,55.013 79.812,54.528C78.356,54.043 77.161,53.371 76.228,52.512L79.028,47.36C79.7,47.995 80.484,48.499 81.38,48.872C82.313,49.245 83.246,49.432 84.18,49.432C85.412,49.432 86.42,49.115 87.204,48.48C88.025,47.845 88.772,46.781 89.444,45.288L89.948,44.112L76.9,14.096L84.18,14.096L93.588,36.216L103.052,14.096L109.772,14.096Z" fill="#101828"/>
<path d="M130.723,13.76C133.635,13.76 136.229,14.395 138.507,15.664C140.821,16.933 142.632,18.725 143.939,21.04C145.245,23.355 145.899,26.024 145.899,29.048C145.899,32.072 145.245,34.76 143.939,37.112C142.632,39.427 140.821,41.219 138.507,42.488C136.229,43.757 133.635,44.392 130.723,44.392C126.691,44.392 123.499,43.048 121.147,40.36L121.147,54.864L114.147,54.864L114.147,14.096L120.811,14.096L120.811,18.016C121.968,16.597 123.387,15.533 125.067,14.824C126.784,14.115 128.669,13.76 130.723,13.76ZM129.939,38.4C132.515,38.4 134.624,37.541 136.267,35.824C137.947,34.107 138.787,31.848 138.787,29.048C138.787,26.248 137.947,23.989 136.267,22.272C134.624,20.555 132.515,19.696 129.939,19.696C128.259,19.696 126.747,20.088 125.403,20.872C124.059,21.619 122.995,22.701 122.211,24.12C121.427,25.539 121.035,27.181 121.035,29.048C121.035,30.915 121.427,32.557 122.211,33.976C122.995,35.395 124.059,36.496 125.403,37.28C126.747,38.027 128.259,38.4 129.939,38.4Z" fill="#101828"/>
<path d="M169.505,13.76C173.276,13.76 176.3,14.861 178.577,17.064C180.855,19.267 181.993,22.533 181.993,26.864L181.993,44L174.993,44L174.993,27.76C174.993,25.147 174.377,23.187 173.145,21.88C171.913,20.536 170.159,19.864 167.881,19.864C165.305,19.864 163.271,20.648 161.777,22.216C160.284,23.747 159.537,25.968 159.537,28.88L159.537,44L152.537,44L152.537,2.448L159.537,2.448L159.537,17.568C160.695,16.336 162.113,15.403 163.793,14.768C165.511,14.096 167.415,13.76 169.505,13.76Z" fill="#101828"/>
<path d="M219.826,14.096L219.826,44L213.162,44L213.162,40.192C212.042,41.536 210.642,42.581 208.962,43.328C207.282,44.037 205.47,44.392 203.53,44.392C199.534,44.392 196.38,43.291 194.065,41.088C191.788,38.848 190.649,35.544 190.649,31.176L190.649,14.096L197.649,14.096L197.649,30.224C197.649,32.912 198.246,34.928 199.441,36.272C200.674,37.579 202.41,38.232 204.65,38.232C207.15,38.232 209.13,37.467 210.586,35.936C212.078,34.368 212.826,32.128 212.826,29.216L212.826,14.096L219.826,14.096Z" fill="#101828"/>
<path d="M238.23,44.392C235.804,44.392 233.434,44.075 231.118,43.44C228.804,42.805 226.956,42.003 225.574,41.032L228.262,35.712C229.606,36.608 231.212,37.336 233.078,37.896C234.982,38.419 236.848,38.68 238.678,38.68C242.86,38.68 244.95,37.579 244.95,35.376C244.95,34.331 244.41,33.603 243.326,33.192C242.28,32.781 240.582,32.389 238.23,32.016C235.766,31.643 233.75,31.213 232.182,30.728C230.652,30.243 229.308,29.403 228.15,28.208C227.03,26.976 226.47,25.277 226.47,23.112C226.47,20.275 227.646,18.016 229.998,16.336C232.388,14.619 235.598,13.76 239.63,13.76C241.684,13.76 243.736,14.003 245.79,14.488C247.844,14.936 249.524,15.552 250.83,16.336L248.142,21.656C245.604,20.163 242.748,19.416 239.574,19.416C237.52,19.416 235.952,19.733 234.87,20.368C233.826,20.965 233.302,21.768 233.302,22.776C233.302,23.896 233.862,24.699 234.982,25.184C236.14,25.632 237.914,26.061 240.302,26.472C242.692,26.845 244.652,27.275 246.182,27.76C247.712,28.245 249.02,29.067 250.102,30.224C251.222,31.381 251.782,33.024 251.782,35.152C251.782,37.952 250.568,40.192 248.142,41.872C245.716,43.552 242.412,44.392 238.23,44.392Z" fill="#101828"/>
</svg>
