<svg width="260" height="54" viewBox="0 0 260 54" fill="none" xmlns="http://www.w3.org/2000/svg" xmlns:xlink="http://www.w3.org/1999/xlink">
<path d="M45.04,48.2C43.771,49.768 42.221,50.963 40.392,51.784C38.6,52.606 36.621,53.016 34.456,53.016C31.544,53.016 28.912,52.382 26.56,51.112C24.208,49.88 21.52,47.678 18.496,44.504C14.949,44.056 11.776,42.918 8.976,41.088C6.213,39.259 4.048,36.907 2.48,34.032C0.949,31.12 0.184,27.91 0.184,24.4C0.184,20.555 1.099,17.102 2.928,14.04C4.795,10.942 7.352,8.515 10.6,6.76C13.885,5.006 17.563,4.128 21.632,4.128C25.701,4.128 29.36,5.006 32.608,6.76C35.856,8.515 38.413,10.942 40.28,14.04C42.147,17.102 43.08,20.555 43.08,24.4C43.08,28.955 41.792,32.95 39.216,36.384C36.677,39.819 33.299,42.208 29.08,43.552C30.013,44.523 30.909,45.214 31.768,45.624C32.664,46.072 33.616,46.296 34.624,46.296C37.051,46.296 39.179,45.326 41.008,43.384L45.04,48.2ZM9.368,24.4C9.368,26.827 9.891,28.992 10.936,30.896C12.019,32.8 13.493,34.294 15.36,35.376C17.227,36.422 19.317,36.944 21.632,36.944C23.947,36.944 26.037,36.422 27.904,35.376C29.771,34.294 31.227,32.8 32.272,30.896C33.355,28.992 33.896,26.827 33.896,24.4C33.896,21.974 33.355,19.808 32.272,17.904C31.227,16 29.771,14.526 27.904,13.48C26.037,12.398 23.947,11.856 21.632,11.856C19.317,11.856 17.227,12.398 15.36,13.48C13.493,14.526 12.019,16 10.936,17.904C9.891,19.808 9.368,21.974 9.368,24.4Z" fill="#101828"/>
<path d="M79.634,13.872L79.634,44L71.346,44L71.346,40.416C70.189,41.723 68.807,42.731 67.202,43.44C65.597,44.112 63.861,44.448 61.994,44.448C58.037,44.448 54.901,43.31 52.586,41.032C50.271,38.755 49.114,35.376 49.114,30.896L49.114,13.872L57.85,13.872L57.85,29.608C57.85,34.462 59.885,36.888 63.954,36.888C66.045,36.888 67.725,36.216 68.994,34.872C70.263,33.491 70.898,31.456 70.898,28.768L70.898,13.872L79.634,13.872Z" fill="#101828"/>
<path d="M102.063,44.448C98.89,44.448 96.034,43.795 93.495,42.488C90.994,41.144 89.034,39.296 87.615,36.944C86.197,34.592 85.487,31.923 85.487,28.936C85.487,25.95 86.197,23.28 87.615,20.928C89.034,18.576 90.994,16.747 93.495,15.44C96.034,14.096 98.89,13.424 102.063,13.424C105.237,13.424 108.074,14.096 110.575,15.44C113.077,16.747 115.037,18.576 116.455,20.928C117.874,23.28 118.583,25.95 118.583,28.936C118.583,31.923 117.874,34.592 116.455,36.944C115.037,39.296 113.077,41.144 110.575,42.488C108.074,43.795 105.237,44.448 102.063,44.448ZM102.063,37.28C104.303,37.28 106.133,36.534 107.551,35.04C109.007,33.51 109.735,31.475 109.735,28.936C109.735,26.398 109.007,24.382 107.551,22.888C106.133,21.358 104.303,20.592 102.063,20.592C99.823,20.592 97.975,21.358 96.519,22.888C95.063,24.382 94.335,26.398 94.335,28.936C94.335,31.475 95.063,33.51 96.519,35.04C97.975,36.534 99.823,37.28 102.063,37.28Z" fill="#101828"/>
<path d="M143.855,42.544C142.996,43.179 141.932,43.664 140.663,44C139.431,44.299 138.124,44.448 136.743,44.448C133.159,44.448 130.377,43.534 128.399,41.704C126.457,39.875 125.487,37.187 125.487,33.64L125.487,21.264L120.839,21.264L120.839,14.544L125.487,14.544L125.487,7.208L134.223,7.208L134.223,14.544L141.727,14.544L141.727,21.264L134.223,21.264L134.223,33.528C134.223,34.798 134.54,35.787 135.175,36.496C135.847,37.168 136.78,37.504 137.975,37.504C139.356,37.504 140.532,37.131 141.503,36.384L143.855,42.544Z" fill="#101828"/>
<path d="M148.759,13.872L157.495,13.872L157.495,44L148.759,44L148.759,13.872ZM153.127,9.672C151.521,9.672 150.215,9.206 149.207,8.272C148.199,7.339 147.695,6.182 147.695,4.8C147.695,3.419 148.199,2.262 149.207,1.328C150.215,0.395 151.521,-0.072 153.127,-0.072C154.732,-0.072 156.039,0.376 157.047,1.272C158.055,2.168 158.559,3.288 158.559,4.632C158.559,6.088 158.055,7.302 157.047,8.272C156.039,9.206 154.732,9.672 153.127,9.672Z" fill="#101828"/>
<path d="M195.114,29.048C195.114,29.16 195.058,29.944 194.946,31.4L172.154,31.4C172.565,33.267 173.536,34.742 175.066,35.824C176.597,36.907 178.501,37.448 180.778,37.448C182.346,37.448 183.728,37.224 184.922,36.776C186.154,36.291 187.293,35.544 188.338,34.536L192.986,39.576C190.149,42.824 186.005,44.448 180.554,44.448C177.157,44.448 174.152,43.795 171.538,42.488C168.925,41.144 166.909,39.296 165.49,36.944C164.072,34.592 163.362,31.923 163.362,28.936C163.362,25.987 164.053,23.336 165.434,20.984C166.853,18.595 168.776,16.747 171.202,15.44C173.666,14.096 176.41,13.424 179.434,13.424C182.384,13.424 185.053,14.059 187.442,15.328C189.832,16.598 191.698,18.427 193.042,20.816C194.424,23.168 195.114,25.912 195.114,29.048ZM179.49,20.032C177.512,20.032 175.85,20.592 174.506,21.712C173.162,22.832 172.341,24.363 172.042,26.304L186.882,26.304C186.584,24.4 185.762,22.888 184.418,21.768C183.074,20.611 181.432,20.032 179.49,20.032Z" fill="#101828"/>
<path d="M219.242,13.424C222.976,13.424 225.982,14.544 228.258,16.784C230.574,19.024 231.73,22.347 231.73,26.752L231.73,44L222.994,44L222.994,28.096C222.994,25.707 222.472,23.934 221.426,22.776C220.382,21.582 218.87,20.984 216.89,20.984C214.688,20.984 212.934,21.675 211.626,23.056C210.32,24.4 209.666,26.416 209.666,29.104L209.666,44L200.93,44L200.93,13.872L209.274,13.872L209.274,17.4C210.432,16.131 211.87,15.16 213.586,14.488C215.304,13.779 217.19,13.424 219.242,13.424Z" fill="#101828"/>
<path d="M259.082,42.544C258.222,43.179 257.158,43.664 255.89,44C254.658,44.299 253.35,44.448 251.97,44.448C248.386,44.448 245.604,43.534 243.626,41.704C241.684,39.875 240.714,37.187 240.714,33.64L240.714,21.264L236.066,21.264L236.066,14.544L240.714,14.544L240.714,7.208L249.45,7.208L249.45,14.544L256.954,14.544L256.954,21.264L249.45,21.264L249.45,33.528C249.45,34.798 249.766,35.787 250.402,36.496C251.074,37.168 252.006,37.504 253.202,37.504C254.582,37.504 255.758,37.131 256.73,36.384L259.082,42.544Z" fill="#101828"/>
</svg>
