<svg width="260" height="54" viewBox="0 0 260 54" fill="none" xmlns="http://www.w3.org/2000/svg" xmlns:xlink="http://www.w3.org/1999/xlink">
<path d="M44.54,48.2C43.271,49.768 41.721,50.963 39.892,51.784C38.1,52.606 36.121,53.016 33.956,53.016C31.044,53.016 28.412,52.382 26.06,51.112C23.708,49.88 21.02,47.678 17.996,44.504C14.449,44.056 11.276,42.918 8.476,41.088C5.713,39.259 3.548,36.907 1.98,34.032C0.449,31.12 -0.316,27.91 -0.316,24.4C-0.316,20.555 0.599,17.102 2.428,14.04C4.295,10.942 6.852,8.515 10.1,6.76C13.385,5.006 17.063,4.128 21.132,4.128C25.201,4.128 28.86,5.006 32.108,6.76C35.356,8.515 37.913,10.942 39.78,14.04C41.647,17.102 42.58,20.555 42.58,24.4C42.58,28.955 41.292,32.95 38.716,36.384C36.177,39.819 32.799,42.208 28.58,43.552C29.513,44.523 30.409,45.214 31.268,45.624C32.164,46.072 33.116,46.296 34.124,46.296C36.551,46.296 38.679,45.326 40.508,43.384L44.54,48.2ZM8.868,24.4C8.868,26.827 9.391,28.992 10.436,30.896C11.519,32.8 12.993,34.294 14.86,35.376C16.727,36.422 18.817,36.944 21.132,36.944C23.447,36.944 25.537,36.422 27.404,35.376C29.271,34.294 30.727,32.8 31.772,30.896C32.855,28.992 33.396,26.827 33.396,24.4C33.396,21.974 32.855,19.808 31.772,17.904C30.727,16 29.271,14.526 27.404,13.48C25.537,12.398 23.447,11.856 21.132,11.856C18.817,11.856 16.727,12.398 14.86,13.48C12.993,14.526 11.519,16 10.436,17.904C9.391,19.808 8.868,21.974 8.868,24.4Z" fill="#101828"/>
<path d="M79.134,13.872L79.134,44L70.846,44L70.846,40.416C69.689,41.723 68.307,42.731 66.702,43.44C65.097,44.112 63.361,44.448 61.494,44.448C57.537,44.448 54.401,43.31 52.086,41.032C49.771,38.755 48.614,35.376 48.614,30.896L48.614,13.872L57.35,13.872L57.35,29.608C57.35,34.462 59.385,36.888 63.454,36.888C65.545,36.888 67.225,36.216 68.494,34.872C69.763,33.491 70.398,31.456 70.398,28.768L70.398,13.872L79.134,13.872Z" fill="#101828"/>
<path d="M101.563,44.448C98.39,44.448 95.534,43.795 92.995,42.488C90.494,41.144 88.534,39.296 87.115,36.944C85.697,34.592 84.987,31.923 84.987,28.936C84.987,25.95 85.697,23.28 87.115,20.928C88.534,18.576 90.494,16.747 92.995,15.44C95.534,14.096 98.39,13.424 101.563,13.424C104.737,13.424 107.574,14.096 110.075,15.44C112.577,16.747 114.537,18.576 115.955,20.928C117.374,23.28 118.083,25.95 118.083,28.936C118.083,31.923 117.374,34.592 115.955,36.944C114.537,39.296 112.577,41.144 110.075,42.488C107.574,43.795 104.737,44.448 101.563,44.448ZM101.563,37.28C103.803,37.28 105.633,36.534 107.051,35.04C108.507,33.51 109.235,31.475 109.235,28.936C109.235,26.398 108.507,24.382 107.051,22.888C105.633,21.358 103.803,20.592 101.563,20.592C99.323,20.592 97.475,21.358 96.019,22.888C94.563,24.382 93.835,26.398 93.835,28.936C93.835,31.475 94.563,33.51 96.019,35.04C97.475,36.534 99.323,37.28 101.563,37.28Z" fill="#101828"/>
<path d="M143.355,42.544C142.496,43.179 141.432,43.664 140.163,44C138.931,44.299 137.624,44.448 136.243,44.448C132.659,44.448 129.877,43.534 127.899,41.704C125.957,39.875 124.987,37.187 124.987,33.64L124.987,21.264L120.339,21.264L120.339,14.544L124.987,14.544L124.987,7.208L133.723,7.208L133.723,14.544L141.227,14.544L141.227,21.264L133.723,21.264L133.723,33.528C133.723,34.798 134.04,35.787 134.675,36.496C135.347,37.168 136.28,37.504 137.475,37.504C138.856,37.504 140.032,37.131 141.003,36.384L143.355,42.544Z" fill="#101828"/>
<path d="M148.259,13.872L156.995,13.872L156.995,44L148.259,44L148.259,13.872ZM152.627,9.672C151.021,9.672 149.715,9.206 148.707,8.272C147.699,7.339 147.195,6.182 147.195,4.8C147.195,3.419 147.699,2.262 148.707,1.328C149.715,0.395 151.021,-0.072 152.627,-0.072C154.232,-0.072 155.539,0.376 156.547,1.272C157.555,2.168 158.059,3.288 158.059,4.632C158.059,6.088 157.555,7.302 156.547,8.272C155.539,9.206 154.232,9.672 152.627,9.672Z" fill="#101828"/>
<path d="M194.614,29.048C194.614,29.16 194.558,29.944 194.446,31.4L171.654,31.4C172.065,33.267 173.036,34.742 174.566,35.824C176.097,36.907 178.001,37.448 180.278,37.448C181.846,37.448 183.228,37.224 184.422,36.776C185.654,36.291 186.793,35.544 187.838,34.536L192.486,39.576C189.649,42.824 185.505,44.448 180.054,44.448C176.657,44.448 173.652,43.795 171.038,42.488C168.425,41.144 166.409,39.296 164.99,36.944C163.572,34.592 162.862,31.923 162.862,28.936C162.862,25.987 163.553,23.336 164.934,20.984C166.353,18.595 168.276,16.747 170.702,15.44C173.166,14.096 175.91,13.424 178.934,13.424C181.884,13.424 184.553,14.059 186.942,15.328C189.332,16.598 191.198,18.427 192.542,20.816C193.924,23.168 194.614,25.912 194.614,29.048ZM178.99,20.032C177.012,20.032 175.35,20.592 174.006,21.712C172.662,22.832 171.841,24.363 171.542,26.304L186.382,26.304C186.084,24.4 185.262,22.888 183.918,21.768C182.574,20.611 180.932,20.032 178.99,20.032Z" fill="#101828"/>
<path d="M218.742,13.424C222.476,13.424 225.482,14.544 227.758,16.784C230.074,19.024 231.23,22.347 231.23,26.752L231.23,44L222.494,44L222.494,28.096C222.494,25.707 221.972,23.934 220.926,22.776C219.882,21.582 218.37,20.984 216.39,20.984C214.188,20.984 212.434,21.675 211.126,23.056C209.82,24.4 209.166,26.416 209.166,29.104L209.166,44L200.43,44L200.43,13.872L208.774,13.872L208.774,17.4C209.932,16.131 211.37,15.16 213.086,14.488C214.804,13.779 216.69,13.424 218.742,13.424Z" fill="#101828"/>
<path d="M258.582,42.544C257.722,43.179 256.658,43.664 255.39,44C254.158,44.299 252.85,44.448 251.47,44.448C247.886,44.448 245.104,43.534 243.126,41.704C241.184,39.875 240.214,37.187 240.214,33.64L240.214,21.264L235.566,21.264L235.566,14.544L240.214,14.544L240.214,7.208L248.95,7.208L248.95,14.544L256.454,14.544L256.454,21.264L248.95,21.264L248.95,33.528C248.95,34.798 249.266,35.787 249.902,36.496C250.574,37.168 251.506,37.504 252.702,37.504C254.082,37.504 255.258,37.131 256.23,36.384L258.582,42.544Z" fill="#101828"/>
</svg>
