<svg width="90" height="88" viewBox="0 0 90 88" fill="none" xmlns="http://www.w3.org/2000/svg" xmlns:xlink="http://www.w3.org/1999/xlink">
<path d="M44.5,0C20.199,0 0.5,19.699 0.5,44C0.5,68.301 20.199,88 44.5,88C66.302,88 84.4,72.143 87.892,51.333L87.576,51.333C84.32,63.985 72.835,73.333 59.167,73.333C42.966,73.333 29.833,60.2 29.833,44C29.833,27.8 42.966,14.667 59.167,14.667C72.835,14.667 84.32,24.015 87.576,36.667L87.892,36.667C84.4,15.857 66.302,0 44.5,0Z" fill="#A4BCFD"/>
<g style="isolation:isolate">
<path d="M0.5,44C0.5,19.699 20.199,0 44.5,0C66.302,0 84.4,15.857 87.892,36.667L58.243,36.667C54.986,24.015 43.501,14.667 29.833,14.667C13.633,14.667 0.5,27.8 0.5,44Z" fill="#3538CD"/>
</g>
<g style="isolation:isolate">
<path d="M0.5,88C0.5,63.699 20.199,44 44.5,44C66.302,44 84.4,59.857 87.892,80.667L58.243,80.667C54.986,68.015 43.501,58.667 29.833,58.667C13.633,58.667 0.5,71.8 0.5,88Z" fill="#3538CD"/>
</g>
</svg>
