<svg width="90" height="88" viewBox="0 0 90 88" fill="none" xmlns="http://www.w3.org/2000/svg" xmlns:xlink="http://www.w3.org/1999/xlink">
<path d="M32.429,62.857C49.786,62.857 63.857,48.786 63.857,31.429C63.857,29.462 63.676,27.537 63.331,25.67C61.464,25.324 59.539,25.143 57.571,25.143C40.214,25.143 26.143,39.214 26.143,56.572C26.143,58.539 26.324,60.464 26.669,62.331C28.536,62.677 30.461,62.857 32.429,62.857Z" fill="#175CD3"/>
<path d="M32.428,62.857C49.786,62.857 63.857,48.786 63.857,31.429C63.857,29.461 63.676,27.536 63.33,25.669C77.938,28.375 89,41.181 89,56.571C89,73.929 74.929,88 57.571,88C42.181,88 29.374,76.938 26.669,62.331C28.536,62.676 30.461,62.857 32.428,62.857Z" clip-rule="evenodd" fill-rule="evenodd" fill="#2E90FA"/>
</svg>
