<svg width="92" height="88" viewBox="0 0 92 88" fill="none" xmlns="http://www.w3.org/2000/svg" xmlns:xlink="http://www.w3.org/1999/xlink">
<path d="M43.5,68.933C57.27,68.933 68.433,57.77 68.433,44C68.433,30.23 57.27,19.067 43.5,19.067C29.73,19.067 18.567,30.23 18.567,44C18.567,57.77 29.73,68.933 43.5,68.933ZM43.5,88C67.801,88 87.5,68.301 87.5,44C87.5,19.699 67.801,0 43.5,0C19.199,0 -0.5,19.699 -0.5,44C-0.5,68.301 19.199,88 43.5,88Z" clip-rule="evenodd" fill-rule="evenodd" fill="#6938EF"/>
<g style="isolation:isolate">
<path d="M35.841,64.668C35.841,58.188 41.095,52.935 47.575,52.935L79.841,52.935C86.322,52.935 91.575,58.188 91.575,64.668L91.575,64.668C91.575,71.148 86.322,76.401 79.841,76.401L47.575,76.401C41.095,76.401 35.841,71.148 35.841,64.668L35.841,64.668Z" transform="rotate(90 63.708 64.668)" fill="#F670C7"/>
</g>
<g style="isolation:isolate">
<path d="M50.41,67.964L64.901,82.454C71.851,78.578 77.642,72.872 81.621,65.988L67.249,51.616C64.724,59.495 58.388,65.667 50.41,67.964Z" fill="#6519BA"/>
</g>
</svg>
