<svg width="88" height="88" viewBox="0 0 88 88" fill="none" xmlns="http://www.w3.org/2000/svg" xmlns:xlink="http://www.w3.org/1999/xlink">
<path d="M20.362,31.858C20.362,25.504 25.512,20.354 31.865,20.354L71.473,20.354C77.826,20.354 82.976,25.504 82.976,31.858L82.976,71.465C82.976,77.818 77.826,82.969 71.473,82.969L31.865,82.969C25.512,82.969 20.362,77.818 20.362,71.465L20.362,31.858Z" transform="rotate(-30.004 51.669 51.662)" fill="#9E77ED"/>
<path d="M5.024,16.52C5.024,10.167 10.174,5.016 16.528,5.016L56.135,5.016C62.489,5.016 67.639,10.167 67.639,16.52L67.639,56.128C67.639,62.481 62.489,67.631 56.135,67.631L16.528,67.631C10.174,67.631 5.024,62.481 5.024,56.128L5.024,16.52Z" transform="rotate(-30.004 36.332 36.324)" fill="#6941C6"/>
</svg>
