<svg width="96" height="76" viewBox="0 0 96 76" fill="none" xmlns="http://www.w3.org/2000/svg" xmlns:xlink="http://www.w3.org/1999/xlink">
<path d="M47.5,0L95,28.519L95,47.474L47.5,76L0,47.474L0,28.519L47.5,0Z" fill="#F6B9A1"/>
<path d="M0,28.519L47.5,0L95,28.519L95,47.474L47.5,76L0,47.474L0,28.519ZM47.5,63.899L84.924,41.424L84.924,34.571L84.922,34.57L47.5,57.037L10.078,34.57L10.076,34.571L10.076,41.424L47.5,63.899ZM47.5,46.559L76.193,29.331L69.204,25.137L47.5,38.167L25.796,25.137L18.807,29.331L47.5,46.559ZM47.5,27.689L60.475,19.899L47.5,12.112L34.525,19.899L47.5,27.689Z" clip-rule="evenodd" fill-rule="evenodd" fill="#EB6633"/>
<path d="M47.5,0L0,28.519L0,47.474L47.5,76L47.5,0Z" fill="#F6B9A1" fill-opacity="0.3"/>
</svg>
