<svg width="156" height="60" viewBox="0 0 156 60" fill="none" xmlns="http://www.w3.org/2000/svg" xmlns:xlink="http://www.w3.org/1999/xlink">
<path d="M37.029,0C30.937,0 25.095,2.42 20.787,6.728L6.728,20.787C2.42,25.095 0,30.937 0,37.029C0,49.716 10.284,60 22.971,60C29.063,60 34.905,57.58 39.213,53.272L48.938,43.547C48.938,43.548 48.938,43.547 48.938,43.547L77.272,15.213C79.329,13.156 82.12,12 85.029,12C89.901,12 94.03,15.175 95.462,19.568L104.404,10.626C100.325,4.237 93.172,0 85.029,0C78.937,0 73.095,2.42 68.787,6.728L30.728,44.787C28.671,46.844 25.88,48 22.971,48C16.912,48 12,43.088 12,37.029C12,34.12 13.156,31.329 15.213,29.272L29.272,15.213C31.329,13.156 34.12,12 37.029,12C41.901,12 46.03,15.175 47.462,19.568L56.405,10.626C52.325,4.237 45.172,0 37.029,0Z" fill="#7B7B7B"/>
<path d="M78.728,44.787C76.671,46.844 73.88,48 70.971,48C66.1,48 61.971,44.826 60.538,40.433L51.596,49.375C55.676,55.764 62.829,60 70.971,60C77.063,60 82.905,57.58 87.213,53.272L125.272,15.213C127.329,13.156 130.12,12 133.029,12C139.088,12 144,16.912 144,22.971C144,25.88 142.844,28.671 140.787,30.728L126.728,44.787C124.671,46.844 121.88,48 118.971,48C114.1,48 109.97,44.825 108.538,40.432L99.596,49.375C103.675,55.764 110.828,60 118.971,60C125.063,60 130.905,57.58 135.213,53.272L149.272,39.213C153.58,34.905 156,29.063 156,22.971C156,10.284 145.716,0 133.029,0C126.937,0 121.095,2.42 116.787,6.728L78.728,44.787Z" fill="#7B7B7B"/>
</svg>
