<svg width="206" height="56" viewBox="0 0 206 56" fill="none" xmlns="http://www.w3.org/2000/svg" xmlns:xlink="http://www.w3.org/1999/xlink">
<path d="M35.878,15.014C34.625,5.966 27.665,0.716 18.636,0.716C7.997,0.716 -0.017,8.472 -0.017,21.636C-0.017,34.781 7.898,42.557 18.636,42.557C28.321,42.557 34.744,36.293 35.878,28.517L28.44,28.477C27.506,33.25 23.608,35.935 18.736,35.935C12.133,35.935 7.401,30.983 7.401,21.636C7.401,12.449 12.094,7.338 18.756,7.338C23.707,7.338 27.585,10.142 28.44,15.014L35.878,15.014Z" fill="#101828"/>
<path d="M51.106,42.616C55.898,42.616 58.762,40.369 60.075,37.804L60.313,37.804L60.313,42L67.234,42L67.234,21.557C67.234,13.483 60.651,11.057 54.825,11.057C48.401,11.057 43.469,13.92 41.879,19.489L48.6,20.443C49.316,18.355 51.344,16.565 54.864,16.565C58.205,16.565 60.035,18.275 60.035,21.278L60.035,21.398C60.035,23.466 57.867,23.565 52.478,24.142C46.552,24.778 40.884,26.548 40.884,33.429C40.884,39.435 45.279,42.616 51.106,42.616ZM52.975,37.327C49.972,37.327 47.825,35.954 47.825,33.31C47.825,30.545 50.231,29.392 53.452,28.935C55.342,28.676 59.12,28.199 60.055,27.443L60.055,31.043C60.055,34.443 57.31,37.327 52.975,37.327Z" fill="#101828"/>
<path d="M89.725,11.454L83.7,11.454L83.7,4.136L76.501,4.136L76.501,11.454L72.166,11.454L72.166,17.023L76.501,17.023L76.501,34.006C76.461,39.753 80.637,42.577 86.046,42.418C88.094,42.358 89.506,41.96 90.282,41.702L89.069,36.074C88.671,36.173 87.856,36.352 86.961,36.352C85.151,36.352 83.7,35.716 83.7,32.812L83.7,17.023L89.725,17.023L89.725,11.454Z" fill="#101828"/>
<path d="M104.536,42.616C109.328,42.616 112.192,40.369 113.504,37.804L113.743,37.804L113.743,42L120.663,42L120.663,21.557C120.663,13.483 114.081,11.057 108.254,11.057C101.831,11.057 96.899,13.92 95.308,19.489L102.03,20.443C102.746,18.355 104.774,16.565 108.294,16.565C111.635,16.565 113.465,18.275 113.465,21.278L113.465,21.398C113.465,23.466 111.297,23.565 105.908,24.142C99.982,24.778 94.314,26.548 94.314,33.429C94.314,39.435 98.709,42.616 104.536,42.616ZM106.405,37.327C103.402,37.327 101.254,35.954 101.254,33.31C101.254,30.545 103.661,29.392 106.882,28.935C108.771,28.676 112.55,28.199 113.484,27.443L113.484,31.043C113.484,34.443 110.74,37.327 106.405,37.327Z" fill="#101828"/>
<path d="M135.101,1.273L127.902,1.273L127.902,42L135.101,42L135.101,1.273Z" fill="#101828"/>
<path d="M155.827,42.596C164.776,42.596 170.464,36.293 170.464,26.846C170.464,17.381 164.776,11.057 155.827,11.057C146.879,11.057 141.191,17.381 141.191,26.846C141.191,36.293 146.879,42.596 155.827,42.596ZM155.867,36.829C150.915,36.829 148.489,32.415 148.489,26.827C148.489,21.239 150.915,16.764 155.867,16.764C160.739,16.764 163.165,21.239 163.165,26.827C163.165,32.415 160.739,36.829 155.867,36.829Z" fill="#101828"/>
<path d="M189.858,54.091C198.111,54.091 204.197,50.312 204.197,42.497L204.197,11.454L197.097,11.454L197.097,16.506L196.699,16.506C195.605,14.298 193.318,11.057 187.929,11.057C180.869,11.057 175.321,16.585 175.321,26.628C175.321,36.591 180.869,41.562 187.909,41.562C193.139,41.562 195.585,38.758 196.699,36.511L197.057,36.511L197.057,42.298C197.057,46.793 194.074,48.642 189.977,48.642C185.642,48.642 183.733,46.594 182.858,44.804L176.375,46.375C177.687,50.65 182.082,54.091 189.858,54.091ZM189.918,35.915C185.165,35.915 182.659,32.216 182.659,26.588C182.659,21.04 185.125,16.963 189.918,16.963C194.551,16.963 197.097,20.801 197.097,26.588C197.097,32.415 194.511,35.915 189.918,35.915Z" fill="#101828"/>
</svg>
