<svg width="772" height="768" viewBox="0 0 772 768" fill="none" xmlns="http://www.w3.org/2000/svg" xmlns:xlink="http://www.w3.org/1999/xlink">
<path d="M306.731,0L218.189,0C208.323,0 200.325,7.998 200.325,17.864L200.325,133.376C200.325,143.243 208.323,151.241 218.189,151.241L306.731,151.241C316.597,151.241 324.595,143.243 324.595,133.376L324.595,17.864C324.595,7.998 316.597,0 306.731,0Z" fill="#CE2939"/>
<path d="M357.203,0L268.661,0C258.795,0 250.797,7.998 250.797,17.864L250.797,133.376C250.797,143.243 258.795,151.241 268.661,151.241L357.203,151.241C367.069,151.241 375.067,143.243 375.067,133.376L375.067,17.864C375.067,7.998 367.069,0 357.203,0Z" fill="#E6333E"/>
<rect  x="158.265" y="133.029" width="360.411" height="633.495" fill="#95AAB5"/>
<rect  x="351.653" y="133.029" width="294.07" height="633.495" fill="#A9BECB"/>
<rect  x="112.824" y="75.62" width="413.311" height="114.731" fill="#AAAAAA"/>
<rect  x="334.655" y="75.62" width="370.471" height="114.731" fill="#CECECE"/>
<rect  x="677.462" y="650.318" width="30.873" height="116.119" fill="#C16511"/>
<path d="M692.839,710.303C735.657,710.303 770.368,675.593 770.368,632.775C770.368,589.957 735.657,555.247 692.839,555.247C650.022,555.247 615.311,589.957 615.311,632.775C615.311,675.593 650.022,710.303 692.839,710.303Z" transform="rotate(-26.84 692.839 632.775)" fill="#3BA83E"/>
<path d="M710.676,674.861C695.458,675.08 680.732,669.474 669.511,659.191C658.29,648.909 651.423,634.726 650.315,619.547C649.207,604.368 653.942,589.339 663.551,577.535C673.159,565.732 686.916,558.048 702.004,556.054C698.867,555.676 695.711,555.473 692.552,555.447C677.218,555.447 662.229,559.994 649.479,568.513C636.73,577.032 626.793,589.14 620.925,603.306C615.057,617.473 613.522,633.061 616.513,648.1C619.505,663.139 626.888,676.953 637.731,687.796C648.573,698.638 662.388,706.022 677.427,709.014C692.466,712.005 708.054,710.47 722.221,704.602C736.387,698.734 748.495,688.797 757.014,676.048C765.533,663.298 770.08,648.309 770.08,632.975C770.071,629.783 769.839,626.596 769.386,623.436C767.425,637.637 760.409,650.655 749.625,660.101C738.841,669.547 725.012,674.787 710.676,674.861Z" fill="#2F8C2F"/>
<rect  x="388.682" y="262.851" width="43.274" height="43.274" transform="rotate(-180 388.682 262.851)" fill="#3EA4D5"/>
<rect  x="449.82" y="262.764" width="43.274" height="43.274" transform="rotate(-180 449.82 262.764)" fill="#3EA4D5"/>
<rect  x="510.959" y="262.851" width="43.274" height="43.274" transform="rotate(-180 510.959 262.851)" fill="#3EA4D5"/>
<rect  x="572.009" y="262.851" width="43.274" height="43.274" transform="rotate(-180 572.009 262.851)" fill="#3EA4D5"/>
<rect  x="388.682" y="324.769" width="43.274" height="43.274" transform="rotate(-180 388.682 324.769)" fill="#293F5D"/>
<rect  x="449.82" y="324.682" width="43.274" height="43.274" transform="rotate(-180 449.82 324.682)" fill="#3EA4D5"/>
<rect  x="510.959" y="324.769" width="43.274" height="43.274" transform="rotate(-180 510.959 324.769)" fill="#3EA4D5"/>
<rect  x="572.009" y="324.769" width="43.274" height="43.274" transform="rotate(-180 572.009 324.769)" fill="#3EA4D5"/>
<rect  x="388.682" y="386.688" width="43.274" height="43.274" transform="rotate(-180 388.682 386.688)" fill="#3EA4D5"/>
<rect  x="449.82" y="386.601" width="43.274" height="43.274" transform="rotate(-180 449.82 386.601)" fill="#293F5D"/>
<rect  x="510.959" y="386.688" width="43.274" height="43.274" transform="rotate(-180 510.959 386.688)" fill="#3EA4D5"/>
<rect  x="572.009" y="386.688" width="43.274" height="43.274" transform="rotate(-180 572.009 386.688)" fill="#293F5D"/>
<rect  x="388.682" y="448.606" width="43.274" height="43.274" transform="rotate(-180 388.682 448.606)" fill="#3EA4D5"/>
<rect  x="449.82" y="448.52" width="43.274" height="43.274" transform="rotate(-180 449.82 448.52)" fill="#3EA4D5"/>
<rect  x="510.959" y="448.606" width="43.274" height="43.274" transform="rotate(-180 510.959 448.606)" fill="#293F5D"/>
<rect  x="572.009" y="448.606" width="43.274" height="43.274" transform="rotate(-180 572.009 448.606)" fill="#3EA4D5"/>
<rect  x="388.682" y="510.526" width="43.274" height="43.274" transform="rotate(-180 388.682 510.526)" fill="#3EA4D5"/>
<rect  x="449.82" y="510.439" width="43.274" height="43.274" transform="rotate(-180 449.82 510.439)" fill="#293F5D"/>
<rect  x="510.959" y="510.526" width="43.274" height="43.274" transform="rotate(-180 510.959 510.526)" fill="#3EA4D5"/>
<rect  x="572.009" y="510.526" width="43.274" height="43.274" transform="rotate(-180 572.009 510.526)" fill="#3EA4D5"/>
<rect  x="388.682" y="572.443" width="43.274" height="43.274" transform="rotate(-180 388.682 572.443)" fill="#3EA4D5"/>
<rect  x="449.82" y="572.357" width="43.274" height="43.274" transform="rotate(-180 449.82 572.357)" fill="#3EA4D5"/>
<rect  x="510.959" y="572.443" width="43.274" height="43.274" transform="rotate(-180 510.959 572.443)" fill="#3EA4D5"/>
<rect  x="572.009" y="572.443" width="43.274" height="43.274" transform="rotate(-180 572.009 572.443)" fill="#3EA4D5"/>
<rect  x="431.956" y="639.392" width="140.054" height="127.046" fill="#95AAB5"/>
<rect  x="431.956" y="639.392" width="61.138" height="127.046" fill="#3EA4D5"/>
<rect  x="540.616" y="639.392" width="31.48" height="127.046" fill="#293F5D"/>
<rect  x="388.682" y="623.434" width="183.328" height="36.336" fill="#95AAB5"/>
<rect  x="410.362" y="623.434" width="183.328" height="36.336" fill="#CECECE"/>
<rect  x="101.55" y="365.007" width="211.338" height="401.43" fill="#CECECE"/>
<rect  x="52.553" y="365.007" width="211.338" height="401.43" fill="#82959E"/>
<rect  x="76.661" y="448.52" width="43.274" height="43.274" transform="rotate(-180 76.661 448.52)" fill="#3EA4D5"/>
<rect  x="137.799" y="448.606" width="43.274" height="43.274" transform="rotate(-180 137.799 448.606)" fill="#3EA4D5"/>
<rect  x="198.851" y="448.606" width="43.274" height="43.274" transform="rotate(-180 198.851 448.606)" fill="#293F5D"/>
<rect  x="76.661" y="510.439" width="43.274" height="43.274" transform="rotate(-180 76.661 510.439)" fill="#293F5D"/>
<rect  x="137.799" y="510.526" width="43.274" height="43.274" transform="rotate(-180 137.799 510.526)" fill="#3EA4D5"/>
<rect  x="198.851" y="510.526" width="43.274" height="43.274" transform="rotate(-180 198.851 510.526)" fill="#3EA4D5"/>
<rect  x="76.661" y="572.357" width="43.274" height="43.274" transform="rotate(-180 76.661 572.357)" fill="#3EA4D5"/>
<rect  x="136.585" y="572.443" width="43.274" height="43.274" transform="rotate(-180 136.585 572.443)" fill="#293F5D"/>
<rect  x="198.851" y="572.443" width="43.274" height="43.274" transform="rotate(-180 198.851 572.443)" fill="#3EA4D5"/>
<rect  x="76.661" y="634.274" width="43.274" height="43.274" transform="rotate(-180 76.661 634.274)" fill="#3EA4D5"/>
<rect  x="136.585" y="634.361" width="43.274" height="43.274" transform="rotate(-180 136.585 634.361)" fill="#293F5D"/>
<rect  x="198.851" y="634.361" width="43.274" height="43.274" transform="rotate(-180 198.851 634.361)" fill="#3EA4D5"/>
<rect  x="76.661" y="696.194" width="43.274" height="43.274" transform="rotate(-180 76.661 696.194)" fill="#3EA4D5"/>
<rect  x="137.799" y="696.281" width="43.274" height="43.274" transform="rotate(-180 137.799 696.281)" fill="#3EA4D5"/>
<rect  x="198.851" y="696.281" width="43.274" height="43.274" transform="rotate(-180 198.851 696.281)" fill="#293F5D"/>
<rect  x="42.059" y="687.782" width="20.9" height="78.742" fill="#C16511"/>
<path d="M105.106,675.987C105.106,665.593 102.023,655.432 96.249,646.79C90.474,638.148 82.267,631.412 72.664,627.434C63.061,623.457 52.494,622.416 42.3,624.444C32.106,626.472 22.742,631.477 15.392,638.826C8.043,646.176 3.038,655.54 1.01,665.734C-1.018,675.929 0.023,686.495 4,696.098C7.978,705.701 14.714,713.908 23.356,719.683C31.998,725.457 42.159,728.539 52.553,728.539C66.491,728.539 79.858,723.003 89.713,713.147C99.569,703.292 105.106,689.925 105.106,675.987Z" fill="#3BA83E"/>
<path d="M64.607,704.431C54.409,704.343 44.619,700.411 37.194,693.419C29.769,686.428 25.255,676.892 24.554,666.718C23.853,656.543 27.017,646.479 33.413,638.535C39.809,630.592 48.967,625.354 59.057,623.868C56.891,623.739 54.719,623.739 52.553,623.868C42.159,623.868 31.998,626.95 23.356,632.725C14.714,638.499 7.978,646.707 4,656.31C0.023,665.912 -1.018,676.479 1.01,686.673C3.038,696.867 8.043,706.231 15.392,713.581C22.742,720.931 32.106,725.936 42.3,727.964C52.494,729.991 63.061,728.951 72.664,724.973C82.267,720.995 90.474,714.26 96.249,705.617C102.023,696.975 105.106,686.815 105.106,676.421C105.091,674.246 104.946,672.074 104.672,669.917C103.255,679.523 98.426,688.299 91.069,694.637C83.711,700.975 74.318,704.452 64.607,704.431Z" fill="#2F8C2F"/>
<rect  x="167.024" y="241.171" width="40.238" height="21.593" fill="#A9BECB"/>
<rect  x="187.143" y="266.84" width="40.238" height="21.593" fill="#A9BECB"/>
<rect  x="350.091" y="103.978" width="40.238" height="21.593" fill="#AAAAAA"/>
<rect  x="370.125" y="129.647" width="40.238" height="21.593" fill="#AAAAAA"/>
<rect  x="605.57" y="163.122" width="40.238" height="21.593" fill="#AAAAAA"/>
<rect  x="299.36" y="202.493" width="40.238" height="21.593" fill="#A9BECB"/>
<rect  x="585.451" y="82.298" width="40.238" height="21.593" fill="#AAAAAA"/>
<rect  x="299.36" y="313.929" width="40.238" height="21.593" fill="#A9BECB"/>
</svg>
