<svg width="74" height="76" viewBox="0 0 74 76" fill="none" xmlns="http://www.w3.org/2000/svg" xmlns:xlink="http://www.w3.org/1999/xlink">
<path d="M36.999,34.885C45.595,34.885 52.562,27.79 52.562,19.039C52.562,10.288 45.595,3.193 36.999,3.193C28.404,3.193 21.437,10.288 21.437,19.039C21.437,27.79 28.404,34.885 36.999,34.885Z" fill="url(#pf_0_383_219)"/>
<path d="M21.53,20.768C21.58,21.249 21.826,21.688 22.207,21.976C22.591,22.266 23.072,22.38 23.54,22.292C26.192,21.795 28.569,20.496 30.381,18.611C31.091,17.877 32.15,17.605 33.124,17.912C33.126,17.912 33.129,17.912 33.131,17.914C34.356,18.293 35.655,18.498 37.001,18.498C38.318,18.498 39.591,18.3 40.812,17.996C40.846,17.986 40.878,17.977 40.912,17.968C41.864,17.666 42.902,17.931 43.603,18.653C43.612,18.663 43.621,18.672 43.628,18.679C45.472,20.503 47.829,21.788 50.458,22.287C50.926,22.375 51.409,22.262 51.793,21.973C52.174,21.683 52.42,21.244 52.473,20.763C52.532,20.196 52.564,19.622 52.564,19.039C52.564,10.291 45.59,3.191 37.001,3.191C28.41,3.191 21.436,10.291 21.436,19.039C21.436,19.622 21.468,20.201 21.53,20.768L21.53,20.768Z" clip-rule="evenodd" fill-rule="evenodd" fill="url(#pf_0_383_220)"/>
<path d="M65.636,64.498L65.638,64.498C65.638,45.548 51.337,36.103 37.016,36.128C22.694,36.154 8.4,45.655 8.4,64.498L8.4,65.167C8.4,66.842 9.055,68.45 10.219,69.635C11.382,70.82 12.962,71.486 14.607,71.486C24.745,71.486 49.292,71.486 59.431,71.486C61.076,71.486 62.656,70.82 63.819,69.635C64.983,68.45 65.638,66.842 65.638,65.167L65.636,64.498Z" clip-rule="evenodd" fill-rule="evenodd" fill="url(#pf_0_383_221)"/>
<path d="M21.731,59.16L27.602,59.16C28.547,59.16 29.313,58.379 29.313,57.417C29.313,56.455 28.547,55.675 27.602,55.675L21.731,55.675C20.786,55.675 20.019,56.455 20.019,57.417C20.019,58.379 20.786,59.16 21.731,59.16Z" clip-rule="evenodd" fill-rule="evenodd" fill="url(#pf_0_383_222)"/>
<path d="M24.979,38.51C27.994,42.762 32.286,45.359 36.998,45.359C41.727,45.359 46.033,42.743 49.049,38.466C45.268,36.9 41.143,36.121 37.017,36.128C32.889,36.135 28.761,36.93 24.979,38.51L24.979,38.51Z" clip-rule="evenodd" fill-rule="evenodd" fill="url(#pf_0_383_223)"/>
<path d="M45.757,37.322C43.5,40.17 40.422,41.964 36.999,41.964C33.59,41.964 30.521,40.184 28.268,37.357C27.111,37.689 25.975,38.089 24.868,38.556C27.83,42.812 32.184,45.449 36.999,45.449C41.83,45.449 46.198,42.794 49.159,38.511C48.053,38.047 46.914,37.65 45.757,37.322L45.757,37.322Z" clip-rule="evenodd" fill-rule="evenodd" fill="url(#pf_0_383_224)"/>
<defs>
<linearGradient id="pf_0_383_219" x1="38.14" y1="24.529" x2="38.14" y2="-0.594" gradientUnits="userSpaceOnUse">
<stop stop-color="#F2B9B5"/>
<stop offset="1" stop-color="#FA3426"/>
</linearGradient>
<linearGradient id="pf_0_383_220" x1="37.02" y1="12.912" x2="37.02" y2="39.632" gradientUnits="userSpaceOnUse">
<stop stop-color="#59586E"/>
<stop offset="1" stop-color="#242249"/>
</linearGradient>
<linearGradient id="pf_0_383_221" x1="38.73" y1="61.124" x2="38.73" y2="100.041" gradientUnits="userSpaceOnUse">
<stop stop-color="#C1466C"/>
<stop offset="1" stop-color="#8B1439"/>
</linearGradient>
<linearGradient id="pf_0_383_222" x1="24.977" y1="57.057" x2="24.977" y2="72.159" gradientUnits="userSpaceOnUse">
<stop stop-color="#822F4C"/>
<stop offset="1" stop-color="#4E0D23"/>
</linearGradient>
<linearGradient id="pf_0_383_223" x1="38.731" y1="37.997" x2="38.731" y2="48.926" gradientUnits="userSpaceOnUse">
<stop stop-color="#822F4C"/>
<stop offset="1" stop-color="#4E0D24"/>
</linearGradient>
<linearGradient id="pf_0_383_224" x1="37.02" y1="41.386" x2="37.02" y2="67.513" gradientUnits="userSpaceOnUse">
<stop stop-color="#FFFFFF"/>
<stop offset="1" stop-color="#B3B3B3"/>
</linearGradient>
</defs>
</svg>
