<svg width="52" height="52" viewBox="0 0 52 52" fill="none" xmlns="http://www.w3.org/2000/svg" xmlns:xlink="http://www.w3.org/1999/xlink">
<path d="M4.495,50.952C3.019,50.952 1.787,50.458 0.8,49.471C-0.187,48.484 -0.681,47.252 -0.684,45.774L-0.684,4.86C-0.684,3.384 -0.189,2.152 0.8,1.165C1.789,0.178 3.021,-0.316 4.495,-0.318L45.412,-0.318C46.886,-0.318 48.117,0.176 49.106,1.165C50.095,2.154 50.589,3.386 50.587,4.86L50.587,45.777C50.587,47.251 50.093,48.482 49.106,49.471C48.119,50.461 46.887,50.954 45.408,50.952L4.495,50.952ZM4.495,47.747L45.412,47.747C45.903,47.747 46.355,47.542 46.767,47.132C47.179,46.722 47.384,46.269 47.382,45.774L47.382,4.86C47.382,4.366 47.177,3.914 46.767,3.501C46.357,3.089 45.904,2.884 45.408,2.886L4.495,2.886C4.001,2.886 3.548,3.091 3.136,3.501C2.724,3.911 2.519,4.364 2.521,4.86L2.521,45.777C2.521,46.268 2.726,46.72 3.136,47.132C3.546,47.545 3.998,47.75 4.491,47.747M10.532,39.736L39.865,39.736L30.806,27.656L22.426,38.256L16.819,31.479L10.532,39.736Z" fill="#BDBDBD"/>
</svg>
