<svg width="68" height="68" viewBox="0 0 68 68" fill="none" xmlns="http://www.w3.org/2000/svg" xmlns:xlink="http://www.w3.org/1999/xlink">
<path d="M34,0C27.275,0 20.702,1.994 15.111,5.73C9.519,9.466 5.161,14.776 2.588,20.989C0.015,27.201 -0.659,34.038 0.653,40.633C1.965,47.228 5.203,53.287 9.958,58.042C14.713,62.797 20.772,66.035 27.367,67.347C33.962,68.658 40.799,67.985 47.011,65.412C53.224,62.838 58.534,58.481 62.27,52.889C66.006,47.298 68,40.725 68,34C67.99,24.986 64.405,16.343 58.031,9.969C51.657,3.595 43.014,0.01 34,0ZM34,62.769C28.31,62.769 22.748,61.082 18.017,57.921C13.286,54.759 9.598,50.266 7.421,45.009C5.243,39.753 4.673,33.968 5.784,28.387C6.894,22.807 9.634,17.681 13.657,13.657C17.681,9.634 22.807,6.894 28.387,5.784C33.968,4.673 39.753,5.243 45.009,7.421C50.266,9.598 54.759,13.286 57.921,18.017C61.082,22.748 62.769,28.31 62.769,34C62.76,41.627 59.727,48.94 54.333,54.333C48.94,59.727 41.627,62.76 34,62.769ZM54.923,34C54.923,34.694 54.647,35.359 54.157,35.849C53.667,36.34 53.001,36.615 52.308,36.615L34,36.615C33.306,36.615 32.641,36.34 32.151,35.849C31.66,35.359 31.385,34.694 31.385,34L31.385,15.692C31.385,14.999 31.66,14.333 32.151,13.843C32.641,13.352 33.306,13.077 34,13.077C34.694,13.077 35.359,13.352 35.849,13.843C36.34,14.333 36.615,14.999 36.615,15.692L36.615,31.385L52.308,31.385C53.001,31.385 53.667,31.66 54.157,32.151C54.647,32.641 54.923,33.306 54.923,34Z" fill="#72ABFF"/>
</svg>
