<svg width="50" height="52" viewBox="0 0 50 52" fill="none" xmlns="http://www.w3.org/2000/svg" xmlns:xlink="http://www.w3.org/1999/xlink">
<path d="M16.845,43.539C16.845,44.011 16.657,44.464 16.324,44.797C15.99,45.131 15.538,45.318 15.066,45.318L4.394,45.318C3.458,45.318 2.538,45.071 1.727,44.602C0.917,44.133 0.244,43.46 -0.224,42.649C-0.692,41.838 -0.939,40.918 -0.938,39.981C-0.938,39.045 -0.692,38.125 -0.224,37.314L7.4,24.141L4.276,24.975C4.05,25.035 3.814,25.05 3.582,25.02C3.35,24.989 3.126,24.913 2.923,24.795C2.514,24.559 2.215,24.169 2.093,23.712C1.971,23.255 2.036,22.768 2.272,22.359C2.509,21.949 2.899,21.651 3.356,21.529L10.642,19.579C10.868,19.518 11.103,19.503 11.335,19.533C11.566,19.564 11.79,19.64 11.992,19.756C12.194,19.873 12.372,20.029 12.514,20.214C12.656,20.4 12.76,20.611 12.821,20.837L14.775,28.123C14.837,28.35 14.853,28.586 14.823,28.819C14.792,29.052 14.716,29.277 14.599,29.481C14.481,29.684 14.324,29.862 14.137,30.005C13.95,30.147 13.737,30.251 13.51,30.311C13.359,30.35 13.204,30.37 13.047,30.371C12.656,30.37 12.276,30.241 11.966,30.003C11.655,29.764 11.432,29.43 11.331,29.052L10.486,25.906L2.862,39.093C2.707,39.363 2.624,39.668 2.624,39.98C2.624,40.292 2.705,40.598 2.86,40.868C3.015,41.138 3.239,41.363 3.508,41.519C3.777,41.676 4.083,41.759 4.394,41.761L15.066,41.761C15.538,41.761 15.99,41.948 16.324,42.282C16.657,42.615 16.845,43.068 16.845,43.539ZM48.134,37.314L42.989,28.421C42.743,28.034 42.357,27.757 41.911,27.647C41.466,27.538 40.995,27.606 40.598,27.835C40.201,28.065 39.908,28.439 39.78,28.879C39.652,29.32 39.699,29.793 39.912,30.199L45.057,39.093C45.212,39.363 45.295,39.668 45.295,39.98C45.295,40.292 45.214,40.598 45.059,40.868C44.904,41.138 44.68,41.363 44.411,41.519C44.142,41.676 43.836,41.759 43.525,41.761L28.253,41.761L30.552,39.462C30.886,39.128 31.073,38.676 31.073,38.204C31.074,37.732 30.886,37.28 30.553,36.946C30.219,36.612 29.767,36.425 29.295,36.425C28.823,36.424 28.371,36.612 28.037,36.945L22.701,42.281C22.536,42.446 22.405,42.642 22.315,42.858C22.226,43.074 22.18,43.306 22.18,43.539C22.18,43.773 22.226,44.005 22.315,44.221C22.405,44.436 22.536,44.633 22.701,44.798L28.037,50.134C28.202,50.299 28.399,50.43 28.614,50.519C28.83,50.608 29.062,50.654 29.295,50.654C29.529,50.654 29.76,50.608 29.976,50.519C30.192,50.429 30.388,50.298 30.553,50.133C30.718,49.967 30.849,49.771 30.938,49.555C31.028,49.34 31.073,49.108 31.073,48.875C31.073,48.641 31.027,48.41 30.938,48.194C30.848,47.978 30.717,47.782 30.552,47.617L28.253,45.318L43.525,45.318C44.461,45.318 45.381,45.071 46.192,44.602C47.002,44.133 47.676,43.46 48.144,42.649C48.611,41.838 48.858,40.918 48.858,39.981C48.857,39.045 48.611,38.125 48.143,37.314L48.134,37.314ZM23.96,4.409C24.272,4.406 24.58,4.487 24.851,4.643C25.121,4.8 25.345,5.026 25.498,5.298L33.122,18.471L29.991,17.631C29.541,17.525 29.068,17.599 28.671,17.837C28.275,18.074 27.986,18.457 27.867,18.903C27.747,19.35 27.807,19.825 28.032,20.229C28.257,20.633 28.631,20.933 29.073,21.066L36.361,23.02C36.512,23.06 36.666,23.08 36.822,23.08C37.213,23.08 37.593,22.951 37.903,22.712C38.214,22.474 38.437,22.14 38.538,21.762L40.492,14.472C40.559,14.244 40.58,14.005 40.554,13.769C40.527,13.534 40.454,13.306 40.337,13.099C40.221,12.892 40.065,12.71 39.878,12.564C39.69,12.419 39.476,12.312 39.247,12.251C39.017,12.189 38.778,12.174 38.543,12.207C38.308,12.239 38.082,12.318 37.878,12.44C37.674,12.561 37.496,12.722 37.355,12.912C37.214,13.103 37.113,13.321 37.057,13.551L36.212,16.702L28.577,3.52C28.109,2.71 27.435,2.038 26.625,1.57C25.814,1.103 24.895,0.857 23.96,0.857C23.024,0.857 22.105,1.103 21.294,1.57C20.484,2.038 19.811,2.71 19.342,3.52L14.192,12.413C13.971,12.82 13.918,13.298 14.044,13.744C14.169,14.19 14.464,14.57 14.866,14.802C15.267,15.034 15.744,15.1 16.193,14.986C16.642,14.872 17.029,14.587 17.272,14.192L22.421,5.298C22.574,5.026 22.798,4.8 23.069,4.643C23.339,4.487 23.647,4.406 23.96,4.409Z" fill="#FFFFFF"/>
</svg>
