<svg width="30" height="30" viewBox="0 0 30 30" fill="none" xmlns="http://www.w3.org/2000/svg" xmlns:xlink="http://www.w3.org/1999/xlink">
<path d="M0,15C0,11.022 1.58,7.206 4.393,4.393C7.206,1.58 11.022,0 15,0C18.978,0 22.794,1.58 25.607,4.393C28.42,7.206 30,11.022 30,15C30,18.978 28.42,22.794 25.607,25.607C22.794,28.42 18.978,30 15,30C11.022,30 7.206,28.42 4.393,25.607C1.58,22.794 0,18.978 0,15ZM14.144,21.42L22.78,10.624L21.22,9.376L13.856,18.578L8.64,14.232L7.36,15.768L14.144,21.42Z" clip-rule="evenodd" fill-rule="evenodd" fill="#08AE05"/>
</svg>
