<svg width="38" height="38" viewBox="0 0 38 38" fill="none" xmlns="http://www.w3.org/2000/svg" xmlns:xlink="http://www.w3.org/1999/xlink">
<path d="M35.129,24.426C35.739,24.909 36.625,24.807 37.109,24.197C37.592,23.587 37.49,22.701 36.88,22.218L35.129,24.426ZM34.443,22.083L35.319,20.979L35.319,20.979L34.443,22.083ZM34.443,16.105L35.319,17.209L35.319,17.209L34.443,16.105ZM36.88,15.971C37.49,15.487 37.592,14.601 37.109,13.991C36.625,13.381 35.739,13.279 35.129,13.762L36.88,15.971ZM3.06,13.762C2.45,13.279 1.563,13.381 1.08,13.991C0.596,14.601 0.699,15.487 1.308,15.971L3.06,13.762ZM3.745,16.105L2.87,17.209L2.87,17.209L3.745,16.105ZM3.745,22.083L2.87,20.979L2.87,20.979L3.745,22.083ZM1.308,22.218C0.699,22.701 0.596,23.587 1.08,24.197C1.563,24.807 2.45,24.909 3.06,24.426L1.308,22.218ZM22.533,35.799C22.419,36.569 22.952,37.285 23.721,37.399C24.491,37.512 25.208,36.98 25.321,36.21L22.533,35.799ZM24.22,34.015L22.826,33.809L22.826,33.809L24.22,34.015ZM25.486,30.178L26.191,31.398L26.193,31.397L25.486,30.178ZM29.44,30.999L29.959,29.689L29.958,29.689L29.44,30.999ZM30.788,33.049C31.512,33.336 32.331,32.982 32.617,32.258C32.904,31.535 32.55,30.716 31.827,30.429L30.788,33.049ZM15.656,2.389C15.769,1.619 15.237,0.903 14.467,0.79C13.697,0.676 12.981,1.209 12.868,1.978L15.656,2.389ZM13.969,4.174L15.363,4.38L15.363,4.379L13.969,4.174ZM12.702,8.01L11.998,6.79L11.995,6.791L12.702,8.01ZM8.749,7.189L8.23,8.499L8.23,8.5L8.749,7.189ZM7.401,5.139C6.677,4.852 5.858,5.206 5.571,5.93C5.284,6.653 5.639,7.472 6.362,7.759L7.401,5.139ZM5.454,30.421C4.724,30.691 4.35,31.501 4.62,32.231C4.889,32.961 5.7,33.334 6.43,33.065L5.454,30.421ZM7.952,31.001L7.466,29.678L7.464,29.679L7.952,31.001ZM13.568,34.015L12.177,34.235L12.177,34.235L13.568,34.015ZM12.492,36.225C12.614,36.994 13.336,37.518 14.105,37.396C14.873,37.274 15.398,36.552 15.276,35.784L12.492,36.225ZM32.734,7.768C33.464,7.499 33.838,6.689 33.569,5.958C33.3,5.228 32.49,4.854 31.76,5.123L32.734,7.768ZM30.236,7.186L29.749,5.863L29.748,5.864L30.236,7.186ZM24.62,4.174L26.012,3.953L26.012,3.953L24.62,4.174ZM25.696,1.963C25.574,1.194 24.852,0.67 24.084,0.792C23.315,0.914 22.791,1.636 22.913,2.405L25.696,1.963ZM32.247,20.503C33.025,20.503 33.656,19.872 33.656,19.094C33.656,18.316 33.025,17.685 32.247,17.685L32.247,20.503ZM5.942,17.685C5.164,17.685 4.533,18.316 4.533,19.094C4.533,19.872 5.164,20.503 5.942,20.503L5.942,17.685ZM24.453,31.078C24.845,31.75 25.708,31.977 26.381,31.585C27.053,31.193 27.28,30.33 26.888,29.658L24.453,31.078ZM13.735,7.111C13.343,6.438 12.48,6.211 11.808,6.603C11.136,6.996 10.909,7.858 11.301,8.531L13.735,7.111ZM26.888,8.531C27.28,7.858 27.053,6.996 26.381,6.603C25.708,6.211 24.845,6.438 24.453,7.111L26.888,8.531ZM11.301,29.658C10.909,30.33 11.136,31.193 11.808,31.585C12.48,31.977 13.343,31.75 13.735,31.078L11.301,29.658ZM36.88,22.218L35.319,20.979L33.568,23.188L35.129,24.426L36.88,22.218ZM35.319,20.979C34.397,20.249 33.822,19.788 33.459,19.412C33.108,19.046 33.186,18.989 33.186,19.094L30.368,19.094C30.368,20.075 30.891,20.807 31.428,21.366C31.954,21.912 32.712,22.509 33.568,23.188L35.319,20.979ZM33.186,19.094C33.186,19.2 33.108,19.142 33.459,18.777C33.822,18.4 34.397,17.94 35.319,17.209L33.568,15C32.712,15.679 31.954,16.276 31.428,16.822C30.891,17.381 30.368,18.113 30.368,19.094L33.186,19.094ZM35.319,17.209L36.88,15.971L35.129,13.762L33.568,15.001L35.319,17.209ZM1.308,15.971L2.87,17.209L4.621,15.001L3.06,13.762L1.308,15.971ZM2.87,17.209C3.792,17.94 4.367,18.4 4.73,18.777C5.081,19.142 5.002,19.2 5.002,19.094L7.821,19.094C7.821,18.113 7.298,17.381 6.76,16.822C6.234,16.276 5.477,15.679 4.621,15L2.87,17.209ZM5.002,19.094C5.002,18.989 5.081,19.047 4.73,19.412C4.367,19.788 3.792,20.249 2.87,20.979L4.621,23.188C5.477,22.509 6.234,21.912 6.76,21.366C7.298,20.807 7.821,20.075 7.821,19.094L5.002,19.094ZM2.87,20.979L1.308,22.218L3.06,24.426L4.621,23.188L2.87,20.979ZM25.321,36.21L25.614,34.22L22.826,33.809L22.533,35.799L25.321,36.21ZM25.614,34.221C25.787,33.047 25.899,32.311 26.046,31.803C26.188,31.312 26.279,31.347 26.191,31.398L24.782,28.957C23.929,29.45 23.554,30.272 23.338,31.022C23.126,31.756 22.987,32.718 22.826,33.809L25.614,34.221ZM26.193,31.397C26.104,31.449 26.117,31.351 26.613,31.474C27.126,31.601 27.818,31.873 28.921,32.309L29.958,29.689C28.935,29.284 28.032,28.922 27.291,28.739C26.534,28.551 25.633,28.464 24.779,28.959L26.193,31.397ZM28.92,32.309L30.788,33.049L31.827,30.429L29.959,29.689L28.92,32.309ZM12.868,1.978L12.574,3.968L15.363,4.379L15.656,2.389L12.868,1.978ZM12.575,3.968C12.401,5.141 12.289,5.877 12.143,6.385C12.001,6.877 11.91,6.841 11.998,6.79L13.407,9.231C14.26,8.738 14.634,7.916 14.851,7.166C15.063,6.432 15.202,5.47 15.363,4.38L12.575,3.968ZM11.995,6.791C12.084,6.74 12.072,6.837 11.576,6.714C11.063,6.587 10.371,6.316 9.268,5.879L8.23,8.5C9.254,8.905 10.156,9.266 10.897,9.45C11.655,9.637 12.555,9.724 13.409,9.229L11.995,6.791ZM9.268,5.879L7.401,5.139L6.362,7.759L8.23,8.499L9.268,5.879ZM6.43,33.065L8.44,32.323L7.464,29.679L5.454,30.421L6.43,33.065ZM8.439,32.323C9.62,31.889 10.379,31.613 10.946,31.482C11.216,31.42 11.376,31.408 11.468,31.411C11.509,31.412 11.531,31.417 11.538,31.419C11.541,31.42 11.543,31.42 11.543,31.42C11.543,31.42 11.543,31.42 11.544,31.421L12.872,28.935C12.012,28.475 11.107,28.553 10.313,28.736C9.531,28.916 8.573,29.271 7.466,29.678L8.439,32.323ZM11.544,31.421C11.544,31.421 11.543,31.42 11.54,31.418C11.538,31.417 11.536,31.415 11.534,31.414C11.531,31.411 11.537,31.415 11.551,31.436C11.583,31.483 11.643,31.595 11.716,31.829C11.871,32.331 11.99,33.06 12.177,34.235L14.96,33.794C14.788,32.707 14.638,31.737 14.408,30.996C14.169,30.224 13.76,29.409 12.872,28.935L11.544,31.421ZM12.177,34.235L12.492,36.225L15.276,35.784L14.96,33.794L12.177,34.235ZM31.76,5.123L29.749,5.863L30.723,8.508L32.734,7.768L31.76,5.123ZM29.748,5.864C28.568,6.3 27.809,6.576 27.242,6.707C26.972,6.769 26.812,6.781 26.721,6.778C26.679,6.776 26.658,6.771 26.651,6.77C26.649,6.769 26.648,6.769 26.647,6.769C26.647,6.768 26.646,6.768 26.646,6.768C26.646,6.768 26.646,6.768 26.646,6.768C26.646,6.768 26.646,6.768 26.646,6.768L25.315,9.253C26.175,9.713 27.08,9.636 27.874,9.453C28.658,9.273 29.616,8.917 30.725,8.507L29.748,5.864ZM26.646,6.768C26.646,6.768 26.647,6.769 26.65,6.771C26.652,6.772 26.654,6.774 26.655,6.775C26.659,6.778 26.653,6.774 26.639,6.753C26.606,6.705 26.546,6.593 26.473,6.358C26.318,5.857 26.198,5.128 26.012,3.953L23.228,4.394C23.401,5.482 23.551,6.451 23.781,7.193C24.02,7.965 24.429,8.778 25.315,9.253L26.646,6.768ZM26.012,3.953L25.696,1.963L22.913,2.405L23.228,4.394L26.012,3.953ZM32.247,17.685L5.942,17.685L5.942,20.503L32.247,20.503L32.247,17.685ZM26.888,29.658L13.735,7.111L11.301,8.531L24.453,31.078L26.888,29.658ZM24.453,7.111L11.301,29.658L13.735,31.078L26.888,8.531L24.453,7.111Z" fill="#FFFFFF"/>
</svg>
