<svg width="54" height="52" viewBox="0 0 54 52" fill="none" xmlns="http://www.w3.org/2000/svg" xmlns:xlink="http://www.w3.org/1999/xlink">
<path d="M2.988,18.125L2.988,18.09C2.988,14.686 3.996,11.358 5.885,8.526C7.774,5.694 10.46,3.485 13.603,2.178C16.746,0.871 20.206,0.524 23.547,1.181C26.887,1.838 29.957,3.47 32.371,5.87C34.271,4.933 36.392,4.539 38.501,4.731C40.61,4.924 42.625,5.696 44.323,6.962C46.021,8.228 47.336,9.939 48.123,11.905C48.909,13.872 49.137,16.018 48.781,18.105C49.305,18.154 49.813,18.31 50.274,18.564C50.735,18.818 51.139,19.164 51.46,19.581C51.781,19.998 52.013,20.476 52.141,20.987C52.269,21.497 52.291,22.028 52.204,22.548C50.473,32.96 46.192,39.55 39.368,42.323L39.368,44.896C39.368,46.42 38.763,47.881 37.685,48.958C36.608,50.035 35.147,50.641 33.624,50.641L18.306,50.641C16.782,50.641 15.321,50.035 14.244,48.958C13.167,47.881 12.561,46.42 12.561,44.896L12.561,42.323C5.737,39.55 1.456,32.96 -0.275,22.548C-0.359,22.042 -0.34,21.525 -0.22,21.027C-0.1,20.529 0.118,20.06 0.422,19.648C0.727,19.236 1.11,18.89 1.551,18.628C1.992,18.367 2.48,18.197 2.988,18.128L2.988,18.125ZM6.817,18.09L10.647,18.09C10.647,15.551 11.655,13.116 13.451,11.32C15.246,9.525 17.681,8.516 20.22,8.516C22.76,8.516 25.195,9.525 26.99,11.32C28.785,13.116 29.794,15.551 29.794,18.09L33.624,18.09C33.624,14.535 32.211,11.126 29.698,8.613C27.184,6.099 23.775,4.687 20.22,4.687C16.666,4.687 13.256,6.099 10.743,8.613C8.229,11.126 6.817,14.535 6.817,18.09ZM14.476,18.09L25.965,18.09C25.965,16.567 25.359,15.106 24.282,14.028C23.205,12.951 21.744,12.346 20.22,12.346C18.697,12.346 17.236,12.951 16.159,14.028C15.081,15.106 14.476,16.567 14.476,18.09ZM40.769,18.09L44.871,18.09C45.16,16.958 45.187,15.776 44.95,14.632C44.712,13.488 44.217,12.414 43.502,11.49C42.786,10.567 41.87,9.819 40.821,9.304C39.773,8.788 38.621,8.519 37.453,8.516C36.534,8.516 35.661,8.677 34.849,8.972C35.527,10.06 36.086,11.231 36.515,12.461C37.244,12.28 38.011,12.317 38.719,12.568C39.427,12.819 40.047,13.272 40.5,13.871C40.953,14.471 41.22,15.19 41.268,15.94C41.316,16.69 41.142,17.438 40.769,18.09ZM35.538,42.982L16.391,42.982L16.391,44.896C16.391,45.404 16.593,45.891 16.952,46.25C17.311,46.609 17.798,46.811 18.306,46.811L33.624,46.811C34.131,46.811 34.618,46.609 34.978,46.25C35.337,45.891 35.538,45.404 35.538,44.896L35.538,42.982ZM15.043,39.152L36.886,39.152C42.96,37.199 46.805,31.677 48.428,21.92L3.501,21.92C5.125,31.677 8.969,37.199 15.043,39.152Z" fill="#FFFFFF" stroke="#A9F9A1" stroke-width="0.249" stroke-miterlimit="3.999327"/>
</svg>
