<svg width="52" height="52" viewBox="0 0 52 52" fill="none" xmlns="http://www.w3.org/2000/svg" xmlns:xlink="http://www.w3.org/1999/xlink">
<path d="M5.108,50.952C3.632,50.952 2.4,50.458 1.413,49.471C0.426,48.484 -0.068,47.252 -0.07,45.774L-0.07,4.86C-0.07,3.384 0.424,2.152 1.413,1.165C2.402,0.178 3.634,-0.316 5.108,-0.318L46.025,-0.318C47.499,-0.318 48.73,0.176 49.719,1.165C50.709,2.154 51.202,3.386 51.2,4.86L51.2,45.777C51.2,47.251 50.706,48.482 49.719,49.471C48.732,50.461 47.5,50.954 46.022,50.952L5.108,50.952ZM5.108,47.747L46.025,47.747C46.516,47.747 46.968,47.542 47.38,47.132C47.793,46.722 47.998,46.269 47.995,45.774L47.995,4.86C47.995,4.366 47.79,3.914 47.38,3.501C46.97,3.089 46.517,2.884 46.022,2.886L5.108,2.886C4.615,2.886 4.162,3.091 3.749,3.501C3.337,3.911 3.132,4.364 3.134,4.86L3.134,45.777C3.134,46.268 3.339,46.72 3.749,47.132C4.159,47.545 4.611,47.75 5.105,47.747M11.145,39.736L40.478,39.736L31.419,27.656L23.04,38.256L17.432,31.479L11.145,39.736Z" fill="#BDBDBD"/>
</svg>
