<svg width="52" height="50" viewBox="0 0 52 50" fill="none" xmlns="http://www.w3.org/2000/svg" xmlns:xlink="http://www.w3.org/1999/xlink">
<path d="M27.798,11.242L29.038,11.242L27.798,11.242ZM5.591,11.242L4.351,11.242L5.591,11.242ZM27.849,26.112L28.711,25.221L28.709,25.219L27.849,26.112ZM1.149,47.238L-0.09,47.238L-0.09,48.478L1.149,48.478L1.149,47.238ZM34.883,45.121L34.156,46.125L35.117,46.819L35.853,45.891L34.883,45.121ZM16.695,23.068C19.95,23.068 23.083,21.836 25.401,19.625L23.691,17.831C21.845,19.591 19.329,20.589 16.695,20.589L16.695,23.068ZM25.401,19.625C27.722,17.412 29.038,14.398 29.038,11.242L26.559,11.242C26.559,13.701 25.535,16.073 23.691,17.831L25.401,19.625ZM29.038,11.242C29.038,8.085 27.722,5.071 25.401,2.858L23.691,4.652C25.535,6.41 26.559,8.782 26.559,11.242L29.038,11.242ZM25.401,2.858C23.083,0.647 19.95,-0.585 16.695,-0.585L16.695,1.894C19.329,1.894 21.845,2.892 23.691,4.652L25.401,2.858ZM16.695,-0.585C13.44,-0.585 10.307,0.647 7.988,2.858L9.698,4.652C11.544,2.892 14.06,1.894 16.695,1.894L16.695,-0.585ZM7.988,2.858C5.667,5.071 4.351,8.085 4.351,11.242L6.83,11.242C6.83,8.782 7.855,6.41 9.698,4.652L7.988,2.858ZM4.351,11.242C4.351,14.398 5.667,17.412 7.988,19.625L9.698,17.831C7.855,16.073 6.83,13.701 6.83,11.242L4.351,11.242ZM7.988,19.625C10.307,21.836 13.44,23.068 16.695,23.068L16.695,20.589C14.06,20.589 11.544,19.591 9.698,17.831L7.988,19.625ZM32.621,31.376C31.839,29.056 30.497,26.948 28.711,25.221L26.988,27.004C28.496,28.461 29.619,30.231 30.273,32.169L32.621,31.376ZM28.709,25.219C25.687,22.31 21.467,20.589 16.695,20.589L16.695,23.068C20.863,23.068 24.456,24.566 26.99,27.005L28.709,25.219ZM16.695,20.589C7.183,20.589 -0.09,27.442 -0.09,36.651L2.389,36.651C2.389,28.921 8.44,23.068 16.695,23.068L16.695,20.589ZM-0.09,36.651L-0.09,47.238L2.389,47.238L2.389,36.651L-0.09,36.651ZM1.149,48.478L23.357,48.478L23.357,45.999L1.149,45.999L1.149,48.478ZM24.852,39.4L34.156,46.125L35.609,44.116L26.304,37.391L24.852,39.4ZM35.853,45.891L50.977,26.834L49.035,25.293L33.912,44.35L35.853,45.891Z" fill="#5B851F"/>
</svg>
