<svg width="216" height="216" viewBox="0 0 216 216" fill="none" xmlns="http://www.w3.org/2000/svg" xmlns:xlink="http://www.w3.org/1999/xlink">
<path d="M21.296,216C15.077,216 9.889,213.92 5.731,209.762C1.573,205.604 -0.511,200.412 -0.52,194.184L-0.52,21.816C-0.52,15.597 1.564,10.409 5.731,6.25C9.898,2.092 15.086,0.009 21.296,0L193.678,0C199.888,0 205.076,2.084 209.242,6.25C213.41,10.418 215.488,15.606 215.48,21.816L215.48,194.197C215.48,200.408 213.4,205.596 209.242,209.762C205.084,213.93 199.892,216.008 193.664,216L21.296,216ZM21.296,202.5L193.678,202.5C195.748,202.5 197.651,201.636 199.388,199.908C201.124,198.18 201.988,196.272 201.98,194.184L201.98,21.816C201.98,19.737 201.116,17.829 199.388,16.092C197.66,14.355 195.752,13.491 193.664,13.5L21.296,13.5C19.217,13.5 17.309,14.364 15.572,16.092C13.835,17.82 12.971,19.728 12.98,21.816L12.98,194.197C12.98,196.267 13.844,198.171 15.572,199.908C17.3,201.644 19.204,202.508 21.283,202.5M46.73,168.75L170.309,168.75L132.145,117.855L96.842,162.513L73.217,133.96L46.73,168.75Z" fill="#D1D1D1"/>
</svg>
