<svg width="52" height="52" viewBox="0 0 52 52" fill="none" xmlns="http://www.w3.org/2000/svg" xmlns:xlink="http://www.w3.org/1999/xlink">
<path d="M4.654,50.952C3.178,50.952 1.946,50.458 0.959,49.471C-0.028,48.484 -0.522,47.252 -0.524,45.774L-0.524,4.86C-0.524,3.384 -0.03,2.152 0.959,1.165C1.948,0.178 3.18,-0.316 4.654,-0.318L45.571,-0.318C47.045,-0.318 48.276,0.176 49.265,1.165C50.255,2.154 50.748,3.386 50.746,4.86L50.746,45.777C50.746,47.251 50.252,48.482 49.265,49.471C48.278,50.461 47.046,50.954 45.568,50.952L4.654,50.952ZM4.654,47.747L45.571,47.747C46.062,47.747 46.514,47.542 46.926,47.132C47.339,46.722 47.544,46.269 47.541,45.774L47.541,4.86C47.541,4.366 47.336,3.914 46.926,3.501C46.516,3.089 46.063,2.884 45.568,2.886L4.654,2.886C4.16,2.886 3.708,3.091 3.295,3.501C2.883,3.911 2.678,4.364 2.68,4.86L2.68,45.777C2.68,46.268 2.885,46.72 3.295,47.132C3.705,47.545 4.157,47.75 4.651,47.747M10.691,39.736L40.024,39.736L30.965,27.656L22.586,38.256L16.978,31.479L10.691,39.736Z" fill="#BDBDBD"/>
</svg>
