<svg width="38" height="24" viewBox="0 0 38 24" fill="none" xmlns="http://www.w3.org/2000/svg" xmlns:xlink="http://www.w3.org/1999/xlink">
<path d="M4.68,1.138C3.508,-0.034 1.609,-0.034 0.437,1.138C-0.734,2.309 -0.734,4.209 0.437,5.38L4.68,1.138ZM18.679,19.38L16.558,21.501C17.73,22.673 19.629,22.673 20.801,21.501L18.679,19.38ZM36.921,5.38C38.093,4.209 38.093,2.309 36.921,1.138C35.75,-0.034 33.85,-0.034 32.679,1.138L36.921,5.38ZM0.437,5.38L16.558,21.501L20.801,17.259L4.68,1.138L0.437,5.38ZM20.801,21.501L36.921,5.38L32.679,1.138L16.558,17.259L20.801,21.501Z" transform="rotate(-180 18.679 11.32)" fill="#3D3D3D"/>
</svg>
