<svg width="48" height="56" viewBox="0 0 48 56" fill="none" xmlns="http://www.w3.org/2000/svg" xmlns:xlink="http://www.w3.org/1999/xlink">
<path d="M40.456,8.031C39.201,8.03 37.972,8.391 36.916,9.071L36.916,6.514C36.916,4.892 36.317,3.326 35.232,2.119C34.148,0.913 32.656,0.149 31.042,-0.024C29.429,-0.197 27.809,0.233 26.493,1.183C25.178,2.133 24.26,3.535 23.916,5.121C22.928,4.451 21.776,4.062 20.583,3.998C19.391,3.933 18.203,4.194 17.148,4.753C16.093,5.313 15.21,6.148 14.594,7.171C13.978,8.194 13.653,9.366 13.652,10.56L13.652,28.514L11.748,25.454C10.881,23.941 9.448,22.835 7.765,22.379C6.082,21.923 4.286,22.154 2.774,23.021C1.261,23.889 0.155,25.322 -0.301,27.005C-0.757,28.688 -0.526,30.483 0.341,31.996C8.281,48.743 12.77,55.571 25.284,55.571C31.05,55.564 36.577,53.271 40.654,49.194C44.731,45.117 47.024,39.59 47.031,33.824L47.031,14.606C47.031,13.743 46.861,12.888 46.531,12.09C46.2,11.292 45.716,10.568 45.105,9.957C44.495,9.346 43.77,8.862 42.972,8.532C42.175,8.201 41.32,8.031 40.456,8.031ZM43.997,33.824C43.991,38.785 42.017,43.541 38.509,47.049C35.001,50.557 30.245,52.53 25.284,52.536C19.974,52.536 16.558,51.259 13.463,48.124C10.064,44.697 6.961,38.881 3.057,30.645L2.999,30.537C2.529,29.724 2.402,28.757 2.645,27.85C2.888,26.943 3.482,26.17 4.295,25.701C5.108,25.231 6.074,25.104 6.981,25.347C7.888,25.59 8.661,26.183 9.131,26.997L9.156,27.04L13.88,34.626C14.054,34.906 14.314,35.122 14.622,35.242C14.93,35.361 15.269,35.376 15.586,35.285C15.903,35.195 16.183,35.003 16.381,34.739C16.58,34.475 16.687,34.154 16.687,33.824L16.687,10.56C16.687,9.621 17.06,8.721 17.723,8.057C18.387,7.393 19.288,7.02 20.227,7.02C21.166,7.02 22.066,7.393 22.73,8.057C23.394,8.721 23.767,9.621 23.767,10.56L23.767,25.732C23.767,26.135 23.927,26.52 24.211,26.805C24.496,27.09 24.882,27.249 25.284,27.249C25.687,27.249 26.073,27.09 26.357,26.805C26.642,26.52 26.801,26.135 26.801,25.732L26.801,6.514C26.801,5.575 27.174,4.675 27.838,4.011C28.502,3.347 29.403,2.974 30.342,2.974C31.281,2.974 32.181,3.347 32.845,4.011C33.509,4.675 33.882,5.575 33.882,6.514L33.882,25.732C33.882,26.135 34.042,26.52 34.326,26.805C34.611,27.09 34.997,27.249 35.399,27.249C35.801,27.249 36.187,27.09 36.472,26.805C36.756,26.52 36.916,26.135 36.916,25.732L36.916,14.606C36.916,13.667 37.289,12.767 37.953,12.103C38.617,11.439 39.518,11.066 40.456,11.066C41.395,11.066 42.296,11.439 42.96,12.103C43.624,12.767 43.997,13.667 43.997,14.606L43.997,33.824Z" fill="#FFFFFF"/>
</svg>
