<svg width="48" height="38" viewBox="0 0 48 38" fill="none" xmlns="http://www.w3.org/2000/svg" xmlns:xlink="http://www.w3.org/1999/xlink">
<path d="M47.553,3.913C45.77,4.702 43.888,5.195 41.906,5.491C43.888,4.308 45.473,2.434 46.166,0.167C44.284,1.251 42.203,2.04 39.925,2.533C38.142,0.66 35.566,-0.523 32.792,-0.523C27.442,-0.523 23.083,3.815 23.083,9.139C23.083,9.928 23.182,10.618 23.38,11.308C15.356,10.914 8.124,7.068 3.269,1.153C2.477,2.632 1.981,4.209 1.981,5.984C1.981,9.336 3.666,12.294 6.34,14.069C4.755,13.97 3.269,13.576 1.882,12.886L1.882,12.984C1.882,17.717 5.251,21.661 9.709,22.548C8.916,22.745 8.025,22.844 7.133,22.844C6.539,22.844 5.845,22.745 5.251,22.647C6.539,26.492 10.105,29.351 14.365,29.351C10.997,31.915 6.836,33.492 2.279,33.492C1.486,33.492 0.693,33.492 0,33.394C4.359,36.154 9.412,37.732 14.959,37.732C32.891,37.732 42.699,22.942 42.699,10.125C42.699,9.731 42.699,9.238 42.699,8.843C44.581,7.561 46.265,5.885 47.553,3.913Z" fill="#363636"/>
</svg>
