<svg width="52" height="52" viewBox="0 0 52 52" fill="none" xmlns="http://www.w3.org/2000/svg" xmlns:xlink="http://www.w3.org/1999/xlink">
<path d="M5.881,50.952C4.405,50.952 3.173,50.458 2.186,49.471C1.199,48.484 0.705,47.252 0.703,45.774L0.703,4.86C0.703,3.384 1.197,2.152 2.186,1.165C3.175,0.178 4.407,-0.316 5.881,-0.318L46.798,-0.318C48.272,-0.318 49.503,0.176 50.492,1.165C51.482,2.154 51.975,3.386 51.973,4.86L51.973,45.777C51.973,47.251 51.479,48.482 50.492,49.471C49.505,50.461 48.273,50.954 46.795,50.952L5.881,50.952ZM5.881,47.747L46.798,47.747C47.289,47.747 47.741,47.542 48.153,47.132C48.566,46.722 48.771,46.269 48.768,45.774L48.768,4.86C48.768,4.366 48.563,3.914 48.153,3.501C47.743,3.089 47.29,2.884 46.795,2.886L5.881,2.886C5.387,2.886 4.935,3.091 4.522,3.501C4.11,3.911 3.905,4.364 3.907,4.86L3.907,45.777C3.907,46.268 4.112,46.72 4.522,47.132C4.932,47.545 5.384,47.75 5.878,47.747M11.918,39.736L41.251,39.736L32.192,27.656L23.813,38.256L18.205,31.479L11.918,39.736Z" fill="#BDBDBD"/>
</svg>
