<svg width="50" height="42" viewBox="0 0 50 42" fill="none" xmlns="http://www.w3.org/2000/svg" xmlns:xlink="http://www.w3.org/1999/xlink">
<path d="M41.984,18.356L2.453,18.356C1.889,18.356 1.348,18.58 0.949,18.979C0.55,19.378 0.326,19.919 0.326,20.483C0.326,21.047 0.55,21.588 0.949,21.987C1.348,22.386 1.889,22.61 2.453,22.61L41.984,22.61L26.47,38.119C26.071,38.519 25.847,39.06 25.847,39.625C25.847,40.19 26.071,40.732 26.47,41.131C26.87,41.531 27.411,41.755 27.976,41.755C28.541,41.755 29.083,41.531 29.482,41.131L48.624,21.989C48.823,21.791 48.98,21.557 49.087,21.298C49.194,21.04 49.249,20.763 49.249,20.483C49.249,20.203 49.194,19.926 49.087,19.668C48.98,19.409 48.823,19.175 48.624,18.977L29.482,-0.165C29.083,-0.565 28.541,-0.789 27.976,-0.789C27.411,-0.789 26.87,-0.565 26.47,-0.165C26.071,0.234 25.847,0.776 25.847,1.341C25.847,1.905 26.071,2.447 26.47,2.846L41.984,18.356Z" fill="#FFFFFF" stroke="#FFFFFF" stroke-width="1.134" stroke-miterlimit="3.999327"/>
</svg>
