<svg width="102" height="102" viewBox="0 0 102 102" fill="none" xmlns="http://www.w3.org/2000/svg" xmlns:xlink="http://www.w3.org/1999/xlink">
<path d="M10.156,100.552C7.261,100.552 4.845,99.584 2.91,97.649C0.974,95.713 0.004,93.296 0,90.396L0,10.156C0,7.261 0.97,4.845 2.91,2.91C4.85,0.974 7.265,0.004 10.156,0L90.403,0C93.293,0 95.709,0.97 97.649,2.91C99.588,4.85 100.556,7.265 100.552,10.156L100.552,90.403C100.552,93.293 99.584,95.709 97.649,97.649C95.713,99.588 93.296,100.556 90.396,100.552L10.156,100.552ZM10.156,94.268L90.403,94.268C91.366,94.268 92.252,93.865 93.061,93.061C93.869,92.256 94.272,91.368 94.268,90.396L94.268,10.156C94.268,9.188 93.865,8.3 93.061,7.491C92.256,6.683 91.368,6.28 90.396,6.284L10.156,6.284C9.188,6.284 8.3,6.687 7.491,7.491C6.683,8.296 6.28,9.184 6.284,10.156L6.284,90.403C6.284,91.366 6.687,92.252 7.491,93.061C8.296,93.869 9.182,94.272 10.149,94.268M21.996,78.556L79.524,78.556L61.758,54.864L45.324,75.653L34.326,62.361L21.996,78.556Z" fill="#BDBDBD"/>
</svg>
