<svg width="28" height="24" viewBox="0 0 28 24" fill="none" xmlns="http://www.w3.org/2000/svg" xmlns:xlink="http://www.w3.org/1999/xlink">
<path d="M14.812,0.851L8.041,7.622C7.589,8.074 7.332,8.698 7.332,9.345L7.332,21.555C7.332,22.9 8.432,24 9.777,24L20.777,24C21.754,24 22.634,23.413 23.025,22.521L27.01,13.22C28.037,10.8 26.264,8.111 23.637,8.111L16.731,8.111L17.892,2.513C18.014,1.902 17.831,1.279 17.391,0.839C16.67,0.13 15.521,0.13 14.812,0.851L14.812,0.851ZM2.443,24C3.788,24 4.888,22.9 4.888,21.555L4.888,11.778C4.888,10.433 3.788,9.333 2.443,9.333C1.099,9.333 -0.001,10.433 -0.001,11.778L-0.001,21.555C-0.001,22.9 1.099,24 2.443,24Z" fill="#FFFFFF"/>
</svg>
