<svg width="40" height="24" viewBox="0 0 40 24" fill="none" xmlns="http://www.w3.org/2000/svg" xmlns:xlink="http://www.w3.org/1999/xlink">
<path d="M5.32,1.138C4.149,-0.033 2.249,-0.033 1.078,1.138C-0.094,2.31 -0.094,4.209 1.078,5.381L5.32,1.138ZM19.32,19.381L17.198,21.502C18.37,22.673 20.269,22.673 21.441,21.502L19.32,19.381ZM37.562,5.381C38.733,4.209 38.733,2.31 37.562,1.138C36.39,-0.033 34.491,-0.033 33.319,1.138L37.562,5.381ZM1.078,5.381L17.198,21.502L21.441,17.259L5.32,1.138L1.078,5.381ZM21.441,21.502L37.562,5.381L33.319,1.138L17.198,17.259L21.441,21.502Z" transform="rotate(180 19.32 11.32)" fill="#3D3D3D"/>
</svg>
