<svg width="52" height="52" viewBox="0 0 52 52" fill="none" xmlns="http://www.w3.org/2000/svg" xmlns:xlink="http://www.w3.org/1999/xlink">
<path d="M4.495,50.994C3.019,50.994 1.787,50.5 0.8,49.513C-0.187,48.526 -0.681,47.294 -0.684,45.816L-0.684,4.902C-0.684,3.426 -0.189,2.194 0.8,1.207C1.789,0.22 3.021,-0.274 4.495,-0.276L45.412,-0.276C46.886,-0.276 48.117,0.218 49.106,1.207C50.095,2.196 50.589,3.428 50.587,4.902L50.587,45.819C50.587,47.293 50.093,48.524 49.106,49.513C48.119,50.503 46.887,50.996 45.408,50.994L4.495,50.994ZM4.495,47.789L45.412,47.789C45.903,47.789 46.355,47.584 46.767,47.174C47.179,46.764 47.384,46.311 47.382,45.816L47.382,4.902C47.382,4.408 47.177,3.956 46.767,3.543C46.357,3.131 45.904,2.926 45.408,2.928L4.495,2.928C4.001,2.928 3.548,3.133 3.136,3.543C2.724,3.953 2.519,4.406 2.521,4.902L2.521,45.819C2.521,46.31 2.726,46.762 3.136,47.174C3.546,47.587 3.998,47.792 4.491,47.789M10.532,39.778L39.865,39.778L30.806,27.698L22.426,38.298L16.819,31.521L10.532,39.778Z" fill="#BDBDBD"/>
</svg>
