<svg width="86" height="94" viewBox="0 0 86 94" fill="none" xmlns="http://www.w3.org/2000/svg" xmlns:xlink="http://www.w3.org/1999/xlink">
<path d="M45.345,14.82C45.345,12.702 44.853,10.614 43.905,8.72C43.087,7.083 42.606,5.298 42.492,3.471L42.218,-0.909L41.945,3.471C41.83,5.297 41.35,7.083 40.531,8.72C39.584,10.614 39.091,12.703 39.091,14.82L39.091,77.18C39.091,79.298 39.584,81.386 40.531,83.28C41.35,84.917 41.83,86.703 41.945,88.53L42.218,92.909L42.492,88.529C42.606,86.703 43.087,84.917 43.905,83.28C44.853,81.386 45.345,79.298 45.345,77.18L45.345,14.82ZM28.269,14.975C29.216,16.869 29.709,18.957 29.709,21.075L29.709,70.925C29.709,73.043 29.216,75.132 28.269,77.026C27.45,78.663 26.97,80.448 26.855,82.275L26.582,86.655L26.308,82.275C26.194,80.448 25.713,78.663 24.895,77.026C23.947,75.132 23.455,73.043 23.455,70.925L23.455,21.075C23.455,18.957 23.947,16.869 24.895,14.975C25.713,13.337 26.194,11.552 26.308,9.725L26.582,5.346L26.855,9.725C26.97,11.552 27.45,13.337 28.269,14.975ZM21.891,27.329C21.891,25.212 21.398,23.123 20.451,21.229C19.632,19.592 19.152,17.807 19.037,15.98L18.764,11.6L18.49,15.98C18.376,17.807 17.895,19.592 17.076,21.229C16.129,23.123 15.636,25.212 15.636,27.329L15.636,64.671C15.636,66.788 16.129,68.877 17.076,70.771C17.895,72.408 18.376,74.193 18.49,76.02L18.764,80.4L19.037,76.02C19.152,74.193 19.632,72.408 20.451,70.771C21.398,68.877 21.891,66.788 21.891,64.671L21.891,27.329ZM12.633,33.738C13.58,35.632 14.073,37.721 14.073,39.838L14.073,52.162C14.073,54.279 13.58,56.368 12.633,58.262C11.814,59.899 11.333,61.684 11.219,63.511L10.945,67.891L10.672,63.511C10.558,61.684 10.077,59.899 9.258,58.262C8.311,56.368 7.818,54.279 7.818,52.162L7.818,39.838C7.818,37.721 8.311,35.632 9.258,33.738C10.077,32.101 10.558,30.316 10.672,28.489L10.945,24.109L11.219,28.489C11.333,30.316 11.814,32.101 12.633,33.738ZM6.254,46L6.255,46.093L6.255,45.907L6.254,46ZM0,46.093L0,46C0.015,48.086 0.507,50.141 1.44,52.007C2.259,53.645 2.739,55.43 2.854,57.257L3.127,61.636L3.401,57.257C3.515,55.43 3.996,53.645 4.815,52.007C5.748,50.141 6.24,48.086 6.254,46C6.24,43.914 5.748,41.859 4.815,39.993C3.996,38.355 3.515,36.57 3.401,34.743L3.127,30.364L2.854,34.743C2.739,36.57 2.259,38.355 1.44,39.993C0.507,41.859 0.015,43.914 0,46L0,45.907L0,46.093ZM36.087,8.72C37.034,10.614 37.527,12.703 37.527,14.82L37.527,77.18C37.527,79.298 37.034,81.386 36.087,83.28C35.269,84.917 34.788,86.703 34.674,88.529L34.4,92.909L34.126,88.529C34.012,86.703 33.531,84.917 32.713,83.28C31.766,81.386 31.273,79.298 31.273,77.18L31.273,14.82C31.273,12.703 31.766,10.614 32.713,8.72C33.531,7.083 34.012,5.298 34.126,3.471L34.4,-0.909L34.674,3.471C34.788,5.298 35.269,7.083 36.087,8.72ZM51.724,8.72C52.671,10.614 53.164,12.703 53.164,14.82L53.164,77.18C53.164,79.298 52.671,81.386 51.724,83.28C50.905,84.917 50.424,86.703 50.31,88.529L50.036,92.909L49.763,88.529C49.648,86.703 49.168,84.917 48.349,83.28C47.402,81.386 46.909,79.298 46.909,77.18L46.909,14.82C46.909,12.703 47.402,10.614 48.349,8.72C49.168,7.083 49.648,5.298 49.763,3.471L50.036,-0.909L50.31,3.471C50.424,5.298 50.905,7.083 51.724,8.72ZM60.982,21.075C60.982,18.957 60.489,16.869 59.542,14.975C58.723,13.337 58.243,11.552 58.128,9.725L57.855,5.346L57.581,9.725C57.467,11.552 56.986,13.337 56.167,14.975C55.22,16.869 54.727,18.957 54.727,21.075L54.727,70.925C54.727,73.043 55.22,75.132 56.167,77.026C56.986,78.663 57.467,80.448 57.581,82.275L57.855,86.655L58.128,82.275C58.243,80.448 58.723,78.663 59.542,77.026C60.489,75.132 60.982,73.043 60.982,70.925L60.982,21.075ZM67.36,21.229C68.307,23.123 68.8,25.212 68.8,27.329L68.8,64.671C68.8,66.788 68.307,68.877 67.36,70.771C66.541,72.408 66.061,74.193 65.946,76.02L65.673,80.4L65.399,76.02C65.285,74.193 64.804,72.408 63.986,70.771C63.039,68.877 62.545,66.788 62.545,64.671L62.545,27.329C62.545,25.212 63.039,23.123 63.986,21.229C64.804,19.592 65.285,17.807 65.399,15.98L65.673,11.6L65.946,15.98C66.061,17.807 66.541,19.592 67.36,21.229ZM76.618,39.838C76.618,37.721 76.125,35.632 75.178,33.738C74.36,32.101 73.879,30.316 73.765,28.489L73.491,24.109L73.217,28.489C73.103,30.316 72.622,32.101 71.804,33.738C70.857,35.632 70.364,37.721 70.364,39.838L70.364,52.162C70.364,54.279 70.857,56.368 71.804,58.262C72.622,59.899 73.103,61.684 73.217,63.511L73.491,67.891L73.765,63.511C73.879,61.684 74.36,59.899 75.178,58.262C76.125,56.368 76.618,54.279 76.618,52.162L76.618,39.838ZM84.436,46C84.436,46.031 84.436,46.062 84.436,46.093L84.436,45.907C84.436,45.938 84.436,45.969 84.436,46ZM78.182,46C78.196,48.086 78.689,50.141 79.622,52.007C80.44,53.645 80.921,55.43 81.035,57.257L81.309,61.636L81.583,57.257C81.697,55.43 82.178,53.645 82.996,52.007C83.93,50.141 84.422,48.086 84.436,46C84.422,43.914 83.93,41.859 82.996,39.993C82.178,38.355 81.697,36.57 81.583,34.743L81.309,30.364L81.035,34.743C80.921,36.57 80.44,38.355 79.622,39.993C78.689,41.859 78.196,43.914 78.182,46ZM78.182,46C78.182,45.969 78.182,45.938 78.182,45.907L78.182,46.093C78.182,46.062 78.182,46.031 78.182,46Z" clip-rule="evenodd" fill-rule="evenodd" fill="#7B7B7B"/>
</svg>
