<svg width="216" height="216" viewBox="0 0 216 216" fill="none" xmlns="http://www.w3.org/2000/svg" xmlns:xlink="http://www.w3.org/1999/xlink">
<path d="M21.816,216C15.597,216 10.408,213.92 6.251,209.762C2.092,205.604 0.009,200.412 0,194.184L0,21.816C0,15.597 2.083,10.409 6.251,6.251C10.417,2.092 15.606,0.009 21.816,0L194.197,0C200.408,0 205.596,2.083 209.762,6.251C213.93,10.418 216.008,15.606 216,21.816L216,194.197C216,200.408 213.92,205.596 209.762,209.762C205.604,213.93 200.412,216.008 194.184,216L21.816,216ZM21.816,202.5L194.197,202.5C196.267,202.5 198.171,201.636 199.908,199.908C201.644,198.18 202.508,196.272 202.5,194.184L202.5,21.816C202.5,19.737 201.636,17.829 199.908,16.092C198.18,14.355 196.272,13.491 194.184,13.5L21.816,13.5C19.737,13.5 17.829,14.364 16.092,16.092C14.355,17.82 13.491,19.728 13.5,21.816L13.5,194.197C13.5,196.267 14.364,198.171 16.092,199.908C17.82,201.644 19.724,202.508 21.802,202.5M47.25,168.75L170.829,168.75L132.664,117.855L97.362,162.513L73.737,133.96L47.25,168.75Z" fill="#D1D1D1"/>
</svg>
