<svg width="52" height="52" viewBox="0 0 52 52" fill="none" xmlns="http://www.w3.org/2000/svg" xmlns:xlink="http://www.w3.org/1999/xlink">
<path d="M5.881,50.994C4.405,50.994 3.174,50.5 2.187,49.513C1.2,48.526 0.705,47.294 0.703,45.816L0.703,4.902C0.703,3.426 1.198,2.194 2.187,1.207C3.176,0.22 4.407,-0.274 5.881,-0.276L46.798,-0.276C48.272,-0.276 49.504,0.218 50.493,1.207C51.482,2.196 51.976,3.428 51.973,4.902L51.973,45.819C51.973,47.293 51.48,48.524 50.493,49.513C49.506,50.503 48.273,50.996 46.795,50.994L5.881,50.994ZM5.881,47.789L46.798,47.789C47.29,47.789 47.742,47.584 48.154,47.174C48.566,46.764 48.771,46.311 48.769,45.816L48.769,4.902C48.769,4.408 48.564,3.956 48.154,3.543C47.744,3.131 47.291,2.926 46.795,2.928L5.881,2.928C5.388,2.928 4.935,3.133 4.523,3.543C4.11,3.953 3.905,4.406 3.908,4.902L3.908,45.819C3.908,46.31 4.113,46.762 4.523,47.174C4.933,47.587 5.385,47.792 5.878,47.789M11.918,39.778L41.252,39.778L32.193,27.698L23.813,38.298L18.206,31.521L11.918,39.778Z" fill="#BDBDBD"/>
</svg>
