<svg width="76" height="96" viewBox="0 0 76 96" fill="none" xmlns="http://www.w3.org/2000/svg" xmlns:xlink="http://www.w3.org/1999/xlink">
<path d="M61.872,18.377C54.198,6.872 44.947,0 37.125,0C29.303,0 20.052,6.872 12.378,18.377C4.514,30.181 0,44.394 0,57.375C0,67.221 3.911,76.664 10.874,83.626C17.836,90.589 27.279,94.5 37.125,94.5C46.971,94.5 56.414,90.589 63.376,83.626C70.339,76.664 74.25,67.221 74.25,57.375C74.25,44.394 69.736,30.181 61.872,18.377ZM37.125,87.75C29.072,87.741 21.351,84.538 15.657,78.844C9.962,73.149 6.759,65.428 6.75,57.375C6.75,45.693 10.851,32.843 17.997,22.123C24.127,12.926 31.814,6.75 37.125,6.75C41.133,6.75 46.491,10.264 51.511,15.938L34.594,34.876C34.207,35.309 33.938,35.834 33.813,36.401C33.688,36.968 33.712,37.558 33.881,38.113C34.051,38.668 34.361,39.17 34.781,39.571C35.202,39.971 35.718,40.256 36.281,40.399L46.659,42.993L43.917,56.713C43.742,57.59 43.922,58.501 44.418,59.245C44.914,59.989 45.685,60.506 46.562,60.682C46.789,60.729 47.019,60.752 47.25,60.75C48.029,60.749 48.784,60.478 49.386,59.983C49.988,59.489 50.4,58.801 50.553,58.037L53.928,41.162C54.098,40.312 53.935,39.429 53.471,38.696C53.008,37.963 52.28,37.437 51.439,37.226L43.356,35.205L55.73,21.347C55.907,21.604 56.08,21.862 56.253,22.123C63.399,32.843 67.5,45.693 67.5,57.375C67.491,65.428 64.288,73.149 58.594,78.844C52.899,84.538 45.178,87.741 37.125,87.75Z" fill="#5B851F"/>
</svg>
