<svg width="52" height="52" viewBox="0 0 52 52" fill="none" xmlns="http://www.w3.org/2000/svg" xmlns:xlink="http://www.w3.org/1999/xlink">
<path d="M5.267,50.994C3.791,50.994 2.559,50.5 1.572,49.513C0.586,48.526 0.091,47.294 0.089,45.816L0.089,4.902C0.089,3.426 0.583,2.194 1.572,1.207C2.562,0.22 3.793,-0.274 5.267,-0.276L46.184,-0.276C47.658,-0.276 48.89,0.218 49.879,1.207C50.868,2.196 51.361,3.428 51.359,4.902L51.359,45.819C51.359,47.293 50.866,48.524 49.879,49.513C48.892,50.503 47.659,50.996 46.181,50.994L5.267,50.994ZM5.267,47.789L46.184,47.789C46.675,47.789 47.127,47.584 47.539,47.174C47.952,46.764 48.157,46.311 48.155,45.816L48.155,4.902C48.155,4.408 47.95,3.956 47.539,3.543C47.129,3.131 46.676,2.926 46.181,2.928L5.267,2.928C4.774,2.928 4.321,3.133 3.909,3.543C3.496,3.953 3.291,4.406 3.293,4.902L3.293,45.819C3.293,46.31 3.498,46.762 3.909,47.174C4.319,47.587 4.77,47.792 5.264,47.789M11.304,39.778L40.637,39.778L31.578,27.698L23.199,38.298L17.591,31.521L11.304,39.778Z" fill="#BDBDBD"/>
</svg>
