<svg width="52" height="52" viewBox="0 0 52 52" fill="none" xmlns="http://www.w3.org/2000/svg" xmlns:xlink="http://www.w3.org/1999/xlink">
<path d="M5.108,50.994C3.632,50.994 2.4,50.5 1.413,49.513C0.426,48.526 -0.068,47.294 -0.07,45.816L-0.07,4.902C-0.07,3.426 0.424,2.194 1.413,1.207C2.402,0.22 3.634,-0.274 5.108,-0.276L46.025,-0.276C47.499,-0.276 48.73,0.218 49.719,1.207C50.709,2.196 51.202,3.428 51.2,4.902L51.2,45.819C51.2,47.293 50.706,48.524 49.719,49.513C48.732,50.503 47.5,50.996 46.022,50.994L5.108,50.994ZM5.108,47.789L46.025,47.789C46.516,47.789 46.968,47.584 47.38,47.174C47.793,46.764 47.998,46.311 47.995,45.816L47.995,4.902C47.995,4.408 47.79,3.956 47.38,3.543C46.97,3.131 46.517,2.926 46.022,2.928L5.108,2.928C4.615,2.928 4.162,3.133 3.749,3.543C3.337,3.953 3.132,4.406 3.134,4.902L3.134,45.819C3.134,46.31 3.339,46.762 3.749,47.174C4.159,47.587 4.611,47.792 5.105,47.789M11.145,39.778L40.478,39.778L31.419,27.698L23.04,38.298L17.432,31.521L11.145,39.778Z" fill="#BDBDBD"/>
</svg>
