<svg width="52" height="52" viewBox="0 0 52 52" fill="none" xmlns="http://www.w3.org/2000/svg" xmlns:xlink="http://www.w3.org/1999/xlink">
<path d="M4.654,50.994C3.178,50.994 1.946,50.5 0.959,49.513C-0.028,48.526 -0.522,47.294 -0.524,45.816L-0.524,4.902C-0.524,3.426 -0.03,2.194 0.959,1.207C1.948,0.22 3.18,-0.274 4.654,-0.276L45.571,-0.276C47.045,-0.276 48.276,0.218 49.265,1.207C50.255,2.196 50.748,3.428 50.746,4.902L50.746,45.819C50.746,47.293 50.252,48.524 49.265,49.513C48.278,50.503 47.046,50.996 45.568,50.994L4.654,50.994ZM4.654,47.789L45.571,47.789C46.062,47.789 46.514,47.584 46.926,47.174C47.339,46.764 47.544,46.311 47.541,45.816L47.541,4.902C47.541,4.408 47.336,3.956 46.926,3.543C46.516,3.131 46.063,2.926 45.568,2.928L4.654,2.928C4.16,2.928 3.708,3.133 3.295,3.543C2.883,3.953 2.678,4.406 2.68,4.902L2.68,45.819C2.68,46.31 2.885,46.762 3.295,47.174C3.705,47.587 4.157,47.792 4.651,47.789M10.691,39.778L40.024,39.778L30.965,27.698L22.586,38.298L16.978,31.521L10.691,39.778Z" fill="#BDBDBD"/>
</svg>
