<svg width="100" height="50" viewBox="0 0 100 50" fill="none" xmlns="http://www.w3.org/2000/svg" xmlns:xlink="http://www.w3.org/1999/xlink">
<path d="M0.369,49.631L0.369,44.208C3.076,43.874 5.183,42.985 6.691,41.543C8.202,40.105 11.058,39.386 15.259,39.386C19.661,39.386 22.768,40.257 24.579,41.998C26.39,43.739 29.063,44.61 32.598,44.61C36.175,44.61 38.869,43.739 40.68,41.998C42.491,40.257 45.598,39.386 50,39.386C54.361,39.386 57.467,40.257 59.32,41.998C61.173,43.739 63.867,44.61 67.402,44.61C70.979,44.61 73.663,43.739 75.453,41.998C77.246,40.257 80.343,39.386 84.742,39.386C88.942,39.386 91.798,40.107 93.309,41.549C94.817,42.987 96.925,43.875 99.631,44.213L99.631,49.636C96.475,49.232 93.971,48.293 92.118,46.82C90.265,45.347 87.806,44.61 84.742,44.61C81.273,44.61 78.615,45.481 76.769,47.222C74.923,48.964 71.801,49.834 67.402,49.834C63.042,49.834 59.935,48.964 58.082,47.222C56.229,45.481 53.535,44.612 50,44.615C46.423,44.615 43.729,45.486 41.918,47.228C40.107,48.969 37,49.84 32.598,49.84C28.196,49.84 25.084,48.969 23.262,47.228C21.441,45.486 18.773,44.615 15.259,44.615C12.082,44.615 9.639,45.352 7.929,46.825C6.219,48.302 3.699,49.241 0.369,49.641M0.369,29.946L0.369,24.523C3.076,24.188 5.183,23.3 6.691,21.858C8.202,20.42 11.058,19.701 15.259,19.701C19.619,19.701 22.715,20.571 24.547,22.313C26.379,24.054 29.063,24.925 32.598,24.925C36.175,24.925 38.869,24.054 40.68,22.313C42.491,20.571 45.598,19.699 50,19.696C54.361,19.696 57.46,20.566 59.299,22.308C61.138,24.049 63.82,24.92 67.345,24.92C70.918,24.92 73.61,24.049 75.421,22.308C77.232,20.566 80.339,19.696 84.742,19.696C88.9,19.696 91.756,20.416 93.309,21.858C94.859,23.297 96.966,24.183 99.631,24.518L99.631,29.94C96.437,29.54 93.924,28.603 92.092,27.13C90.26,25.656 87.81,24.92 84.742,24.92C81.273,24.92 78.615,25.791 76.769,27.532C74.923,29.273 71.801,30.144 67.402,30.144C63.042,30.144 59.935,29.273 58.082,27.532C56.233,25.791 53.539,24.92 50,24.92C46.423,24.92 43.74,25.791 41.949,27.532C40.156,29.273 37.06,30.144 32.661,30.144C28.262,30.144 25.127,29.273 23.257,27.532C21.387,25.791 18.721,24.92 15.259,24.92C12.124,24.92 9.681,25.656 7.929,27.13C6.177,28.603 3.657,29.542 0.369,29.946ZM0.369,10.25L0.369,4.827C3.076,4.493 5.183,3.605 6.691,2.163C8.202,0.724 11.058,0.005 15.259,0.005C19.619,0.005 22.715,0.876 24.547,2.617C26.379,4.359 29.063,5.23 32.598,5.23C36.175,5.23 38.869,4.359 40.68,2.617C42.491,0.876 45.598,0.003 50,0C54.361,0 57.46,0.871 59.299,2.612C61.138,4.354 63.82,5.224 67.345,5.224C70.918,5.224 73.61,4.354 75.421,2.612C77.232,0.871 80.339,0 84.742,0C88.9,0 91.756,0.719 93.309,2.158C94.859,3.6 96.966,4.488 99.631,4.822L99.631,10.245C96.437,9.844 93.924,8.907 92.092,7.434C90.26,5.961 87.81,5.224 84.742,5.224C81.273,5.224 78.615,6.095 76.769,7.836C74.923,9.578 71.801,10.449 67.402,10.449C63.042,10.449 59.935,9.578 58.082,7.836C56.233,6.095 53.539,5.224 50,5.224C46.423,5.224 43.74,6.095 41.949,7.836C40.156,9.578 37.06,10.449 32.661,10.449C28.262,10.449 25.127,9.578 23.257,7.836C21.387,6.095 18.721,5.224 15.259,5.224C12.124,5.224 9.648,5.961 7.83,7.434C6.012,8.907 3.525,9.846 0.369,10.25Z" fill="#5B851F"/>
</svg>
