<svg width="42" height="34" viewBox="0 0 42 34" fill="none" xmlns="http://www.w3.org/2000/svg" xmlns:xlink="http://www.w3.org/1999/xlink">
<path d="M-0.463,32.213L-0.463,0.063L40.874,0.063L40.874,32.213L-0.463,32.213ZM1.834,29.917L38.577,29.917L38.577,2.359L1.834,2.359L1.834,29.917ZM6.163,25.59L25.063,25.59L25.063,6.688L6.163,6.688L6.163,25.59ZM8.459,23.294L8.459,8.985L22.766,8.985L22.766,23.292L8.459,23.294ZM31.334,10.22L34.869,10.22L34.869,6.688L31.334,6.688L31.334,10.22ZM31.334,17.904L34.869,17.904L34.869,14.372L31.334,14.372L31.334,17.904ZM31.334,25.59L34.869,25.59L34.869,22.056L31.334,22.056L31.334,25.59Z" fill="#FFFFFF"/>
</svg>
