<svg width="52" height="52" viewBox="0 0 52 52" fill="none" xmlns="http://www.w3.org/2000/svg" xmlns:xlink="http://www.w3.org/1999/xlink">
<path d="M5.267,50.952C3.791,50.952 2.559,50.458 1.572,49.471C0.586,48.484 0.091,47.252 0.089,45.774L0.089,4.86C0.089,3.384 0.583,2.152 1.572,1.165C2.562,0.178 3.793,-0.316 5.267,-0.318L46.184,-0.318C47.658,-0.318 48.89,0.176 49.879,1.165C50.868,2.154 51.361,3.386 51.359,4.86L51.359,45.777C51.359,47.251 50.866,48.482 49.879,49.471C48.892,50.461 47.659,50.954 46.181,50.952L5.267,50.952ZM5.267,47.747L46.184,47.747C46.675,47.747 47.127,47.542 47.539,47.132C47.952,46.722 48.157,46.269 48.155,45.774L48.155,4.86C48.155,4.366 47.95,3.914 47.539,3.501C47.129,3.089 46.676,2.884 46.181,2.886L5.267,2.886C4.774,2.886 4.321,3.091 3.909,3.501C3.496,3.911 3.291,4.364 3.293,4.86L3.293,45.777C3.293,46.268 3.498,46.72 3.909,47.132C4.319,47.545 4.77,47.75 5.264,47.747M11.304,39.736L40.637,39.736L31.578,27.656L23.199,38.256L17.591,31.479L11.304,39.736Z" fill="#BDBDBD"/>
</svg>
