<svg width="72" height="52" viewBox="0 0 72 52" fill="none" xmlns="http://www.w3.org/2000/svg" xmlns:xlink="http://www.w3.org/1999/xlink">
<path d="M48.857,51.429L5.143,51.429C3.779,51.429 2.471,50.887 1.506,49.922C0.542,48.958 0,47.65 0,46.286L0,5.143C0,3.779 0.542,2.471 1.506,1.506C2.471,0.542 3.779,0 5.143,0L48.857,0C50.221,0 51.529,0.542 52.494,1.506C53.458,2.471 54,3.779 54,5.143L54,15.583L67.937,5.631C68.321,5.358 68.772,5.196 69.242,5.161C69.712,5.127 70.182,5.223 70.602,5.438C71.021,5.653 71.373,5.979 71.62,6.38C71.866,6.782 71.998,7.243 72,7.714L72,43.714C71.998,44.185 71.866,44.647 71.62,45.048C71.373,45.45 71.021,45.776 70.602,45.991C70.182,46.206 69.712,46.301 69.242,46.267C68.772,46.233 68.321,46.07 67.937,45.797L54,35.846L54,46.286C54,47.65 53.458,48.958 52.494,49.922C51.529,50.887 50.221,51.429 48.857,51.429ZM5.143,5.143L5.143,46.286L48.857,46.286L48.857,30.857C48.859,30.386 48.991,29.925 49.237,29.523C49.484,29.122 49.836,28.796 50.255,28.581C50.675,28.366 51.145,28.27 51.615,28.304C52.085,28.338 52.536,28.501 52.92,28.774L66.857,38.726L66.857,12.703L52.92,22.654C52.536,22.928 52.085,23.09 51.615,23.124C51.145,23.158 50.675,23.063 50.255,22.848C49.836,22.633 49.484,22.307 49.237,21.905C48.991,21.504 48.859,21.043 48.857,20.571L48.857,5.143L5.143,5.143Z" fill="#72ABFF"/>
</svg>
