<svg width="116" height="116" viewBox="0 0 116 116" fill="none" xmlns="http://www.w3.org/2000/svg" xmlns:xlink="http://www.w3.org/1999/xlink">
<path d="M58,0C26.1,0 0,26.1 0,58C0,89.9 26.1,116 58,116C89.9,116 116,89.9 116,58C116,26.1 89.9,0 58,0ZM58,104.4C32.422,104.4 11.6,83.578 11.6,58C11.6,32.422 32.422,11.6 58,11.6C83.578,11.6 104.4,32.422 104.4,58C104.4,83.578 83.578,104.4 58,104.4ZM84.622,32.364L46.4,70.586L31.378,55.622L23.2,63.8L46.4,87L92.8,40.6L84.622,32.364Z" fill="#9BBEF0" stroke="#FFFFFF" stroke-width="1" stroke-miterlimit="3.999327"/>
</svg>
