<svg width="42" height="38" viewBox="0 0 42 38" fill="none" xmlns="http://www.w3.org/2000/svg" xmlns:xlink="http://www.w3.org/1999/xlink">
<path d="M3.029,13.336L3.029,13.31C3.029,10.741 3.79,8.229 5.216,6.092C6.641,3.955 8.668,2.288 11.04,1.302C13.412,0.315 16.023,0.054 18.544,0.549C21.064,1.045 23.382,2.277 25.203,4.088C26.637,3.381 28.238,3.083 29.829,3.229C31.421,3.374 32.941,3.957 34.223,4.912C35.504,5.867 36.497,7.158 37.09,8.642C37.684,10.126 37.856,11.746 37.587,13.321C37.982,13.358 38.366,13.476 38.714,13.667C39.061,13.859 39.366,14.12 39.609,14.435C39.851,14.749 40.026,15.11 40.123,15.496C40.219,15.881 40.235,16.282 40.17,16.674C38.864,24.531 35.633,29.505 30.483,31.597L30.483,33.539C30.483,34.689 30.026,35.791 29.214,36.604C28.401,37.417 27.298,37.874 26.148,37.874L14.589,37.874C13.439,37.874 12.337,37.417 11.524,36.604C10.711,35.791 10.254,34.689 10.254,33.539L10.254,31.597C5.104,29.505 1.873,24.531 0.567,16.674C0.504,16.292 0.518,15.902 0.608,15.526C0.699,15.151 0.864,14.797 1.093,14.486C1.323,14.175 1.612,13.913 1.945,13.716C2.277,13.519 2.646,13.391 3.029,13.339L3.029,13.336ZM5.919,13.31L8.809,13.31C8.809,11.394 9.57,9.556 10.925,8.201C12.28,6.846 14.118,6.085 16.034,6.085C17.95,6.085 19.787,6.846 21.142,8.201C22.497,9.556 23.258,11.394 23.258,13.31L26.148,13.31C26.148,10.627 25.083,8.054 23.186,6.158C21.289,4.261 18.716,3.195 16.034,3.195C13.351,3.195 10.778,4.261 8.882,6.158C6.985,8.054 5.919,10.627 5.919,13.31ZM11.699,13.31L20.369,13.31C20.369,12.16 19.912,11.057 19.099,10.244C18.286,9.432 17.183,8.975 16.034,8.975C14.884,8.975 13.781,9.432 12.969,10.244C12.156,11.057 11.699,12.16 11.699,13.31ZM31.541,13.31L34.636,13.31C34.854,12.456 34.875,11.563 34.695,10.7C34.516,9.837 34.143,9.026 33.603,8.329C33.063,7.632 32.371,7.068 31.58,6.679C30.789,6.29 29.92,6.087 29.038,6.085C28.345,6.085 27.686,6.206 27.073,6.429C27.585,7.25 28.007,8.134 28.33,9.062C28.881,8.925 29.459,8.953 29.994,9.142C30.528,9.332 30.995,9.674 31.337,10.126C31.679,10.579 31.881,11.121 31.917,11.687C31.953,12.253 31.822,12.817 31.541,13.31ZM27.593,32.094L13.144,32.094L13.144,33.539C13.144,33.922 13.296,34.29 13.567,34.561C13.838,34.832 14.206,34.984 14.589,34.984L26.148,34.984C26.532,34.984 26.899,34.832 27.17,34.561C27.441,34.29 27.593,33.922 27.593,33.539L27.593,32.094ZM12.127,29.204L28.611,29.204C33.194,27.73 36.095,23.563 37.321,16.2L3.416,16.2C4.642,23.563 7.543,27.73 12.127,29.204Z" fill="#FFFFFF" stroke="#A9F9A1" stroke-width="0.188" stroke-miterlimit="3.999327"/>
</svg>
