<svg width="120" height="80" viewBox="0 0 120 80" fill="none" xmlns="http://www.w3.org/2000/svg" xmlns:xlink="http://www.w3.org/1999/xlink">
<path d="M80,13.333L80,66.667L13.333,66.667L13.333,13.333L80,13.333ZM86.667,0L6.667,0C4.899,0 3.203,0.702 1.953,1.953C0.702,3.203 0,4.899 0,6.667L0,73.333C0,75.101 0.702,76.797 1.953,78.047C3.203,79.298 4.899,80 6.667,80L86.667,80C88.435,80 90.13,79.298 91.381,78.047C92.631,76.797 93.333,75.101 93.333,73.333L93.333,50L120,76.667L120,3.333L93.333,30L93.333,6.667C93.333,4.899 92.631,3.203 91.381,1.953C90.13,0.702 88.435,0 86.667,0Z" fill="#9BBEF0" stroke="#FFFFFF" stroke-width="1.3" stroke-miterlimit="3.999327"/>
</svg>
