<svg width="52" height="52" viewBox="0 0 52 52" fill="none" xmlns="http://www.w3.org/2000/svg" xmlns:xlink="http://www.w3.org/1999/xlink">
<path d="M5.881,50.952C4.405,50.952 3.174,50.458 2.187,49.471C1.2,48.484 0.705,47.252 0.703,45.774L0.703,4.86C0.703,3.384 1.198,2.152 2.187,1.165C3.176,0.178 4.407,-0.316 5.881,-0.318L46.798,-0.318C48.272,-0.318 49.504,0.176 50.493,1.165C51.482,2.154 51.976,3.386 51.973,4.86L51.973,45.777C51.973,47.251 51.48,48.482 50.493,49.471C49.506,50.461 48.273,50.954 46.795,50.952L5.881,50.952ZM5.881,47.747L46.798,47.747C47.29,47.747 47.742,47.542 48.154,47.132C48.566,46.722 48.771,46.269 48.769,45.774L48.769,4.86C48.769,4.366 48.564,3.914 48.154,3.501C47.744,3.089 47.291,2.884 46.795,2.886L5.881,2.886C5.388,2.886 4.935,3.091 4.523,3.501C4.11,3.911 3.905,4.364 3.908,4.86L3.908,45.777C3.908,46.268 4.113,46.72 4.523,47.132C4.933,47.545 5.385,47.75 5.878,47.747M11.918,39.736L41.252,39.736L32.193,27.656L23.813,38.256L18.206,31.479L11.918,39.736Z" fill="#BDBDBD"/>
</svg>
