<svg width="36" height="44" viewBox="0 0 36 44" fill="none" xmlns="http://www.w3.org/2000/svg" xmlns:xlink="http://www.w3.org/1999/xlink">
<path d="M30.903,6.21C29.956,6.209 29.028,6.481 28.232,6.994L28.232,5.065C28.232,3.84 27.779,2.659 26.961,1.748C26.142,0.838 25.016,0.262 23.799,0.131C22.581,0.001 21.359,0.325 20.366,1.042C19.373,1.758 18.68,2.817 18.421,4.013C17.675,3.508 16.806,3.215 15.906,3.166C15.006,3.117 14.11,3.314 13.314,3.736C12.517,4.158 11.851,4.789 11.386,5.561C10.921,6.333 10.676,7.217 10.675,8.118L10.675,21.667L9.238,19.358C8.584,18.216 7.502,17.382 6.232,17.037C4.962,16.693 3.607,16.867 2.466,17.522C1.324,18.177 0.49,19.258 0.145,20.528C-0.199,21.798 -0.025,23.153 0.63,24.295C6.622,36.933 10.009,42.085 19.453,42.085C23.804,42.08 27.976,40.35 31.052,37.273C34.129,34.197 35.86,30.025 35.865,25.674L35.865,11.171C35.865,10.52 35.736,9.875 35.487,9.273C35.238,8.671 34.872,8.124 34.411,7.663C33.951,7.202 33.404,6.837 32.802,6.587C32.2,6.338 31.555,6.21 30.903,6.21ZM33.575,25.674C33.57,29.418 32.081,33.007 29.434,35.654C26.786,38.302 23.197,39.791 19.453,39.795C15.446,39.795 12.868,38.832 10.532,36.466C7.967,33.88 5.626,29.491 2.68,23.276L2.636,23.193C2.281,22.58 2.185,21.851 2.369,21.166C2.552,20.482 3,19.898 3.614,19.544C4.227,19.19 4.957,19.094 5.641,19.277C6.325,19.46 6.909,19.908 7.263,20.522L7.282,20.554L10.847,26.279C10.978,26.491 11.175,26.654 11.407,26.744C11.64,26.834 11.895,26.845 12.135,26.777C12.374,26.709 12.585,26.564 12.735,26.365C12.885,26.166 12.966,25.923 12.965,25.674L12.965,8.118C12.965,7.41 13.247,6.73 13.748,6.229C14.249,5.728 14.928,5.446 15.637,5.446C16.345,5.446 17.025,5.728 17.526,6.229C18.027,6.73 18.308,7.41 18.308,8.118L18.308,19.568C18.308,19.871 18.429,20.163 18.644,20.377C18.858,20.592 19.15,20.713 19.453,20.713C19.757,20.713 20.048,20.592 20.263,20.377C20.478,20.163 20.598,19.871 20.598,19.568L20.598,5.065C20.598,4.356 20.88,3.677 21.381,3.176C21.882,2.675 22.561,2.393 23.27,2.393C23.979,2.393 24.658,2.675 25.159,3.176C25.66,3.677 25.942,4.356 25.942,5.065L25.942,19.568C25.942,19.871 26.062,20.163 26.277,20.377C26.492,20.592 26.783,20.713 27.087,20.713C27.39,20.713 27.681,20.592 27.896,20.377C28.111,20.163 28.232,19.871 28.232,19.568L28.232,11.171C28.232,10.463 28.513,9.783 29.014,9.282C29.515,8.781 30.195,8.5 30.903,8.5C31.612,8.5 32.291,8.781 32.792,9.282C33.293,9.783 33.575,10.463 33.575,11.171L33.575,25.674Z" fill="#FFFFFF"/>
</svg>
