<svg width="52" height="52" viewBox="0 0 52 52" fill="none" xmlns="http://www.w3.org/2000/svg" xmlns:xlink="http://www.w3.org/1999/xlink">
<path d="M5.881,50.994C4.405,50.994 3.173,50.5 2.186,49.513C1.199,48.526 0.705,47.294 0.703,45.816L0.703,4.902C0.703,3.426 1.197,2.194 2.186,1.207C3.175,0.22 4.407,-0.274 5.881,-0.276L46.798,-0.276C48.272,-0.276 49.503,0.218 50.492,1.207C51.482,2.196 51.975,3.428 51.973,4.902L51.973,45.819C51.973,47.293 51.479,48.524 50.492,49.513C49.505,50.503 48.273,50.996 46.795,50.994L5.881,50.994ZM5.881,47.789L46.798,47.789C47.289,47.789 47.741,47.584 48.153,47.174C48.566,46.764 48.771,46.311 48.768,45.816L48.768,4.902C48.768,4.408 48.563,3.956 48.153,3.543C47.743,3.131 47.29,2.926 46.795,2.928L5.881,2.928C5.387,2.928 4.935,3.133 4.522,3.543C4.11,3.953 3.905,4.406 3.907,4.902L3.907,45.819C3.907,46.31 4.112,46.762 4.522,47.174C4.932,47.587 5.384,47.792 5.878,47.789M11.918,39.778L41.251,39.778L32.192,27.698L23.813,38.298L18.205,31.521L11.918,39.778Z" fill="#BDBDBD"/>
</svg>
