<svg width="64" height="72" viewBox="0 0 64 72" fill="none" xmlns="http://www.w3.org/2000/svg" xmlns:xlink="http://www.w3.org/1999/xlink">
<path d="M34.496,0.452L59.385,9.786C60.741,10.294 61.909,11.204 62.734,12.394C63.558,13.584 64,14.997 64,16.445L64,35.514C64,41.457 62.345,47.282 59.221,52.337C56.097,57.393 51.627,61.478 46.311,64.136L34.386,70.099C33.645,70.469 32.828,70.662 32,70.662C31.172,70.662 30.355,70.469 29.614,70.099L17.689,64.136C12.373,61.478 7.903,57.393 4.779,52.337C1.655,47.282 0,41.457 0,35.514L0,16.445C0,14.997 0.442,13.584 1.266,12.394C2.091,11.204 3.259,10.294 4.615,9.786L29.504,0.452C31.113,-0.151 32.887,-0.151 34.496,0.452ZM32,7.112L7.111,16.445L7.111,35.514C7.112,40.136 8.4,44.666 10.83,48.597C13.26,52.528 16.737,55.705 20.871,57.772L32,63.343L43.129,57.779C47.264,55.712 50.742,52.534 53.172,48.601C55.602,44.668 56.889,40.137 56.889,35.514L56.889,16.445L32,7.112ZM32,21.092C33.518,21.092 34.996,21.577 36.218,22.476C37.441,23.376 38.343,24.643 38.794,26.093C39.244,27.542 39.219,29.097 38.722,30.532C38.225,31.966 37.283,33.203 36.032,34.063L35.556,34.365L35.556,45.981C35.555,46.888 35.208,47.759 34.585,48.418C33.963,49.077 33.113,49.474 32.208,49.527C31.304,49.58 30.413,49.286 29.718,48.704C29.023,48.122 28.576,47.297 28.469,46.397L28.444,45.981L28.444,34.365C27.087,33.583 26.026,32.375 25.426,30.928C24.826,29.481 24.72,27.877 25.125,26.363C25.531,24.85 26.424,23.513 27.667,22.56C28.91,21.607 30.434,21.091 32,21.092Z" fill="#72ABFF" stroke="#FFFFFF" stroke-width="0.565" stroke-miterlimit="3.999327"/>
</svg>
