<svg width="56" height="44" viewBox="0 0 56 44" fill="none" xmlns="http://www.w3.org/2000/svg" xmlns:xlink="http://www.w3.org/1999/xlink">
<path d="M0.775,42.44L0.775,-0.163L55.551,-0.163L55.551,42.44L0.775,42.44ZM3.818,39.397L52.508,39.397L52.508,2.88L3.818,2.88L3.818,39.397ZM9.555,33.664L34.599,33.664L34.599,8.616L9.555,8.616L9.555,33.664ZM12.598,30.621L12.598,11.659L31.556,11.659L31.556,30.618L12.598,30.621ZM42.91,13.296L47.594,13.296L47.594,8.616L42.91,8.616L42.91,13.296ZM42.91,23.479L47.594,23.479L47.594,18.798L42.91,18.798L42.91,23.479ZM42.91,33.664L47.594,33.664L47.594,28.981L42.91,28.981L42.91,33.664Z" fill="#FFFFFF"/>
</svg>
