<svg width="96" height="124" viewBox="0 0 96 124" fill="none" xmlns="http://www.w3.org/2000/svg" xmlns:xlink="http://www.w3.org/1999/xlink">
<path d="M48,69.818C43.685,69.818 39.466,68.538 35.878,66.141C32.29,63.744 29.494,60.336 27.842,56.349C26.191,52.363 25.759,47.976 26.601,43.743C27.443,39.511 29.521,35.623 32.572,32.572C35.623,29.521 39.511,27.443 43.743,26.601C47.976,25.759 52.363,26.191 56.349,27.843C60.336,29.494 63.744,32.29 66.141,35.878C68.538,39.466 69.818,43.685 69.818,48C69.811,53.784 67.51,59.33 63.42,63.42C59.33,67.51 53.784,69.811 48,69.818ZM48,34.909C45.411,34.909 42.88,35.677 40.727,37.115C38.574,38.554 36.896,40.598 35.905,42.99C34.915,45.382 34.655,48.014 35.16,50.554C35.666,53.093 36.912,55.426 38.743,57.257C40.574,59.087 42.907,60.334 45.446,60.839C47.985,61.344 50.617,61.085 53.009,60.094C55.402,59.104 57.446,57.426 58.885,55.273C60.323,53.12 61.091,50.589 61.091,48C61.087,44.529 59.707,41.201 57.253,38.747C54.798,36.293 51.471,34.913 48,34.909Z" fill="#9BBEF0" stroke="#FFFFFF" stroke-width="0.5" stroke-miterlimit="3.999327"/>
<path d="M48,122.182L11.188,78.768C10.677,78.116 10.171,77.46 9.67,76.8C3.385,68.515 -0.012,58.399 0,48C0,35.27 5.057,23.061 14.059,14.059C23.061,5.057 35.27,0 48,0C60.73,0 72.939,5.057 81.941,14.059C90.943,23.061 96,35.27 96,48C96.01,58.394 92.615,68.505 86.335,76.787L86.33,76.8C86.33,76.8 85.021,78.519 84.825,78.75L48,122.182ZM16.639,71.542C16.639,71.542 17.655,72.886 17.887,73.174L48,108.689L78.153,73.126C78.345,72.886 79.366,71.533 79.37,71.529C84.507,64.761 87.283,56.496 87.273,48C87.273,37.584 83.135,27.595 75.77,20.23C68.405,12.865 58.416,8.727 48,8.727C37.584,8.727 27.595,12.865 20.23,20.23C12.865,27.595 8.727,37.584 8.727,48C8.717,56.502 11.496,64.772 16.639,71.542Z" fill="#9BBEF0" stroke="#FFFFFF" stroke-width="0.5" stroke-miterlimit="3.999327"/>
</svg>
