<svg width="30" height="24" viewBox="0 0 30 24" fill="none" xmlns="http://www.w3.org/2000/svg" xmlns:xlink="http://www.w3.org/1999/xlink">
<path d="M28.374,3.578C27.329,4.042 26.227,4.333 25.066,4.507C26.227,3.81 27.155,2.708 27.561,1.373C26.459,2.011 25.24,2.476 23.905,2.766C22.861,1.663 21.352,0.967 19.727,0.967C16.593,0.967 14.04,3.52 14.04,6.654C14.04,7.118 14.098,7.524 14.214,7.931C9.513,7.698 5.277,5.435 2.434,1.953C1.969,2.824 1.679,3.752 1.679,4.797C1.679,6.77 2.666,8.511 4.233,9.556C3.304,9.497 2.434,9.265 1.621,8.859L1.621,8.917C1.621,11.703 3.594,14.024 6.206,14.546C5.741,14.662 5.219,14.72 4.697,14.72C4.349,14.72 3.942,14.662 3.594,14.604C4.349,16.868 6.438,18.55 8.933,18.55C6.96,20.059 4.523,20.988 1.853,20.988C1.389,20.988 0.925,20.988 0.519,20.93C3.072,22.555 6.032,23.483 9.281,23.483C19.785,23.483 25.53,14.778 25.53,7.234C25.53,7.002 25.53,6.712 25.53,6.48C26.633,5.725 27.619,4.739 28.374,3.578Z" fill="#090914"/>
</svg>
