<svg width="40" height="38" viewBox="0 0 40 38" fill="none" xmlns="http://www.w3.org/2000/svg" xmlns:xlink="http://www.w3.org/1999/xlink">
<path d="M14.281,32.515C14.281,32.871 14.14,33.212 13.888,33.464C13.636,33.716 13.295,33.857 12.939,33.857L4.885,33.857C4.179,33.857 3.485,33.671 2.873,33.317C2.261,32.963 1.753,32.455 1.4,31.843C1.047,31.231 0.861,30.537 0.861,29.83C0.861,29.123 1.047,28.429 1.4,27.817L7.154,17.876L4.796,18.505C4.626,18.551 4.447,18.562 4.272,18.539C4.097,18.516 3.928,18.458 3.775,18.37C3.466,18.191 3.241,17.897 3.149,17.552C3.057,17.207 3.105,16.84 3.284,16.531C3.463,16.222 3.757,15.997 4.102,15.905L9.6,14.433C9.77,14.387 9.948,14.376 10.123,14.399C10.298,14.422 10.466,14.479 10.619,14.567C10.772,14.655 10.905,14.773 11.013,14.913C11.12,15.053 11.199,15.212 11.244,15.383L12.719,20.881C12.766,21.052 12.778,21.231 12.755,21.407C12.732,21.582 12.675,21.752 12.586,21.906C12.497,22.059 12.379,22.193 12.238,22.301C12.097,22.409 11.936,22.487 11.764,22.532C11.65,22.562 11.533,22.577 11.415,22.577C11.12,22.577 10.833,22.479 10.599,22.3C10.365,22.12 10.196,21.868 10.12,21.582L9.483,19.208L3.729,29.159C3.612,29.363 3.55,29.594 3.549,29.829C3.549,30.064 3.611,30.295 3.728,30.499C3.845,30.703 4.013,30.872 4.216,30.991C4.42,31.109 4.65,31.172 4.885,31.173L12.939,31.173C13.295,31.173 13.636,31.314 13.888,31.566C14.14,31.818 14.281,32.159 14.281,32.515ZM37.893,27.817L34.011,21.106C33.825,20.814 33.534,20.605 33.197,20.522C32.861,20.44 32.506,20.491 32.206,20.664C31.907,20.837 31.685,21.119 31.589,21.452C31.492,21.784 31.528,22.141 31.689,22.448L35.571,29.159C35.689,29.363 35.751,29.594 35.751,29.829C35.751,30.064 35.69,30.295 35.573,30.499C35.456,30.703 35.287,30.872 35.084,30.991C34.881,31.109 34.65,31.172 34.415,31.173L22.89,31.173L24.625,29.438C24.877,29.186 25.018,28.845 25.019,28.489C25.019,28.133 24.877,27.791 24.626,27.539C24.374,27.288 24.033,27.146 23.677,27.146C23.321,27.146 22.979,27.287 22.727,27.539L18.7,31.565C18.576,31.69 18.477,31.838 18.409,32.001C18.342,32.164 18.307,32.339 18.307,32.515C18.307,32.691 18.342,32.866 18.409,33.029C18.477,33.192 18.576,33.34 18.7,33.465L22.727,37.492C22.852,37.616 23,37.715 23.163,37.782C23.326,37.85 23.5,37.884 23.677,37.884C23.853,37.884 24.028,37.849 24.19,37.782C24.353,37.714 24.501,37.615 24.626,37.491C24.75,37.366 24.849,37.218 24.917,37.055C24.984,36.892 25.019,36.718 25.019,36.541C25.019,36.365 24.984,36.19 24.916,36.028C24.849,35.865 24.75,35.717 24.625,35.592L22.89,33.857L34.415,33.857C35.122,33.857 35.816,33.671 36.428,33.317C37.039,32.963 37.547,32.455 37.901,31.843C38.254,31.231 38.44,30.537 38.439,29.83C38.439,29.123 38.253,28.429 37.9,27.817L37.893,27.817ZM19.65,2.985C19.886,2.983 20.118,3.044 20.322,3.162C20.527,3.28 20.696,3.451 20.811,3.656L26.565,13.597L24.202,12.963C23.863,12.884 23.505,12.939 23.206,13.118C22.907,13.298 22.689,13.586 22.599,13.923C22.509,14.26 22.553,14.619 22.723,14.924C22.893,15.229 23.175,15.455 23.509,15.556L29.009,17.03C29.123,17.06 29.239,17.075 29.356,17.076C29.652,17.075 29.939,16.978 30.173,16.798C30.407,16.618 30.575,16.366 30.652,16.081L32.127,10.579C32.177,10.407 32.193,10.227 32.173,10.049C32.153,9.871 32.097,9.699 32.01,9.543C31.922,9.387 31.804,9.25 31.663,9.14C31.521,9.03 31.359,8.949 31.187,8.903C31.014,8.857 30.833,8.845 30.656,8.87C30.478,8.894 30.308,8.954 30.154,9.046C30,9.137 29.866,9.258 29.759,9.402C29.653,9.546 29.576,9.71 29.534,9.884L28.897,12.262L23.135,2.314C22.781,1.703 22.273,1.196 21.662,0.843C21.05,0.491 20.356,0.305 19.65,0.305C18.944,0.305 18.251,0.491 17.639,0.843C17.027,1.196 16.519,1.703 16.165,2.314L12.279,9.025C12.112,9.333 12.072,9.693 12.167,10.03C12.262,10.367 12.485,10.653 12.788,10.828C13.091,11.003 13.45,11.053 13.789,10.967C14.128,10.881 14.42,10.666 14.603,10.368L18.489,3.656C18.605,3.451 18.774,3.28 18.978,3.162C19.182,3.044 19.414,2.983 19.65,2.985Z" fill="#FFFFFF"/>
</svg>
