<svg width="198" height="138" viewBox="0 0 198 138" fill="none" xmlns="http://www.w3.org/2000/svg" xmlns:xlink="http://www.w3.org/1999/xlink">
<path d="M79.6,97.933L130.808,68.333L79.6,38.733L79.6,97.933ZM193.659,20.677C194.941,25.315 195.829,31.531 196.421,39.424C197.112,47.317 197.408,54.125 197.408,60.045L198,68.333C198,89.941 196.421,105.827 193.659,115.989C191.192,124.869 185.469,130.592 176.589,133.059C171.952,134.341 163.467,135.229 150.443,135.821C137.616,136.512 125.875,136.808 115.021,136.808L99.333,137.4C57.992,137.4 32.24,135.821 22.077,133.059C13.197,130.592 7.475,124.869 5.008,115.989C3.725,111.352 2.837,105.136 2.245,97.243C1.555,89.349 1.259,82.541 1.259,76.621L0.667,68.333C0.667,46.725 2.245,30.84 5.008,20.677C7.475,11.797 13.197,6.075 22.077,3.608C26.715,2.325 35.2,1.437 48.224,0.845C61.051,0.155 72.792,-0.141 83.645,-0.141L99.333,-0.733C140.675,-0.733 166.427,0.845 176.589,3.608C185.469,6.075 191.192,11.797 193.659,20.677Z" fill="#FF0000"/>
</svg>
