<svg width="56" height="54" viewBox="0 0 56 54" fill="none" xmlns="http://www.w3.org/2000/svg" xmlns:xlink="http://www.w3.org/1999/xlink">
<path d="M54.266,13.005L41.577,0.316C41.26,-0.002 40.884,-0.254 40.47,-0.426C40.056,-0.598 39.612,-0.687 39.163,-0.687C38.715,-0.687 38.271,-0.598 37.857,-0.426C37.443,-0.254 37.066,-0.002 36.75,0.316L1.746,35.331C1.428,35.646 1.176,36.022 1.004,36.435C0.833,36.848 0.745,37.292 0.746,37.739L0.746,50.429C0.746,51.332 1.105,52.199 1.744,52.838C2.383,53.477 3.25,53.836 4.153,53.836L16.843,53.836C17.746,53.836 18.612,53.477 19.251,52.839L54.263,17.824C54.581,17.507 54.833,17.131 55.005,16.717C55.177,16.302 55.266,15.858 55.266,15.41C55.266,14.962 55.177,14.518 55.005,14.103C54.833,13.689 54.581,13.313 54.263,12.996L54.266,13.005ZM3.489,36.799L29.14,11.145L35.483,17.491L9.832,43.143L3.489,36.799ZM3.018,50.429L3.018,39.542L9.029,45.553L15.04,51.564L4.153,51.564C3.852,51.564 3.563,51.445 3.35,51.232C3.137,51.019 3.018,50.73 3.018,50.429ZM17.783,51.093L11.439,44.75L37.091,19.096L43.434,25.442L17.783,51.093ZM52.659,16.216L45.041,23.834L30.747,9.541L38.363,1.923C38.468,1.817 38.593,1.733 38.731,1.676C38.869,1.619 39.017,1.59 39.166,1.59C39.315,1.59 39.463,1.619 39.601,1.676C39.739,1.733 39.864,1.817 39.97,1.923L52.659,14.609C52.765,14.715 52.849,14.84 52.906,14.978C52.963,15.116 52.992,15.264 52.992,15.413C52.992,15.562 52.963,15.71 52.906,15.848C52.849,15.986 52.765,16.111 52.659,16.216Z" fill="#5B851F" stroke="#FFFFFF" stroke-width="0.2" stroke-miterlimit="3.999327"/>
</svg>
