<svg width="50" height="42" viewBox="0 0 50 42" fill="none" xmlns="http://www.w3.org/2000/svg" xmlns:xlink="http://www.w3.org/1999/xlink">
<path d="M42.409,18.356L2.878,18.356C2.314,18.356 1.773,18.58 1.374,18.979C0.975,19.378 0.751,19.919 0.751,20.483C0.751,21.047 0.975,21.588 1.374,21.987C1.773,22.386 2.314,22.61 2.878,22.61L42.409,22.61L26.895,38.119C26.496,38.519 26.271,39.06 26.271,39.625C26.271,40.19 26.496,40.732 26.895,41.131C27.294,41.531 27.836,41.755 28.401,41.755C28.966,41.755 29.507,41.531 29.907,41.131L49.049,21.989C49.247,21.791 49.404,21.557 49.512,21.298C49.619,21.04 49.674,20.763 49.674,20.483C49.674,20.203 49.619,19.926 49.512,19.668C49.404,19.409 49.247,19.175 49.049,18.977L29.907,-0.165C29.507,-0.565 28.966,-0.789 28.401,-0.789C27.836,-0.789 27.294,-0.565 26.895,-0.165C26.496,0.234 26.271,0.776 26.271,1.341C26.271,1.905 26.496,2.447 26.895,2.846L42.409,18.356Z" transform="rotate(360 25.212 20.483)" fill="#FFFFFF" stroke="#FFFFFF" stroke-width="1.134" stroke-miterlimit="3.999327"/>
</svg>
