<svg width="50" height="50" viewBox="0 0 50 50" fill="none" xmlns="http://www.w3.org/2000/svg" xmlns:xlink="http://www.w3.org/1999/xlink">
<path d="M45.003,30.82C45.811,31.461 46.986,31.326 47.627,30.517C48.267,29.709 48.132,28.535 47.324,27.894L45.003,30.82ZM44.095,27.716L45.255,26.253L45.255,26.253L44.095,27.716ZM44.095,19.794L45.255,21.257L45.255,21.257L44.095,19.794ZM47.324,19.616C48.132,18.975 48.267,17.801 47.627,16.993C46.986,16.185 45.811,16.049 45.003,16.69L47.324,19.616ZM2.507,16.69C1.699,16.049 0.525,16.185 -0.116,16.993C-0.757,17.801 -0.621,18.975 0.187,19.616L2.507,16.69ZM3.416,19.794L2.256,21.257L2.256,21.257L3.416,19.794ZM3.416,27.716L2.256,26.253L2.256,26.253L3.416,27.716ZM0.187,27.894C-0.621,28.535 -0.757,29.709 -0.116,30.517C0.525,31.326 1.699,31.461 2.507,30.82L0.187,27.894ZM28.312,45.891C28.161,46.911 28.867,47.86 29.887,48.011C30.907,48.161 31.856,47.456 32.007,46.435L28.312,45.891ZM30.548,43.527L28.7,43.254L28.7,43.254L30.548,43.527ZM32.226,38.442L33.159,40.06L33.162,40.058L32.226,38.442ZM37.464,39.531L38.152,37.795L38.151,37.794L37.464,39.531ZM39.251,42.247C40.21,42.627 41.295,42.158 41.675,41.2C42.055,40.241 41.586,39.156 40.627,38.776L39.251,42.247ZM19.199,1.619C19.349,0.599 18.644,-0.35 17.624,-0.5C16.603,-0.651 15.654,0.054 15.504,1.075L19.199,1.619ZM16.963,3.984L18.81,4.257L18.811,4.256L16.963,3.984ZM15.285,9.068L14.351,7.451L14.348,7.452L15.285,9.068ZM10.047,7.98L9.358,9.716L9.359,9.716L10.047,7.98ZM8.26,5.263C7.301,4.883 6.216,5.352 5.836,6.311C5.456,7.269 5.925,8.355 6.884,8.735L8.26,5.263ZM5.68,38.765C4.713,39.122 4.218,40.196 4.575,41.163C4.932,42.131 6.006,42.625 6.973,42.268L5.68,38.765ZM8.991,39.533L8.346,37.78L8.344,37.781L8.991,39.533ZM16.433,43.527L14.589,43.819L14.589,43.819L16.433,43.527ZM15.007,46.456C15.168,47.474 16.125,48.169 17.144,48.008C18.162,47.846 18.857,46.889 18.695,45.871L15.007,46.456ZM41.829,8.746C42.797,8.39 43.293,7.316 42.936,6.349C42.58,5.381 41.506,4.885 40.539,5.241L41.829,8.746ZM38.52,7.975L37.875,6.222L37.873,6.223L38.52,7.975ZM31.078,3.984L32.922,3.691L32.922,3.691L31.078,3.984ZM32.504,1.054C32.342,0.036 31.386,-0.659 30.367,-0.497C29.348,-0.336 28.654,0.621 28.815,1.64L32.504,1.054ZM41.184,25.623C42.215,25.623 43.051,24.786 43.051,23.755C43.051,22.724 42.215,21.888 41.184,21.888L41.184,25.623ZM6.327,21.888C5.295,21.888 4.459,22.724 4.459,23.755C4.459,24.786 5.295,25.623 6.327,25.623L6.327,21.888ZM30.857,39.635C31.376,40.526 32.52,40.827 33.411,40.307C34.301,39.787 34.602,38.644 34.083,37.753L30.857,39.635ZM16.654,7.875C16.134,6.985 14.991,6.684 14.1,7.203C13.209,7.723 12.908,8.866 13.428,9.757L16.654,7.875ZM34.083,9.757C34.602,8.866 34.301,7.723 33.411,7.203C32.52,6.684 31.376,6.985 30.857,7.875L34.083,9.757ZM13.428,37.753C12.908,38.644 13.209,39.787 14.1,40.307C14.991,40.827 16.134,40.526 16.654,39.635L13.428,37.753ZM47.324,27.894L45.255,26.253L42.934,29.18L45.003,30.82L47.324,27.894ZM45.255,26.253C44.033,25.285 43.271,24.675 42.79,24.176C42.325,23.692 42.429,23.615 42.429,23.755L38.694,23.755C38.694,25.055 39.387,26.025 40.099,26.765C40.796,27.49 41.8,28.281 42.934,29.18L45.255,26.253ZM42.429,23.755C42.429,23.895 42.325,23.818 42.79,23.335C43.271,22.835 44.033,22.225 45.255,21.257L42.934,18.331C41.8,19.23 40.796,20.021 40.099,20.745C39.387,21.485 38.694,22.455 38.694,23.755L42.429,23.755ZM45.255,21.257L47.324,19.616L45.003,16.69L42.934,18.331L45.255,21.257ZM0.187,19.616L2.256,21.257L4.576,18.331L2.507,16.69L0.187,19.616ZM2.256,21.257C3.477,22.225 4.24,22.835 4.72,23.335C5.186,23.818 5.082,23.895 5.082,23.755L8.817,23.755C8.817,22.455 8.124,21.485 7.411,20.745C6.714,20.021 5.71,19.23 4.576,18.331L2.256,21.257ZM5.082,23.755C5.082,23.615 5.186,23.692 4.72,24.176C4.24,24.675 3.477,25.285 2.256,26.253L4.576,29.18C5.71,28.281 6.714,27.49 7.411,26.765C8.124,26.025 8.817,25.055 8.817,23.755L5.082,23.755ZM2.256,26.253L0.187,27.894L2.507,30.82L4.576,29.18L2.256,26.253ZM32.007,46.435L32.395,43.799L28.7,43.254L28.312,45.891L32.007,46.435ZM32.395,43.8C32.625,42.244 32.773,41.27 32.967,40.597C33.155,39.945 33.276,39.992 33.159,40.06L31.292,36.825C30.162,37.478 29.665,38.567 29.379,39.561C29.098,40.534 28.914,41.809 28.7,43.254L32.395,43.8ZM33.162,40.058C33.044,40.126 33.061,39.997 33.718,40.16C34.398,40.329 35.315,40.688 36.777,41.267L38.151,37.794C36.795,37.257 35.599,36.779 34.618,36.535C33.614,36.286 32.42,36.171 31.289,36.827L33.162,40.058ZM36.776,41.266L39.251,42.247L40.627,38.776L38.152,37.795L36.776,41.266ZM15.504,1.075L15.116,3.711L18.811,4.256L19.199,1.619L15.504,1.075ZM15.116,3.711C14.886,5.266 14.738,6.241 14.544,6.914C14.356,7.565 14.235,7.518 14.351,7.451L16.219,10.685C17.349,10.033 17.845,8.943 18.132,7.949C18.413,6.976 18.597,5.702 18.81,4.257L15.116,3.711ZM14.348,7.452C14.466,7.384 14.45,7.513 13.792,7.35C13.113,7.181 12.196,6.822 10.734,6.243L9.359,9.716C10.716,10.253 11.911,10.731 12.893,10.975C13.897,11.224 15.09,11.339 16.222,10.683L14.348,7.452ZM10.735,6.244L8.26,5.263L6.884,8.735L9.358,9.716L10.735,6.244ZM6.973,42.268L9.638,41.285L8.344,37.781L5.68,38.765L6.973,42.268ZM9.635,41.286C11.2,40.71 12.206,40.344 12.958,40.171C13.316,40.088 13.528,40.072 13.649,40.076C13.704,40.078 13.733,40.084 13.742,40.087C13.747,40.088 13.749,40.089 13.749,40.089C13.749,40.089 13.749,40.089 13.75,40.09L15.51,36.795C14.37,36.186 13.172,36.289 12.12,36.531C11.083,36.77 9.814,37.241 8.346,37.78L9.635,41.286ZM13.75,40.09C13.751,40.09 13.749,40.089 13.745,40.086C13.742,40.084 13.739,40.082 13.738,40.08C13.733,40.076 13.741,40.082 13.76,40.109C13.802,40.172 13.882,40.32 13.978,40.631C14.184,41.296 14.341,42.261 14.589,43.819L18.277,43.234C18.049,41.794 17.85,40.509 17.546,39.527C17.229,38.503 16.687,37.424 15.51,36.795L13.75,40.09ZM14.589,43.819L15.007,46.456L18.695,45.871L18.277,43.234L14.589,43.819ZM40.539,5.241L37.875,6.222L39.165,9.727L41.829,8.746L40.539,5.241ZM37.873,6.223C36.309,6.801 35.303,7.167 34.552,7.34C34.194,7.423 33.982,7.439 33.862,7.434C33.806,7.432 33.778,7.426 33.769,7.424C33.767,7.423 33.765,7.423 33.764,7.422C33.763,7.422 33.763,7.422 33.763,7.422C33.762,7.422 33.762,7.422 33.762,7.422C33.763,7.422 33.762,7.422 33.762,7.422L31.999,10.714C33.138,11.324 34.337,11.222 35.39,10.98C36.429,10.74 37.698,10.269 39.167,9.726L37.873,6.223ZM33.762,7.422C33.762,7.421 33.764,7.423 33.767,7.425C33.77,7.427 33.773,7.43 33.775,7.431C33.779,7.435 33.771,7.429 33.752,7.401C33.709,7.338 33.63,7.19 33.533,6.879C33.327,6.214 33.169,5.248 32.922,3.691L29.234,4.276C29.462,5.717 29.661,7.002 29.966,7.984C30.283,9.007 30.825,10.085 31.999,10.714L33.762,7.422ZM32.922,3.691L32.504,1.054L28.815,1.64L29.234,4.276L32.922,3.691ZM41.184,21.888L6.327,21.888L6.327,25.623L41.184,25.623L41.184,21.888ZM34.083,37.753L16.654,7.875L13.428,9.757L30.857,39.635L34.083,37.753ZM30.857,7.875L13.428,37.753L16.654,39.635L34.083,9.757L30.857,7.875Z" fill="#FFFFFF"/>
</svg>
