<svg width="68" height="68" viewBox="0 0 68 68" fill="none" xmlns="http://www.w3.org/2000/svg" xmlns:xlink="http://www.w3.org/1999/xlink">
<path d="M63.75,6.36L46.735,6.36L46.735,2.125C46.735,0.951 45.784,0 44.61,0C43.436,0 42.485,0.951 42.485,2.125L42.485,6.359L25.485,6.359L25.485,2.125C25.485,0.951 24.534,0 23.36,0C22.186,0 21.235,0.951 21.235,2.125L21.235,6.359L4.25,6.359C1.903,6.359 0,8.262 0,10.609L0,63.734C0,66.081 1.903,67.984 4.25,67.984L63.75,67.984C66.097,67.984 68,66.081 68,63.734L68,10.609C68,8.263 66.097,6.36 63.75,6.36ZM63.75,63.734L4.25,63.734L4.25,10.609L21.235,10.609L21.235,12.75C21.235,13.924 22.186,14.875 23.36,14.875C24.534,14.875 25.485,13.924 25.485,12.75L25.485,10.61L42.485,10.61L42.485,12.751C42.485,13.925 43.436,14.876 44.61,14.876C45.784,14.876 46.735,13.925 46.735,12.751L46.735,10.61L63.75,10.61L63.75,63.734ZM48.875,33.985L53.125,33.985C54.298,33.985 55.25,33.033 55.25,31.86L55.25,27.61C55.25,26.437 54.298,25.485 53.125,25.485L48.875,25.485C47.702,25.485 46.75,26.437 46.75,27.61L46.75,31.86C46.75,33.033 47.702,33.985 48.875,33.985ZM48.875,50.984L53.125,50.984C54.298,50.984 55.25,50.033 55.25,48.859L55.25,44.609C55.25,43.436 54.298,42.484 53.125,42.484L48.875,42.484C47.702,42.484 46.75,43.436 46.75,44.609L46.75,48.859C46.75,50.034 47.702,50.984 48.875,50.984ZM36.125,42.484L31.875,42.484C30.702,42.484 29.75,43.436 29.75,44.609L29.75,48.859C29.75,50.033 30.702,50.984 31.875,50.984L36.125,50.984C37.298,50.984 38.25,50.033 38.25,48.859L38.25,44.609C38.25,43.437 37.298,42.484 36.125,42.484ZM36.125,25.485L31.875,25.485C30.702,25.485 29.75,26.437 29.75,27.61L29.75,31.86C29.75,33.033 30.702,33.985 31.875,33.985L36.125,33.985C37.298,33.985 38.25,33.033 38.25,31.86L38.25,27.61C38.25,26.436 37.298,25.485 36.125,25.485ZM19.125,25.485L14.875,25.485C13.702,25.485 12.75,26.437 12.75,27.61L12.75,31.86C12.75,33.033 13.702,33.985 14.875,33.985L19.125,33.985C20.298,33.985 21.25,33.033 21.25,31.86L21.25,27.61C21.25,26.436 20.298,25.485 19.125,25.485ZM19.125,42.484L14.875,42.484C13.702,42.484 12.75,43.436 12.75,44.609L12.75,48.859C12.75,50.033 13.702,50.984 14.875,50.984L19.125,50.984C20.298,50.984 21.25,50.033 21.25,48.859L21.25,44.609C21.25,43.437 20.298,42.484 19.125,42.484Z" fill="#72ABFF"/>
</svg>
